<svg width="705" height="61" viewBox="0 0 705 61" fill="none" xmlns="http://www.w3.org/2000/svg">
<g filter="url(#filter0_d_122_18)">
<path d="M6.17021 52L5 7.14687L390 1V46.5179L6.17021 52Z" fill="#159BD7" stroke="black"/>
<path d="M14.3622 39H10.946L20.8267 12.0909H24.1903L34.071 39H30.6548L22.6136 16.348H22.4034L14.3622 39ZM15.6236 28.4886H29.3935V31.3793H15.6236V28.4886ZM52.1374 23.3381L49.3519 24.1264C49.1767 23.6622 48.9183 23.2111 48.5767 22.7731C48.2438 22.3263 47.7884 21.9585 47.2102 21.6694C46.6321 21.3803 45.8919 21.2358 44.9897 21.2358C43.7546 21.2358 42.7254 21.5205 41.902 22.0898C41.0874 22.6504 40.68 23.3643 40.68 24.2315C40.68 25.0024 40.9603 25.6111 41.521 26.0579C42.0816 26.5046 42.9575 26.8769 44.1488 27.1747L47.1445 27.9105C48.949 28.3485 50.2936 29.0186 51.1783 29.9208C52.063 30.8143 52.5053 31.9661 52.5053 33.3764C52.5053 34.5327 52.1725 35.5663 51.5067 36.4773C50.8498 37.3883 49.93 38.1065 48.7475 38.6321C47.565 39.1577 46.1897 39.4205 44.6218 39.4205C42.5633 39.4205 40.8596 38.9737 39.5107 38.0803C38.1617 37.1868 37.3076 35.8816 36.9485 34.1648L39.8917 33.429C40.172 34.5152 40.7019 35.3298 41.4815 35.8729C42.2699 36.416 43.2991 36.6875 44.5692 36.6875C46.0146 36.6875 47.1621 36.3809 48.0117 35.7678C48.8701 35.1458 49.2994 34.4013 49.2994 33.5341C49.2994 32.8333 49.0541 32.2464 48.5636 31.7734C48.073 31.2917 47.3197 30.9325 46.3036 30.696L42.94 29.9077C41.0917 29.4697 39.734 28.7908 38.8668 27.8711C38.0084 26.9426 37.5792 25.782 37.5792 24.3892C37.5792 23.2505 37.8989 22.2431 38.5384 21.3672C39.1866 20.4912 40.0669 19.8036 41.1793 19.3043C42.3005 18.805 43.5707 18.5554 44.9897 18.5554C46.9869 18.5554 48.5548 18.9934 49.6935 19.8693C50.841 20.7453 51.6557 21.9015 52.1374 23.3381ZM71.4685 23.3381L68.683 24.1264C68.5078 23.6622 68.2494 23.2111 67.9078 22.7731C67.5749 22.3263 67.1194 21.9585 66.5413 21.6694C65.9632 21.3803 65.223 21.2358 64.3208 21.2358C63.0857 21.2358 62.0564 21.5205 61.233 22.0898C60.4184 22.6504 60.0111 23.3643 60.0111 24.2315C60.0111 25.0024 60.2914 25.6111 60.852 26.0579C61.4126 26.5046 62.2886 26.8769 63.4798 27.1747L66.4756 27.9105C68.28 28.3485 69.6246 29.0186 70.5093 29.9208C71.394 30.8143 71.8364 31.9661 71.8364 33.3764C71.8364 34.5327 71.5035 35.5663 70.8378 36.4773C70.1808 37.3883 69.2611 38.1065 68.0786 38.6321C66.896 39.1577 65.5208 39.4205 63.9529 39.4205C61.8944 39.4205 60.1907 38.9737 58.8417 38.0803C57.4927 37.1868 56.6387 35.8816 56.2796 34.1648L59.2227 33.429C59.503 34.5152 60.033 35.3298 60.8126 35.8729C61.6009 36.416 62.6302 36.6875 63.9003 36.6875C65.3456 36.6875 66.4931 36.3809 67.3428 35.7678C68.2012 35.1458 68.6304 34.4013 68.6304 33.5341C68.6304 32.8333 68.3852 32.2464 67.8946 31.7734C67.4041 31.2917 66.6508 30.9325 65.6347 30.696L62.271 29.9077C60.4228 29.4697 59.0651 28.7908 58.1979 27.8711C57.3395 26.9426 56.9102 25.782 56.9102 24.3892C56.9102 23.2505 57.23 22.2431 57.8694 21.3672C58.5176 20.4912 59.3979 19.8036 60.5104 19.3043C61.6316 18.805 62.9017 18.5554 64.3208 18.5554C66.3179 18.5554 67.8859 18.9934 69.0246 19.8693C70.1721 20.7453 70.9867 21.9015 71.4685 23.3381ZM76.5041 39V18.8182H79.6049V39H76.5041ZM78.0808 15.4545C77.4764 15.4545 76.9552 15.2487 76.5172 14.837C76.088 14.4253 75.8734 13.9304 75.8734 13.3523C75.8734 12.7741 76.088 12.2792 76.5172 11.8675C76.9552 11.4558 77.4764 11.25 78.0808 11.25C78.6852 11.25 79.202 11.4558 79.6312 11.8675C80.0692 12.2792 80.2882 12.7741 80.2882 13.3523C80.2882 13.9304 80.0692 14.4253 79.6312 14.837C79.202 15.2487 78.6852 15.4545 78.0808 15.4545ZM99.5798 23.3381L96.7943 24.1264C96.6191 23.6622 96.3607 23.2111 96.0191 22.7731C95.6862 22.3263 95.2307 21.9585 94.6526 21.6694C94.0745 21.3803 93.3343 21.2358 92.4321 21.2358C91.197 21.2358 90.1678 21.5205 89.3444 22.0898C88.5297 22.6504 88.1224 23.3643 88.1224 24.2315C88.1224 25.0024 88.4027 25.6111 88.9633 26.0579C89.5239 26.5046 90.3999 26.8769 91.5912 27.1747L94.5869 27.9105C96.3914 28.3485 97.7359 29.0186 98.6207 29.9208C99.5054 30.8143 99.9477 31.9661 99.9477 33.3764C99.9477 34.5327 99.6149 35.5663 98.9491 36.4773C98.2922 37.3883 97.3724 38.1065 96.1899 38.6321C95.0074 39.1577 93.6321 39.4205 92.0642 39.4205C90.0057 39.4205 88.302 38.9737 86.953 38.0803C85.6041 37.1868 84.75 35.8816 84.3909 34.1648L87.3341 33.429C87.6144 34.5152 88.1443 35.3298 88.9239 35.8729C89.7123 36.416 90.7415 36.6875 92.0116 36.6875C93.4569 36.6875 94.6044 36.3809 95.4541 35.7678C96.3125 35.1458 96.7417 34.4013 96.7417 33.5341C96.7417 32.8333 96.4965 32.2464 96.0059 31.7734C95.5154 31.2917 94.7621 30.9325 93.746 30.696L90.3824 29.9077C88.5341 29.4697 87.1764 28.7908 86.3092 27.8711C85.4508 26.9426 85.0216 25.782 85.0216 24.3892C85.0216 23.2505 85.3413 22.2431 85.9807 21.3672C86.6289 20.4912 87.5093 19.8036 88.6217 19.3043C89.7429 18.805 91.0131 18.5554 92.4321 18.5554C94.4292 18.5554 95.9972 18.9934 97.1359 19.8693C98.2834 20.7453 99.098 21.9015 99.5798 23.3381ZM113.392 18.8182V21.446H102.934V18.8182H113.392ZM105.982 13.983H109.083V33.2188C109.083 34.0947 109.21 34.7517 109.464 35.1896C109.727 35.6188 110.059 35.9079 110.462 36.0568C110.874 36.197 111.308 36.267 111.763 36.267C112.105 36.267 112.385 36.2495 112.604 36.2145C112.823 36.1707 112.998 36.1357 113.13 36.1094L113.76 38.8949C113.55 38.9737 113.257 39.0526 112.88 39.1314C112.503 39.219 112.026 39.2628 111.448 39.2628C110.572 39.2628 109.713 39.0745 108.873 38.6978C108.04 38.3211 107.348 37.7474 106.797 36.9766C106.253 36.2057 105.982 35.2334 105.982 34.0597V13.983ZM126.302 39.4205C124.357 39.4205 122.68 38.9912 121.269 38.1328C119.868 37.2656 118.786 36.0568 118.024 34.5064C117.271 32.9472 116.894 31.134 116.894 29.0668C116.894 26.9995 117.271 25.1776 118.024 23.6009C118.786 22.0154 119.846 20.7803 121.204 19.8956C122.57 19.0021 124.164 18.5554 125.986 18.5554C127.037 18.5554 128.075 18.7306 129.1 19.081C130.125 19.4313 131.058 20.0007 131.899 20.7891C132.74 21.5687 133.41 22.6023 133.909 23.8899C134.409 25.1776 134.658 26.763 134.658 28.6463V29.9602H119.101V27.2798H131.505C131.505 26.1411 131.277 25.125 130.822 24.2315C130.375 23.3381 129.735 22.6329 128.903 22.1161C128.08 21.5993 127.108 21.3409 125.986 21.3409C124.751 21.3409 123.683 21.6475 122.78 22.2607C121.887 22.8651 121.199 23.6534 120.718 24.6257C120.236 25.598 119.995 26.6404 119.995 27.7528V29.5398C119.995 31.0639 120.258 32.3559 120.783 33.4158C121.318 34.467 122.058 35.2685 123.004 35.8203C123.95 36.3634 125.049 36.6349 126.302 36.6349C127.116 36.6349 127.852 36.5211 128.509 36.2933C129.175 36.0568 129.749 35.7064 130.23 35.2422C130.712 34.7692 131.084 34.1823 131.347 33.4815L134.343 34.3224C134.028 35.3385 133.498 36.232 132.753 37.0028C132.008 37.7649 131.089 38.3606 129.994 38.7898C128.899 39.2102 127.668 39.4205 126.302 39.4205ZM142.476 26.8594V39H139.375V18.8182H142.371V21.9716H142.634C143.107 20.9467 143.825 20.1233 144.789 19.5014C145.752 18.8707 146.996 18.5554 148.52 18.5554C149.887 18.5554 151.082 18.8357 152.107 19.3963C153.132 19.9482 153.929 20.7891 154.498 21.919C155.068 23.0402 155.352 24.4593 155.352 26.1761V39H152.252V26.3864C152.252 24.8009 151.84 23.5658 151.017 22.6811C150.193 21.7876 149.063 21.3409 147.627 21.3409C146.637 21.3409 145.752 21.5555 144.972 21.9847C144.202 22.4139 143.593 23.0402 143.146 23.8636C142.699 24.687 142.476 25.6856 142.476 26.8594ZM160.441 39V36.6349L171.898 21.919V21.7088H160.809V18.8182H175.892V21.2884L164.75 35.8991V36.1094H176.26V39H160.441ZM181.036 46.5682V18.8182H184.032V22.0241H184.4C184.628 21.6738 184.943 21.227 185.346 20.6839C185.758 20.1321 186.345 19.6416 187.107 19.2124C187.877 18.7744 188.92 18.5554 190.234 18.5554C191.933 18.5554 193.431 18.9802 194.727 19.8299C196.024 20.6796 197.035 21.884 197.763 23.4432C198.49 25.0024 198.853 26.8419 198.853 28.9616C198.853 31.099 198.49 32.9516 197.763 34.5195C197.035 36.0787 196.028 37.2875 194.741 38.146C193.453 38.9956 191.968 39.4205 190.286 39.4205C188.99 39.4205 187.952 39.2058 187.172 38.7766C186.393 38.3387 185.793 37.8437 185.372 37.2919C184.952 36.7313 184.628 36.267 184.4 35.8991H184.137V46.5682H181.036ZM184.085 28.9091C184.085 30.4332 184.308 31.7778 184.755 32.9428C185.201 34.0991 185.854 35.0057 186.712 35.6626C187.571 36.3108 188.622 36.6349 189.866 36.6349C191.162 36.6349 192.244 36.2933 193.111 35.6101C193.987 34.9181 194.644 33.9896 195.082 32.8246C195.529 31.6508 195.752 30.3456 195.752 28.9091C195.752 27.4901 195.533 26.2112 195.095 25.0724C194.666 23.925 194.013 23.0183 193.138 22.3526C192.27 21.6781 191.18 21.3409 189.866 21.3409C188.604 21.3409 187.545 21.6606 186.686 22.3001C185.828 22.9308 185.18 23.8155 184.742 24.9542C184.304 26.0842 184.085 27.4025 184.085 28.9091ZM203.583 39V18.8182H206.579V21.8665H206.789C207.157 20.8679 207.823 20.0576 208.786 19.4357C209.75 18.8138 210.836 18.5028 212.045 18.5028C212.273 18.5028 212.557 18.5072 212.899 18.516C213.241 18.5247 213.499 18.5379 213.674 18.5554V21.7088C213.569 21.6825 213.328 21.6431 212.951 21.5906C212.584 21.5292 212.194 21.4986 211.782 21.4986C210.801 21.4986 209.925 21.7044 209.154 22.1161C208.392 22.5191 207.788 23.0797 207.341 23.7979C206.903 24.5075 206.684 25.3177 206.684 26.2287V39H203.583ZM223.289 39.473C222.01 39.473 220.849 39.2321 219.807 38.7504C218.764 38.2598 217.937 37.5547 217.324 36.6349C216.71 35.7064 216.404 34.5852 216.404 33.2713C216.404 32.1151 216.632 31.1778 217.087 30.4595C217.542 29.7325 218.151 29.1631 218.913 28.7514C219.675 28.3397 220.516 28.0331 221.436 27.8317C222.365 27.6214 223.297 27.455 224.235 27.3324C225.461 27.1747 226.455 27.0565 227.217 26.9776C227.988 26.89 228.549 26.7455 228.899 26.544C229.258 26.3426 229.438 25.9922 229.438 25.4929V25.3878C229.438 24.0914 229.083 23.084 228.374 22.3658C227.673 21.6475 226.609 21.2884 225.181 21.2884C223.7 21.2884 222.54 21.6125 221.699 22.2607C220.858 22.9089 220.267 23.6009 219.925 24.3366L216.982 23.2855C217.507 22.0592 218.208 21.1044 219.084 20.4212C219.969 19.7292 220.932 19.2474 221.975 18.9759C223.026 18.6955 224.06 18.5554 225.076 18.5554C225.724 18.5554 226.468 18.6342 227.309 18.7919C228.159 18.9408 228.978 19.2518 229.766 19.7248C230.563 20.1978 231.225 20.9117 231.75 21.8665C232.276 22.8213 232.539 24.1001 232.539 25.7031V39H229.438V36.267H229.28C229.07 36.705 228.72 37.1737 228.229 37.6729C227.739 38.1722 227.086 38.5971 226.271 38.9474C225.457 39.2978 224.462 39.473 223.289 39.473ZM223.762 36.6875C224.988 36.6875 226.022 36.4466 226.863 35.9648C227.712 35.4831 228.352 34.8612 228.781 34.0991C229.219 33.337 229.438 32.5355 229.438 31.6946V28.8565C229.306 29.0142 229.017 29.1587 228.571 29.2901C228.133 29.4128 227.625 29.5223 227.047 29.6186C226.477 29.7062 225.921 29.785 225.378 29.8551C224.844 29.9164 224.41 29.969 224.077 30.0128C223.271 30.1179 222.518 30.2887 221.817 30.5252C221.125 30.753 220.565 31.099 220.135 31.5632C219.715 32.0187 219.505 32.6406 219.505 33.429C219.505 34.5064 219.903 35.321 220.7 35.8729C221.506 36.416 222.527 36.6875 223.762 36.6875ZM221.502 15.4545C220.95 15.4545 220.459 15.2443 220.03 14.8239C219.61 14.3946 219.4 13.9041 219.4 13.3523C219.4 12.7479 219.61 12.2486 220.03 11.8544C220.459 11.4515 220.95 11.25 221.502 11.25C222.106 11.25 222.605 11.4515 223 11.8544C223.403 12.2486 223.604 12.7479 223.604 13.3523C223.604 13.9041 223.403 14.3946 223 14.8239C222.605 15.2443 222.106 15.4545 221.502 15.4545ZM229.07 15.4545C228.518 15.4545 228.028 15.2443 227.598 14.8239C227.178 14.3946 226.968 13.9041 226.968 13.3523C226.968 12.7479 227.178 12.2486 227.598 11.8544C228.028 11.4515 228.518 11.25 229.07 11.25C229.674 11.25 230.174 11.4515 230.568 11.8544C230.971 12.2486 231.172 12.7479 231.172 13.3523C231.172 13.9041 230.971 14.3946 230.568 14.8239C230.174 15.2443 229.674 15.4545 229.07 15.4545ZM247.186 18.8182V21.446H236.306V18.8182H247.186ZM239.565 39V16.0327C239.565 14.8764 239.836 13.9129 240.38 13.142C240.923 12.3712 241.628 11.7931 242.495 11.4077C243.362 11.0223 244.277 10.8295 245.241 10.8295C246.003 10.8295 246.625 10.8909 247.107 11.0135C247.589 11.1361 247.948 11.25 248.184 11.3551L247.291 14.0355C247.133 13.983 246.914 13.9173 246.634 13.8384C246.362 13.7596 246.003 13.7202 245.556 13.7202C244.532 13.7202 243.791 13.9786 243.336 14.4954C242.889 15.0122 242.666 15.7699 242.666 16.7685V39H239.565ZM259.162 39.4205C257.217 39.4205 255.54 38.9912 254.13 38.1328C252.728 37.2656 251.646 36.0568 250.884 34.5064C250.131 32.9472 249.754 31.134 249.754 29.0668C249.754 26.9995 250.131 25.1776 250.884 23.6009C251.646 22.0154 252.706 20.7803 254.064 19.8956C255.43 19.0021 257.025 18.5554 258.847 18.5554C259.898 18.5554 260.936 18.7306 261.961 19.081C262.986 19.4313 263.918 20.0007 264.759 20.7891C265.6 21.5687 266.27 22.6023 266.77 23.8899C267.269 25.1776 267.519 26.763 267.519 28.6463V29.9602H251.962V27.2798H264.365C264.365 26.1411 264.137 25.125 263.682 24.2315C263.235 23.3381 262.596 22.6329 261.764 22.1161C260.94 21.5993 259.968 21.3409 258.847 21.3409C257.612 21.3409 256.543 21.6475 255.641 22.2607C254.747 22.8651 254.06 23.6534 253.578 24.6257C253.096 25.598 252.855 26.6404 252.855 27.7528V29.5398C252.855 31.0639 253.118 32.3559 253.644 33.4158C254.178 34.467 254.918 35.2685 255.864 35.8203C256.81 36.3634 257.909 36.6349 259.162 36.6349C259.977 36.6349 260.712 36.5211 261.369 36.2933C262.035 36.0568 262.609 35.7064 263.091 35.2422C263.572 34.7692 263.945 34.1823 264.207 33.4815L267.203 34.3224C266.888 35.3385 266.358 36.232 265.613 37.0028C264.869 37.7649 263.949 38.3606 262.854 38.7898C261.759 39.2102 260.528 39.4205 259.162 39.4205ZM272.236 39V18.8182H275.231V21.8665H275.441C275.809 20.8679 276.475 20.0576 277.439 19.4357C278.402 18.8138 279.488 18.5028 280.697 18.5028C280.925 18.5028 281.21 18.5072 281.551 18.516C281.893 18.5247 282.151 18.5379 282.326 18.5554V21.7088C282.221 21.6825 281.98 21.6431 281.604 21.5906C281.236 21.5292 280.846 21.4986 280.434 21.4986C279.453 21.4986 278.577 21.7044 277.807 22.1161C277.044 22.5191 276.44 23.0797 275.993 23.7979C275.555 24.5075 275.336 25.3177 275.336 26.2287V39H272.236ZM293.85 39.4205C291.905 39.4205 290.227 38.9912 288.817 38.1328C287.416 37.2656 286.334 36.0568 285.572 34.5064C284.819 32.9472 284.442 31.134 284.442 29.0668C284.442 26.9995 284.819 25.1776 285.572 23.6009C286.334 22.0154 287.394 20.7803 288.752 19.8956C290.118 19.0021 291.712 18.5554 293.534 18.5554C294.585 18.5554 295.623 18.7306 296.648 19.081C297.673 19.4313 298.606 20.0007 299.447 20.7891C300.288 21.5687 300.958 22.6023 301.457 23.8899C301.956 25.1776 302.206 26.763 302.206 28.6463V29.9602H286.649V27.2798H299.053C299.053 26.1411 298.825 25.125 298.369 24.2315C297.923 23.3381 297.283 22.6329 296.451 22.1161C295.628 21.5993 294.655 21.3409 293.534 21.3409C292.299 21.3409 291.23 21.6475 290.328 22.2607C289.435 22.8651 288.747 23.6534 288.265 24.6257C287.784 25.598 287.543 26.6404 287.543 27.7528V29.5398C287.543 31.0639 287.805 32.3559 288.331 33.4158C288.865 34.467 289.606 35.2685 290.552 35.8203C291.498 36.3634 292.597 36.6349 293.85 36.6349C294.664 36.6349 295.4 36.5211 296.057 36.2933C296.723 36.0568 297.296 35.7064 297.778 35.2422C298.26 34.7692 298.632 34.1823 298.895 33.4815L301.891 34.3224C301.575 35.3385 301.045 36.232 300.301 37.0028C299.556 37.7649 298.637 38.3606 297.542 38.7898C296.447 39.2102 295.216 39.4205 293.85 39.4205ZM310.024 26.8594V39H306.923V18.8182H309.919V21.9716H310.182C310.655 20.9467 311.373 20.1233 312.336 19.5014C313.3 18.8707 314.544 18.5554 316.068 18.5554C317.434 18.5554 318.63 18.8357 319.655 19.3963C320.68 19.9482 321.477 20.7891 322.046 21.919C322.616 23.0402 322.9 24.4593 322.9 26.1761V39H319.799V26.3864C319.799 24.8009 319.388 23.5658 318.564 22.6811C317.741 21.7876 316.611 21.3409 315.174 21.3409C314.185 21.3409 313.3 21.5555 312.52 21.9847C311.749 22.4139 311.141 23.0402 310.694 23.8636C310.247 24.687 310.024 25.6856 310.024 26.8594ZM327.988 39V36.6349L339.446 21.919V21.7088H328.356V18.8182H343.44V21.2884L332.298 35.8991V36.1094H343.808V39H327.988ZM356.468 39.4205C354.523 39.4205 352.846 38.9912 351.435 38.1328C350.034 37.2656 348.952 36.0568 348.19 34.5064C347.437 32.9472 347.06 31.134 347.06 29.0668C347.06 26.9995 347.437 25.1776 348.19 23.6009C348.952 22.0154 350.012 20.7803 351.37 19.8956C352.736 19.0021 354.33 18.5554 356.152 18.5554C357.203 18.5554 358.241 18.7306 359.266 19.081C360.291 19.4313 361.224 20.0007 362.065 20.7891C362.906 21.5687 363.576 22.6023 364.075 23.8899C364.575 25.1776 364.824 26.763 364.824 28.6463V29.9602H349.267V27.2798H361.671C361.671 26.1411 361.443 25.125 360.988 24.2315C360.541 23.3381 359.901 22.6329 359.069 22.1161C358.246 21.5993 357.274 21.3409 356.152 21.3409C354.917 21.3409 353.849 21.6475 352.946 22.2607C352.053 22.8651 351.365 23.6534 350.884 24.6257C350.402 25.598 350.161 26.6404 350.161 27.7528V29.5398C350.161 31.0639 350.424 32.3559 350.949 33.4158C351.484 34.467 352.224 35.2685 353.17 35.8203C354.116 36.3634 355.215 36.6349 356.468 36.6349C357.282 36.6349 358.018 36.5211 358.675 36.2933C359.341 36.0568 359.915 35.7064 360.396 35.2422C360.878 34.7692 361.25 34.1823 361.513 33.4815L364.509 34.3224C364.194 35.3385 363.664 36.232 362.919 37.0028C362.174 37.7649 361.255 38.3606 360.16 38.7898C359.065 39.2102 357.834 39.4205 356.468 39.4205ZM372.642 26.8594V39H369.541V18.8182H372.537V21.9716H372.8C373.273 20.9467 373.991 20.1233 374.955 19.5014C375.918 18.8707 377.162 18.5554 378.686 18.5554C380.053 18.5554 381.248 18.8357 382.273 19.3963C383.298 19.9482 384.095 20.7891 384.664 21.919C385.234 23.0402 385.518 24.4593 385.518 26.1761V39H382.418V26.3864C382.418 24.8009 382.006 23.5658 381.183 22.6811C380.359 21.7876 379.229 21.3409 377.793 21.3409C376.803 21.3409 375.918 21.5555 375.138 21.9847C374.368 22.4139 373.759 23.0402 373.312 23.8636C372.865 24.687 372.642 25.6856 372.642 26.8594ZM407.53 39.473C406.251 39.473 405.09 39.2321 404.048 38.7504C403.006 38.2598 402.178 37.5547 401.565 36.6349C400.952 35.7064 400.645 34.5852 400.645 33.2713C400.645 32.1151 400.873 31.1778 401.328 30.4595C401.784 29.7325 402.392 29.1631 403.155 28.7514C403.917 28.3397 404.758 28.0331 405.677 27.8317C406.606 27.6214 407.539 27.455 408.476 27.3324C409.702 27.1747 410.696 27.0565 411.459 26.9776C412.229 26.89 412.79 26.7455 413.14 26.544C413.499 26.3426 413.679 25.9922 413.679 25.4929V25.3878C413.679 24.0914 413.324 23.084 412.615 22.3658C411.914 21.6475 410.85 21.2884 409.422 21.2884C407.942 21.2884 406.781 21.6125 405.94 22.2607C405.099 22.9089 404.508 23.6009 404.166 24.3366L401.223 23.2855C401.749 22.0592 402.449 21.1044 403.325 20.4212C404.21 19.7292 405.174 19.2474 406.216 18.9759C407.267 18.6955 408.301 18.5554 409.317 18.5554C409.965 18.5554 410.71 18.6342 411.551 18.7919C412.4 18.9408 413.219 19.2518 414.008 19.7248C414.805 20.1978 415.466 20.9117 415.992 21.8665C416.517 22.8213 416.78 24.1001 416.78 25.7031V39H413.679V36.267H413.521C413.311 36.705 412.961 37.1737 412.47 37.6729C411.98 38.1722 411.327 38.5971 410.513 38.9474C409.698 39.2978 408.704 39.473 407.53 39.473ZM408.003 36.6875C409.229 36.6875 410.263 36.4466 411.104 35.9648C411.953 35.4831 412.593 34.8612 413.022 34.0991C413.46 33.337 413.679 32.5355 413.679 31.6946V28.8565C413.548 29.0142 413.259 29.1587 412.812 29.2901C412.374 29.4128 411.866 29.5223 411.288 29.6186C410.718 29.7062 410.162 29.785 409.619 29.8551C409.085 29.9164 408.651 29.969 408.318 30.0128C407.512 30.1179 406.759 30.2887 406.058 30.5252C405.366 30.753 404.806 31.099 404.377 31.5632C403.956 32.0187 403.746 32.6406 403.746 33.429C403.746 34.5064 404.144 35.321 404.941 35.8729C405.747 36.416 406.768 36.6875 408.003 36.6875ZM435.158 30.7486V18.8182H438.259V39H435.158V35.5838H434.948C434.475 36.6087 433.739 37.4802 432.741 38.1985C431.742 38.908 430.481 39.2628 428.957 39.2628C427.695 39.2628 426.574 38.9869 425.593 38.435C424.612 37.8744 423.841 37.0335 423.281 35.9123C422.72 34.7823 422.44 33.3589 422.44 31.642V18.8182H425.54V31.4318C425.54 32.9034 425.952 34.0772 426.776 34.9531C427.608 35.8291 428.668 36.267 429.955 36.267C430.726 36.267 431.51 36.07 432.307 35.6758C433.113 35.2816 433.788 34.6772 434.331 33.8626C434.882 33.0479 435.158 32.0099 435.158 30.7486ZM458.234 23.3381L455.449 24.1264C455.273 23.6622 455.015 23.2111 454.673 22.7731C454.341 22.3263 453.885 21.9585 453.307 21.6694C452.729 21.3803 451.989 21.2358 451.086 21.2358C449.851 21.2358 448.822 21.5205 447.999 22.0898C447.184 22.6504 446.777 23.3643 446.777 24.2315C446.777 25.0024 447.057 25.6111 447.618 26.0579C448.178 26.5046 449.054 26.8769 450.245 27.1747L453.241 27.9105C455.046 28.3485 456.39 29.0186 457.275 29.9208C458.16 30.8143 458.602 31.9661 458.602 33.3764C458.602 34.5327 458.269 35.5663 457.603 36.4773C456.946 37.3883 456.027 38.1065 454.844 38.6321C453.662 39.1577 452.286 39.4205 450.718 39.4205C448.66 39.4205 446.956 38.9737 445.607 38.0803C444.258 37.1868 443.404 35.8816 443.045 34.1648L445.988 33.429C446.269 34.5152 446.799 35.3298 447.578 35.8729C448.367 36.416 449.396 36.6875 450.666 36.6875C452.111 36.6875 453.259 36.3809 454.108 35.7678C454.967 35.1458 455.396 34.4013 455.396 33.5341C455.396 32.8333 455.151 32.2464 454.66 31.7734C454.17 31.2917 453.416 30.9325 452.4 30.696L449.037 29.9077C447.188 29.4697 445.831 28.7908 444.964 27.8711C444.105 26.9426 443.676 25.782 443.676 24.3892C443.676 23.2505 443.996 22.2431 444.635 21.3672C445.283 20.4912 446.164 19.8036 447.276 19.3043C448.397 18.805 449.667 18.5554 451.086 18.5554C453.084 18.5554 454.651 18.9934 455.79 19.8693C456.938 20.7453 457.752 21.9015 458.234 23.3381ZM467.842 39L461.693 18.8182H464.952L469.314 34.2699H469.524L473.834 18.8182H477.145L481.402 34.2173H481.612L485.974 18.8182H489.233L483.084 39H480.035L475.621 23.4957H475.305L470.89 39H467.842ZM499.271 39.473C497.992 39.473 496.832 39.2321 495.789 38.7504C494.747 38.2598 493.919 37.5547 493.306 36.6349C492.693 35.7064 492.386 34.5852 492.386 33.2713C492.386 32.1151 492.614 31.1778 493.069 30.4595C493.525 29.7325 494.134 29.1631 494.896 28.7514C495.658 28.3397 496.499 28.0331 497.419 27.8317C498.347 27.6214 499.28 27.455 500.217 27.3324C501.443 27.1747 502.438 27.0565 503.2 26.9776C503.971 26.89 504.531 26.7455 504.882 26.544C505.241 26.3426 505.42 25.9922 505.42 25.4929V25.3878C505.42 24.0914 505.066 23.084 504.356 22.3658C503.655 21.6475 502.591 21.2884 501.163 21.2884C499.683 21.2884 498.522 21.6125 497.681 22.2607C496.84 22.9089 496.249 23.6009 495.907 24.3366L492.964 23.2855C493.49 22.0592 494.191 21.1044 495.067 20.4212C495.951 19.7292 496.915 19.2474 497.957 18.9759C499.008 18.6955 500.042 18.5554 501.058 18.5554C501.706 18.5554 502.451 18.6342 503.292 18.7919C504.141 18.9408 504.96 19.2518 505.749 19.7248C506.546 20.1978 507.207 20.9117 507.733 21.8665C508.258 22.8213 508.521 24.1001 508.521 25.7031V39H505.42V36.267H505.263C505.052 36.705 504.702 37.1737 504.211 37.6729C503.721 38.1722 503.068 38.5971 502.254 38.9474C501.439 39.2978 500.445 39.473 499.271 39.473ZM499.744 36.6875C500.97 36.6875 502.004 36.4466 502.845 35.9648C503.695 35.4831 504.334 34.8612 504.763 34.0991C505.201 33.337 505.42 32.5355 505.42 31.6946V28.8565C505.289 29.0142 505 29.1587 504.553 29.2901C504.115 29.4128 503.607 29.5223 503.029 29.6186C502.46 29.7062 501.903 29.785 501.36 29.8551C500.826 29.9164 500.392 29.969 500.059 30.0128C499.254 30.1179 498.5 30.2887 497.8 30.5252C497.108 30.753 496.547 31.099 496.118 31.5632C495.697 32.0187 495.487 32.6406 495.487 33.429C495.487 34.5064 495.886 35.321 496.683 35.8729C497.489 36.416 498.509 36.6875 499.744 36.6875ZM497.484 15.4545C496.932 15.4545 496.442 15.2443 496.013 14.8239C495.592 14.3946 495.382 13.9041 495.382 13.3523C495.382 12.7479 495.592 12.2486 496.013 11.8544C496.442 11.4515 496.932 11.25 497.484 11.25C498.089 11.25 498.588 11.4515 498.982 11.8544C499.385 12.2486 499.586 12.7479 499.586 13.3523C499.586 13.9041 499.385 14.3946 498.982 14.8239C498.588 15.2443 498.089 15.4545 497.484 15.4545ZM505.052 15.4545C504.501 15.4545 504.01 15.2443 503.581 14.8239C503.16 14.3946 502.95 13.9041 502.95 13.3523C502.95 12.7479 503.16 12.2486 503.581 11.8544C504.01 11.4515 504.501 11.25 505.052 11.25C505.657 11.25 506.156 11.4515 506.55 11.8544C506.953 12.2486 507.155 12.7479 507.155 13.3523C507.155 13.9041 506.953 14.3946 506.55 14.8239C506.156 15.2443 505.657 15.4545 505.052 15.4545ZM517.282 26.8594V39H514.181V12.0909H517.282V21.9716H517.544C518.017 20.9292 518.727 20.1014 519.673 19.4883C520.628 18.8664 521.898 18.5554 523.483 18.5554C524.859 18.5554 526.063 18.8313 527.097 19.3832C528.13 19.9263 528.932 20.7628 529.501 21.8928C530.079 23.014 530.368 24.4418 530.368 26.1761V39H527.267V26.3864C527.267 24.7834 526.851 23.5439 526.019 22.668C525.196 21.7833 524.053 21.3409 522.59 21.3409C521.574 21.3409 520.663 21.5555 519.857 21.9847C519.06 22.4139 518.429 23.0402 517.965 23.8636C517.509 24.687 517.282 25.6856 517.282 26.8594ZM539.142 12.0909V39H536.041V12.0909H539.142ZM553.283 39.4205C551.339 39.4205 549.661 38.9912 548.251 38.1328C546.849 37.2656 545.767 36.0568 545.005 34.5064C544.252 32.9472 543.875 31.134 543.875 29.0668C543.875 26.9995 544.252 25.1776 545.005 23.6009C545.767 22.0154 546.827 20.7803 548.185 19.8956C549.552 19.0021 551.146 18.5554 552.968 18.5554C554.019 18.5554 555.057 18.7306 556.082 19.081C557.107 19.4313 558.04 20.0007 558.88 20.7891C559.721 21.5687 560.391 22.6023 560.891 23.8899C561.39 25.1776 561.64 26.763 561.64 28.6463V29.9602H546.083V27.2798H558.486C558.486 26.1411 558.258 25.125 557.803 24.2315C557.356 23.3381 556.717 22.6329 555.885 22.1161C555.061 21.5993 554.089 21.3409 552.968 21.3409C551.733 21.3409 550.664 21.6475 549.762 22.2607C548.868 22.8651 548.181 23.6534 547.699 24.6257C547.217 25.598 546.976 26.6404 546.976 27.7528V29.5398C546.976 31.0639 547.239 32.3559 547.765 33.4158C548.299 34.467 549.039 35.2685 549.985 35.8203C550.931 36.3634 552.031 36.6349 553.283 36.6349C554.098 36.6349 554.834 36.5211 555.491 36.2933C556.156 36.0568 556.73 35.7064 557.212 35.2422C557.694 34.7692 558.066 34.1823 558.329 33.4815L561.324 34.3224C561.009 35.3385 560.479 36.232 559.734 37.0028C558.99 37.7649 558.07 38.3606 556.975 38.7898C555.88 39.2102 554.65 39.4205 553.283 39.4205ZM569.457 26.8594V39H566.357V18.8182H569.352V21.9716H569.615C570.088 20.9467 570.806 20.1233 571.77 19.5014C572.734 18.8707 573.977 18.5554 575.502 18.5554C576.868 18.5554 578.064 18.8357 579.089 19.3963C580.113 19.9482 580.91 20.7891 581.48 21.919C582.049 23.0402 582.334 24.4593 582.334 26.1761V39H579.233V26.3864C579.233 24.8009 578.821 23.5658 577.998 22.6811C577.175 21.7876 576.045 21.3409 574.608 21.3409C573.618 21.3409 572.734 21.5555 571.954 21.9847C571.183 22.4139 570.574 23.0402 570.128 23.8636C569.681 24.687 569.457 25.6856 569.457 26.8594Z" fill="white"/>
</g>
<defs>
<filter id="filter0_d_122_18" x="0.487305" y="0.492188" width="585.847" height="60.0146" filterUnits="userSpaceOnUse" color-interpolation-filters="sRGB">
<feFlood flood-opacity="0" result="BackgroundImageFix"/>
<feColorMatrix in="SourceAlpha" type="matrix" values="0 0 0 0 0 0 0 0 0 0 0 0 0 0 0 0 0 0 127 0" result="hardAlpha"/>
<feOffset dy="4"/>
<feGaussianBlur stdDeviation="2"/>
<feComposite in2="hardAlpha" operator="out"/>
<feColorMatrix type="matrix" values="0 0 0 0 0 0 0 0 0 0 0 0 0 0 0 0 0 0 0.25 0"/>
<feBlend mode="normal" in2="BackgroundImageFix" result="effect1_dropShadow_122_18"/>
<feBlend mode="normal" in="SourceGraphic" in2="effect1_dropShadow_122_18" result="shape"/>
</filter>
</defs>
</svg>
