<svg width="543" height="62" viewBox="0 0 543 62" fill="none" xmlns="http://www.w3.org/2000/svg">
<g filter="url(#filter0_d_97_32)">
<path d="M209 52.5L208 7.5L537 1.33301V47L209 52.5Z" fill="#159BD7" stroke="black"/>
<path d="M19.9744 20.8182C19.8168 19.4867 19.1773 18.4531 18.0561 17.7173C16.9349 16.9815 15.5597 16.6136 13.9304 16.6136C12.7391 16.6136 11.6967 16.8063 10.8033 17.1918C9.91856 17.5772 9.22656 18.1071 8.72727 18.7816C8.23674 19.4561 7.99148 20.2225 7.99148 21.081C7.99148 21.7992 8.16229 22.4168 8.50391 22.9336C8.85429 23.4416 9.30102 23.8665 9.84411 24.2081C10.3872 24.541 10.9566 24.8169 11.5522 25.0359C12.1478 25.2461 12.6953 25.4169 13.1946 25.5483L15.9276 26.2841C16.6283 26.468 17.4079 26.7221 18.2663 27.0462C19.1335 27.3703 19.9613 27.8126 20.7496 28.3732C21.5468 28.9251 22.2037 29.6346 22.7205 30.5018C23.2373 31.369 23.4957 32.4332 23.4957 33.6946C23.4957 35.1487 23.1147 36.4626 22.3526 37.6364C21.5993 38.8101 20.4956 39.743 19.0415 40.435C17.5962 41.127 15.84 41.473 13.7727 41.473C11.8456 41.473 10.177 41.1621 8.76669 40.5401C7.36518 39.9182 6.26148 39.051 5.45561 37.9386C4.6585 36.8261 4.20739 35.5341 4.10227 34.0625H7.46591C7.5535 35.0786 7.89512 35.9195 8.49077 36.5852C9.09517 37.2422 9.85724 37.7327 10.777 38.0568C11.7055 38.3722 12.7041 38.5298 13.7727 38.5298C15.0166 38.5298 16.1334 38.3284 17.1232 37.9254C18.113 37.5137 18.897 36.9444 19.4751 36.2173C20.0533 35.4815 20.3423 34.6231 20.3423 33.642C20.3423 32.7486 20.0927 32.0215 19.5934 31.4609C19.0941 30.9003 18.4371 30.4448 17.6225 30.0945C16.8079 29.7441 15.9276 29.4375 14.9815 29.1747L11.6705 28.2287C9.56818 27.6243 7.90388 26.7615 6.67756 25.6403C5.45123 24.5191 4.83807 23.0518 4.83807 21.2386C4.83807 19.732 5.24538 18.4181 6.06001 17.2969C6.8834 16.1669 7.9871 15.291 9.37109 14.669C10.7638 14.0384 12.3187 13.723 14.0355 13.723C15.7699 13.723 17.3116 14.034 18.6605 14.6559C20.0095 15.2691 21.0781 16.11 21.8665 17.1786C22.6636 18.2473 23.084 19.4605 23.1278 20.8182H19.9744ZM36.8944 41.4205C34.9498 41.4205 33.2724 40.9912 31.8621 40.1328C30.4606 39.2656 29.3788 38.0568 28.6167 36.5064C27.8634 34.9472 27.4868 33.134 27.4868 31.0668C27.4868 28.9995 27.8634 27.1776 28.6167 25.6009C29.3788 24.0154 30.4387 22.7803 31.7964 21.8956C33.1629 21.0021 34.7571 20.5554 36.5791 20.5554C37.6302 20.5554 38.6682 20.7306 39.6931 21.081C40.718 21.4313 41.6508 22.0007 42.4917 22.7891C43.3327 23.5687 44.0028 24.6023 44.502 25.8899C45.0013 27.1776 45.251 28.763 45.251 30.6463V31.9602H29.6942V29.2798H42.0976C42.0976 28.1411 41.8698 27.125 41.4143 26.2315C40.9676 25.3381 40.3282 24.6329 39.496 24.1161C38.6726 23.5993 37.7003 23.3409 36.5791 23.3409C35.344 23.3409 34.2754 23.6475 33.3731 24.2607C32.4797 24.8651 31.7921 25.6534 31.3103 26.6257C30.8285 27.598 30.5876 28.6404 30.5876 29.7528V31.5398C30.5876 33.0639 30.8504 34.3559 31.376 35.4158C31.9103 36.467 32.6505 37.2685 33.5965 37.8203C34.5425 38.3634 35.6418 38.6349 36.8944 38.6349C37.7091 38.6349 38.4449 38.5211 39.1018 38.2933C39.7675 38.0568 40.3413 37.7064 40.8231 37.2422C41.3048 36.7692 41.6771 36.1823 41.9399 35.4815L44.9356 36.3224C44.6203 37.3385 44.0903 38.232 43.3458 39.0028C42.6012 39.7649 41.6815 40.3606 40.5866 40.7898C39.4916 41.2102 38.2609 41.4205 36.8944 41.4205ZM53.0688 14.0909V41H49.968V14.0909H53.0688ZM67.2099 41.4205C65.2653 41.4205 63.5878 40.9912 62.1776 40.1328C60.776 39.2656 59.6942 38.0568 58.9322 36.5064C58.1789 34.9472 57.8022 33.134 57.8022 31.0668C57.8022 28.9995 58.1789 27.1776 58.9322 25.6009C59.6942 24.0154 60.7541 22.7803 62.1119 21.8956C63.4783 21.0021 65.0726 20.5554 66.8945 20.5554C67.9457 20.5554 68.9837 20.7306 70.0085 21.081C71.0334 21.4313 71.9663 22.0007 72.8072 22.7891C73.6481 23.5687 74.3182 24.6023 74.8175 25.8899C75.3168 27.1776 75.5664 28.763 75.5664 30.6463V31.9602H60.0096V29.2798H72.413C72.413 28.1411 72.1853 27.125 71.7298 26.2315C71.283 25.3381 70.6436 24.6329 69.8114 24.1161C68.988 23.5993 68.0157 23.3409 66.8945 23.3409C65.6594 23.3409 64.5908 23.6475 63.6886 24.2607C62.7951 24.8651 62.1075 25.6534 61.6257 26.6257C61.1439 27.598 60.9031 28.6404 60.9031 29.7528V31.5398C60.9031 33.0639 61.1658 34.3559 61.6914 35.4158C62.2257 36.467 62.9659 37.2685 63.9119 37.8203C64.858 38.3634 65.9573 38.6349 67.2099 38.6349C68.0245 38.6349 68.7603 38.5211 69.4173 38.2933C70.083 38.0568 70.6567 37.7064 71.1385 37.2422C71.6203 36.7692 71.9925 36.1823 72.2553 35.4815L75.2511 36.3224C74.9357 37.3385 74.4058 38.232 73.6612 39.0028C72.9167 39.7649 71.9969 40.3606 70.902 40.7898C69.8071 41.2102 68.5764 41.4205 67.2099 41.4205ZM88.4822 41.4205C86.5902 41.4205 84.9609 40.9737 83.5945 40.0803C82.228 39.1868 81.1768 37.9561 80.4411 36.3881C79.7053 34.8202 79.3374 33.0289 79.3374 31.0142C79.3374 28.9645 79.714 27.1557 80.4673 25.5877C81.2294 24.011 82.2893 22.7803 83.647 21.8956C85.0135 21.0021 86.6077 20.5554 88.4297 20.5554C89.8487 20.5554 91.1276 20.8182 92.2663 21.3438C93.4051 21.8693 94.338 22.6051 95.065 23.5511C95.792 24.4972 96.2431 25.6009 96.4183 26.8622H93.3175C93.081 25.9425 92.5554 25.1278 91.7408 24.4183C90.9349 23.7 89.8487 23.3409 88.4822 23.3409C87.2734 23.3409 86.2135 23.6562 85.3026 24.2869C84.4003 24.9089 83.6952 25.7892 83.1871 26.9279C82.6879 28.0579 82.4382 29.3849 82.4382 30.9091C82.4382 32.4683 82.6835 33.826 83.174 34.9822C83.6733 36.1385 84.3741 37.0363 85.2763 37.6758C86.1873 38.3152 87.2559 38.6349 88.4822 38.6349C89.2881 38.6349 90.0195 38.4948 90.6765 38.2145C91.3335 37.9342 91.8897 37.5312 92.3452 37.0057C92.8007 36.4801 93.1248 35.8494 93.3175 35.1136H96.4183C96.2431 36.3049 95.8095 37.378 95.1175 38.3327C94.4343 39.2788 93.5277 40.0321 92.3977 40.5927C91.2765 41.1445 89.9714 41.4205 88.4822 41.4205ZM109.728 20.8182V23.446H99.2695V20.8182H109.728ZM102.318 15.983H105.419V35.2188C105.419 36.0947 105.546 36.7517 105.8 37.1896C106.063 37.6188 106.395 37.9079 106.798 38.0568C107.21 38.197 107.644 38.267 108.099 38.267C108.441 38.267 108.721 38.2495 108.94 38.2145C109.159 38.1707 109.334 38.1357 109.466 38.1094L110.096 40.8949C109.886 40.9737 109.593 41.0526 109.216 41.1314C108.839 41.219 108.362 41.2628 107.784 41.2628C106.908 41.2628 106.049 41.0745 105.208 40.6978C104.376 40.3211 103.684 39.7474 103.132 38.9766C102.589 38.2057 102.318 37.2334 102.318 36.0597V15.983ZM122.907 14.0909H126.638L134.102 26.652H134.417L141.88 14.0909H145.612L135.888 29.9105V41H132.63V29.9105L122.907 14.0909ZM154.75 41.4205C152.928 41.4205 151.329 40.9869 149.954 40.1197C148.588 39.2525 147.519 38.0393 146.748 36.4801C145.986 34.9209 145.605 33.099 145.605 31.0142C145.605 28.9119 145.986 27.0768 146.748 25.5089C147.519 23.9409 148.588 22.7234 149.954 21.8562C151.329 20.989 152.928 20.5554 154.75 20.5554C156.572 20.5554 158.166 20.989 159.532 21.8562C160.908 22.7234 161.976 23.9409 162.738 25.5089C163.509 27.0768 163.895 28.9119 163.895 31.0142C163.895 33.099 163.509 34.9209 162.738 36.4801C161.976 38.0393 160.908 39.2525 159.532 40.1197C158.166 40.9869 156.572 41.4205 154.75 41.4205ZM154.75 38.6349C156.134 38.6349 157.273 38.2802 158.166 37.5707C159.059 36.8612 159.721 35.9283 160.15 34.772C160.579 33.6158 160.794 32.3632 160.794 31.0142C160.794 29.6652 160.579 28.4083 160.15 27.2433C159.721 26.0782 159.059 25.1366 158.166 24.4183C157.273 23.7 156.134 23.3409 154.75 23.3409C153.366 23.3409 152.227 23.7 151.334 24.4183C150.44 25.1366 149.779 26.0782 149.35 27.2433C148.92 28.4083 148.706 29.6652 148.706 31.0142C148.706 32.3632 148.92 33.6158 149.35 34.772C149.779 35.9283 150.44 36.8612 151.334 37.5707C152.227 38.2802 153.366 38.6349 154.75 38.6349ZM181.347 32.7486V20.8182H184.448V41H181.347V37.5838H181.137C180.664 38.6087 179.928 39.4802 178.929 40.1985C177.931 40.908 176.669 41.2628 175.145 41.2628C173.884 41.2628 172.763 40.9869 171.782 40.435C170.8 39.8744 170.03 39.0335 169.469 37.9123C168.908 36.7823 168.628 35.3589 168.628 33.642V20.8182H171.729V33.4318C171.729 34.9034 172.141 36.0772 172.964 36.9531C173.796 37.8291 174.856 38.267 176.144 38.267C176.915 38.267 177.699 38.07 178.496 37.6758C179.302 37.2816 179.976 36.6772 180.519 35.8626C181.071 35.0479 181.347 34.0099 181.347 32.7486ZM190.127 41V20.8182H193.123V23.8665H193.333C193.701 22.8679 194.367 22.0576 195.33 21.4357C196.294 20.8138 197.38 20.5028 198.589 20.5028C198.817 20.5028 199.101 20.5072 199.443 20.516C199.784 20.5247 200.043 20.5379 200.218 20.5554V23.7088C200.113 23.6825 199.872 23.6431 199.495 23.5906C199.127 23.5292 198.738 23.4986 198.326 23.4986C197.345 23.4986 196.469 23.7044 195.698 24.1161C194.936 24.5191 194.332 25.0797 193.885 25.7979C193.447 26.5075 193.228 27.3177 193.228 28.2287V41H190.127ZM215.824 41H212.408L222.289 14.0909H225.652L235.533 41H232.117L224.076 18.348H223.865L215.824 41ZM217.085 30.4886H230.855V33.3793H217.085V30.4886ZM253.599 25.3381L250.814 26.1264C250.639 25.6622 250.38 25.2111 250.039 24.7731C249.706 24.3263 249.25 23.9585 248.672 23.6694C248.094 23.3803 247.354 23.2358 246.452 23.2358C245.217 23.2358 244.187 23.5205 243.364 24.0898C242.549 24.6504 242.142 25.3643 242.142 26.2315C242.142 27.0024 242.422 27.6111 242.983 28.0579C243.543 28.5046 244.419 28.8769 245.611 29.1747L248.606 29.9105C250.411 30.3485 251.755 31.0186 252.64 31.9208C253.525 32.8143 253.967 33.9661 253.967 35.3764C253.967 36.5327 253.634 37.5663 252.969 38.4773C252.312 39.3883 251.392 40.1065 250.209 40.6321C249.027 41.1577 247.652 41.4205 246.084 41.4205C244.025 41.4205 242.322 40.9737 240.973 40.0803C239.624 39.1868 238.77 37.8816 238.41 36.1648L241.354 35.429C241.634 36.5152 242.164 37.3298 242.943 37.8729C243.732 38.416 244.761 38.6875 246.031 38.6875C247.476 38.6875 248.624 38.3809 249.474 37.7678C250.332 37.1458 250.761 36.4013 250.761 35.5341C250.761 34.8333 250.516 34.2464 250.025 33.7734C249.535 33.2917 248.782 32.9325 247.766 32.696L244.402 31.9077C242.554 31.4697 241.196 30.7908 240.329 29.8711C239.47 28.9426 239.041 27.782 239.041 26.3892C239.041 25.2505 239.361 24.2431 240 23.3672C240.648 22.4912 241.529 21.8036 242.641 21.3043C243.762 20.805 245.033 20.5554 246.452 20.5554C248.449 20.5554 250.017 20.9934 251.155 21.8693C252.303 22.7453 253.118 23.9015 253.599 25.3381ZM272.93 25.3381L270.145 26.1264C269.97 25.6622 269.711 25.2111 269.37 24.7731C269.037 24.3263 268.581 23.9585 268.003 23.6694C267.425 23.3803 266.685 23.2358 265.783 23.2358C264.548 23.2358 263.518 23.5205 262.695 24.0898C261.88 24.6504 261.473 25.3643 261.473 26.2315C261.473 27.0024 261.753 27.6111 262.314 28.0579C262.875 28.5046 263.75 28.8769 264.942 29.1747L267.938 29.9105C269.742 30.3485 271.087 31.0186 271.971 31.9208C272.856 32.8143 273.298 33.9661 273.298 35.3764C273.298 36.5327 272.965 37.5663 272.3 38.4773C271.643 39.3883 270.723 40.1065 269.54 40.6321C268.358 41.1577 266.983 41.4205 265.415 41.4205C263.356 41.4205 261.653 40.9737 260.304 40.0803C258.955 39.1868 258.101 37.8816 257.741 36.1648L260.685 35.429C260.965 36.5152 261.495 37.3298 262.275 37.8729C263.063 38.416 264.092 38.6875 265.362 38.6875C266.808 38.6875 267.955 38.3809 268.805 37.7678C269.663 37.1458 270.092 36.4013 270.092 35.5341C270.092 34.8333 269.847 34.2464 269.357 33.7734C268.866 33.2917 268.113 32.9325 267.097 32.696L263.733 31.9077C261.885 31.4697 260.527 30.7908 259.66 29.8711C258.801 28.9426 258.372 27.782 258.372 26.3892C258.372 25.2505 258.692 24.2431 259.331 23.3672C259.98 22.4912 260.86 21.8036 261.972 21.3043C263.094 20.805 264.364 20.5554 265.783 20.5554C267.78 20.5554 269.348 20.9934 270.487 21.8693C271.634 22.7453 272.449 23.9015 272.93 25.3381ZM277.966 41V20.8182H281.067V41H277.966ZM279.543 17.4545C278.938 17.4545 278.417 17.2487 277.979 16.837C277.55 16.4253 277.335 15.9304 277.335 15.3523C277.335 14.7741 277.55 14.2792 277.979 13.8675C278.417 13.4558 278.938 13.25 279.543 13.25C280.147 13.25 280.664 13.4558 281.093 13.8675C281.531 14.2792 281.75 14.7741 281.75 15.3523C281.75 15.9304 281.531 16.4253 281.093 16.837C280.664 17.2487 280.147 17.4545 279.543 17.4545ZM301.042 25.3381L298.256 26.1264C298.081 25.6622 297.823 25.2111 297.481 24.7731C297.148 24.3263 296.693 23.9585 296.115 23.6694C295.536 23.3803 294.796 23.2358 293.894 23.2358C292.659 23.2358 291.63 23.5205 290.806 24.0898C289.992 24.6504 289.584 25.3643 289.584 26.2315C289.584 27.0024 289.865 27.6111 290.425 28.0579C290.986 28.5046 291.862 28.8769 293.053 29.1747L296.049 29.9105C297.853 30.3485 299.198 31.0186 300.083 31.9208C300.967 32.8143 301.41 33.9661 301.41 35.3764C301.41 36.5327 301.077 37.5663 300.411 38.4773C299.754 39.3883 298.834 40.1065 297.652 40.6321C296.469 41.1577 295.094 41.4205 293.526 41.4205C291.468 41.4205 289.764 40.9737 288.415 40.0803C287.066 39.1868 286.212 37.8816 285.853 36.1648L288.796 35.429C289.076 36.5152 289.606 37.3298 290.386 37.8729C291.174 38.416 292.203 38.6875 293.474 38.6875C294.919 38.6875 296.066 38.3809 296.916 37.7678C297.774 37.1458 298.204 36.4013 298.204 35.5341C298.204 34.8333 297.958 34.2464 297.468 33.7734C296.977 33.2917 296.224 32.9325 295.208 32.696L291.844 31.9077C289.996 31.4697 288.638 30.7908 287.771 29.8711C286.913 28.9426 286.483 27.782 286.483 26.3892C286.483 25.2505 286.803 24.2431 287.443 23.3672C288.091 22.4912 288.971 21.8036 290.084 21.3043C291.205 20.805 292.475 20.5554 293.894 20.5554C295.891 20.5554 297.459 20.9934 298.598 21.8693C299.745 22.7453 300.56 23.9015 301.042 25.3381ZM314.854 20.8182V23.446H304.396V20.8182H314.854ZM307.444 15.983H310.545V35.2188C310.545 36.0947 310.672 36.7517 310.926 37.1896C311.188 37.6188 311.521 37.9079 311.924 38.0568C312.336 38.197 312.77 38.267 313.225 38.267C313.567 38.267 313.847 38.2495 314.066 38.2145C314.285 38.1707 314.46 38.1357 314.592 38.1094L315.222 40.8949C315.012 40.9737 314.719 41.0526 314.342 41.1314C313.965 41.219 313.488 41.2628 312.91 41.2628C312.034 41.2628 311.175 41.0745 310.334 40.6978C309.502 40.3211 308.81 39.7474 308.258 38.9766C307.715 38.2057 307.444 37.2334 307.444 36.0597V15.983ZM330.345 41V14.0909H339.438C341.549 14.0909 343.274 14.4719 344.615 15.234C345.964 15.9873 346.962 17.0078 347.61 18.2955C348.259 19.5831 348.583 21.0196 348.583 22.6051C348.583 24.1906 348.259 25.6315 347.61 26.9279C346.971 28.2243 345.981 29.2579 344.641 30.0288C343.301 30.7908 341.584 31.1719 339.49 31.1719H332.973V28.2812H339.385C340.831 28.2812 341.991 28.0316 342.867 27.5323C343.743 27.033 344.378 26.3585 344.772 25.5089C345.175 24.6504 345.377 23.6825 345.377 22.6051C345.377 21.5277 345.175 20.5642 344.772 19.7145C344.378 18.8648 343.739 18.1991 342.854 17.7173C341.969 17.2268 340.795 16.9815 339.333 16.9815H333.604V41H330.345ZM353.411 41V20.8182H356.407V23.8665H356.617C356.985 22.8679 357.651 22.0576 358.614 21.4357C359.578 20.8138 360.664 20.5028 361.873 20.5028C362.101 20.5028 362.385 20.5072 362.727 20.516C363.069 20.5247 363.327 20.5379 363.502 20.5554V23.7088C363.397 23.6825 363.156 23.6431 362.78 23.5906C362.412 23.5292 362.022 23.4986 361.61 23.4986C360.629 23.4986 359.753 23.7044 358.982 24.1161C358.22 24.5191 357.616 25.0797 357.169 25.7979C356.731 26.5075 356.512 27.3177 356.512 28.2287V41H353.411ZM375.025 41.4205C373.081 41.4205 371.403 40.9912 369.993 40.1328C368.591 39.2656 367.51 38.0568 366.748 36.5064C365.994 34.9472 365.618 33.134 365.618 31.0668C365.618 28.9995 365.994 27.1776 366.748 25.6009C367.51 24.0154 368.57 22.7803 369.927 21.8956C371.294 21.0021 372.888 20.5554 374.71 20.5554C375.761 20.5554 376.799 20.7306 377.824 21.081C378.849 21.4313 379.782 22.0007 380.623 22.7891C381.464 23.5687 382.134 24.6023 382.633 25.8899C383.132 27.1776 383.382 28.763 383.382 30.6463V31.9602H367.825V29.2798H380.228C380.228 28.1411 380.001 27.125 379.545 26.2315C379.098 25.3381 378.459 24.6329 377.627 24.1161C376.803 23.5993 375.831 23.3409 374.71 23.3409C373.475 23.3409 372.406 23.6475 371.504 24.2607C370.611 24.8651 369.923 25.6534 369.441 26.6257C368.959 27.598 368.718 28.6404 368.718 29.7528V31.5398C368.718 33.0639 368.981 34.3559 369.507 35.4158C370.041 36.467 370.781 37.2685 371.727 37.8203C372.673 38.3634 373.773 38.6349 375.025 38.6349C375.84 38.6349 376.576 38.5211 377.233 38.2933C377.898 38.0568 378.472 37.7064 378.954 37.2422C379.436 36.7692 379.808 36.1823 380.071 35.4815L383.066 36.3224C382.751 37.3385 382.221 38.232 381.477 39.0028C380.732 39.7649 379.812 40.3606 378.717 40.7898C377.622 41.2102 376.392 41.4205 375.025 41.4205ZM397.086 20.8182V23.446H386.207V20.8182H397.086ZM389.465 41V18.0327C389.465 16.8764 389.737 15.9129 390.28 15.142C390.823 14.3712 391.528 13.7931 392.395 13.4077C393.263 13.0223 394.178 12.8295 395.141 12.8295C395.903 12.8295 396.525 12.8909 397.007 13.0135C397.489 13.1361 397.848 13.25 398.085 13.3551L397.191 16.0355C397.033 15.983 396.814 15.9173 396.534 15.8384C396.263 15.7596 395.903 15.7202 395.457 15.7202C394.432 15.7202 393.692 15.9786 393.236 16.4954C392.79 17.0122 392.566 17.7699 392.566 18.7685V41H389.465ZM409.062 41.4205C407.118 41.4205 405.44 40.9912 404.03 40.1328C402.629 39.2656 401.547 38.0568 400.785 36.5064C400.031 34.9472 399.655 33.134 399.655 31.0668C399.655 28.9995 400.031 27.1776 400.785 25.6009C401.547 24.0154 402.607 22.7803 403.964 21.8956C405.331 21.0021 406.925 20.5554 408.747 20.5554C409.798 20.5554 410.836 20.7306 411.861 21.081C412.886 21.4313 413.819 22.0007 414.66 22.7891C415.501 23.5687 416.171 24.6023 416.67 25.8899C417.169 27.1776 417.419 28.763 417.419 30.6463V31.9602H401.862V29.2798H414.266C414.266 28.1411 414.038 27.125 413.582 26.2315C413.136 25.3381 412.496 24.6329 411.664 24.1161C410.841 23.5993 409.868 23.3409 408.747 23.3409C407.512 23.3409 406.443 23.6475 405.541 24.2607C404.648 24.8651 403.96 25.6534 403.478 26.6257C402.996 27.598 402.756 28.6404 402.756 29.7528V31.5398C402.756 33.0639 403.018 34.3559 403.544 35.4158C404.078 36.467 404.818 37.2685 405.764 37.8203C406.71 38.3634 407.81 38.6349 409.062 38.6349C409.877 38.6349 410.613 38.5211 411.27 38.2933C411.936 38.0568 412.509 37.7064 412.991 37.2422C413.473 36.7692 413.845 36.1823 414.108 35.4815L417.104 36.3224C416.788 37.3385 416.258 38.232 415.514 39.0028C414.769 39.7649 413.849 40.3606 412.755 40.7898C411.66 41.2102 410.429 41.4205 409.062 41.4205ZM422.136 41V20.8182H425.132V23.8665H425.342C425.71 22.8679 426.376 22.0576 427.339 21.4357C428.303 20.8138 429.389 20.5028 430.598 20.5028C430.825 20.5028 431.11 20.5072 431.452 20.516C431.793 20.5247 432.052 20.5379 432.227 20.5554V23.7088C432.122 23.6825 431.881 23.6431 431.504 23.5906C431.136 23.5292 430.746 23.4986 430.335 23.4986C429.354 23.4986 428.478 23.7044 427.707 24.1161C426.945 24.5191 426.34 25.0797 425.894 25.7979C425.456 26.5075 425.237 27.3177 425.237 28.2287V41H422.136ZM443.75 41.4205C441.805 41.4205 440.128 40.9912 438.718 40.1328C437.316 39.2656 436.234 38.0568 435.472 36.5064C434.719 34.9472 434.342 33.134 434.342 31.0668C434.342 28.9995 434.719 27.1776 435.472 25.6009C436.234 24.0154 437.294 22.7803 438.652 21.8956C440.018 21.0021 441.613 20.5554 443.435 20.5554C444.486 20.5554 445.524 20.7306 446.549 21.081C447.573 21.4313 448.506 22.0007 449.347 22.7891C450.188 23.5687 450.858 24.6023 451.358 25.8899C451.857 27.1776 452.106 28.763 452.106 30.6463V31.9602H436.55V29.2798H448.953C448.953 28.1411 448.725 27.125 448.27 26.2315C447.823 25.3381 447.184 24.6329 446.351 24.1161C445.528 23.5993 444.556 23.3409 443.435 23.3409C442.199 23.3409 441.131 23.6475 440.229 24.2607C439.335 24.8651 438.648 25.6534 438.166 26.6257C437.684 27.598 437.443 28.6404 437.443 29.7528V31.5398C437.443 33.0639 437.706 34.3559 438.231 35.4158C438.766 36.467 439.506 37.2685 440.452 37.8203C441.398 38.3634 442.497 38.6349 443.75 38.6349C444.565 38.6349 445.3 38.5211 445.957 38.2933C446.623 38.0568 447.197 37.7064 447.679 37.2422C448.16 36.7692 448.533 36.1823 448.795 35.4815L451.791 36.3224C451.476 37.3385 450.946 38.232 450.201 39.0028C449.457 39.7649 448.537 40.3606 447.442 40.7898C446.347 41.2102 445.116 41.4205 443.75 41.4205ZM459.924 28.8594V41H456.823V20.8182H459.819V23.9716H460.082C460.555 22.9467 461.273 22.1233 462.237 21.5014C463.2 20.8707 464.444 20.5554 465.968 20.5554C467.335 20.5554 468.53 20.8357 469.555 21.3963C470.58 21.9482 471.377 22.7891 471.947 23.919C472.516 25.0402 472.801 26.4593 472.801 28.1761V41H469.7V28.3864C469.7 26.8009 469.288 25.5658 468.465 24.6811C467.641 23.7876 466.511 23.3409 465.075 23.3409C464.085 23.3409 463.2 23.5555 462.421 23.9847C461.65 24.4139 461.041 25.0402 460.594 25.8636C460.148 26.687 459.924 27.6856 459.924 28.8594ZM486.666 41.4205C484.774 41.4205 483.145 40.9737 481.778 40.0803C480.412 39.1868 479.36 37.9561 478.625 36.3881C477.889 34.8202 477.521 33.0289 477.521 31.0142C477.521 28.9645 477.898 27.1557 478.651 25.5877C479.413 24.011 480.473 22.7803 481.831 21.8956C483.197 21.0021 484.791 20.5554 486.613 20.5554C488.032 20.5554 489.311 20.8182 490.45 21.3438C491.589 21.8693 492.522 22.6051 493.249 23.5511C493.976 24.4972 494.427 25.6009 494.602 26.8622H491.501C491.265 25.9425 490.739 25.1278 489.924 24.4183C489.118 23.7 488.032 23.3409 486.666 23.3409C485.457 23.3409 484.397 23.6562 483.486 24.2869C482.584 24.9089 481.879 25.7892 481.371 26.9279C480.871 28.0579 480.622 29.3849 480.622 30.9091C480.622 32.4683 480.867 33.826 481.358 34.9822C481.857 36.1385 482.558 37.0363 483.46 37.6758C484.371 38.3152 485.44 38.6349 486.666 38.6349C487.472 38.6349 488.203 38.4948 488.86 38.2145C489.517 37.9342 490.073 37.5312 490.529 37.0057C490.984 36.4801 491.308 35.8494 491.501 35.1136H494.602C494.427 36.3049 493.993 37.378 493.301 38.3327C492.618 39.2788 491.711 40.0321 490.581 40.5927C489.46 41.1445 488.155 41.4205 486.666 41.4205ZM507.597 41.4205C505.652 41.4205 503.975 40.9912 502.564 40.1328C501.163 39.2656 500.081 38.0568 499.319 36.5064C498.566 34.9472 498.189 33.134 498.189 31.0668C498.189 28.9995 498.566 27.1776 499.319 25.6009C500.081 24.0154 501.141 22.7803 502.499 21.8956C503.865 21.0021 505.459 20.5554 507.281 20.5554C508.332 20.5554 509.37 20.7306 510.395 21.081C511.42 21.4313 512.353 22.0007 513.194 22.7891C514.035 23.5687 514.705 24.6023 515.204 25.8899C515.703 27.1776 515.953 28.763 515.953 30.6463V31.9602H500.396V29.2798H512.8C512.8 28.1411 512.572 27.125 512.116 26.2315C511.67 25.3381 511.03 24.6329 510.198 24.1161C509.375 23.5993 508.402 23.3409 507.281 23.3409C506.046 23.3409 504.978 23.6475 504.075 24.2607C503.182 24.8651 502.494 25.6534 502.012 26.6257C501.531 27.598 501.29 28.6404 501.29 29.7528V31.5398C501.29 33.0639 501.553 34.3559 502.078 35.4158C502.612 36.467 503.353 37.2685 504.299 37.8203C505.245 38.3634 506.344 38.6349 507.597 38.6349C508.411 38.6349 509.147 38.5211 509.804 38.2933C510.47 38.0568 511.043 37.7064 511.525 37.2422C512.007 36.7692 512.379 36.1823 512.642 35.4815L515.638 36.3224C515.322 37.3385 514.792 38.232 514.048 39.0028C513.303 39.7649 512.384 40.3606 511.289 40.7898C510.194 41.2102 508.963 41.4205 507.597 41.4205ZM534.966 25.3381L532.18 26.1264C532.005 25.6622 531.746 25.2111 531.405 24.7731C531.072 24.3263 530.616 23.9585 530.038 23.6694C529.46 23.3803 528.72 23.2358 527.818 23.2358C526.583 23.2358 525.554 23.5205 524.73 24.0898C523.915 24.6504 523.508 25.3643 523.508 26.2315C523.508 27.0024 523.788 27.6111 524.349 28.0579C524.91 28.5046 525.786 28.8769 526.977 29.1747L529.973 29.9105C531.777 30.3485 533.122 31.0186 534.006 31.9208C534.891 32.8143 535.333 33.9661 535.333 35.3764C535.333 36.5327 535.001 37.5663 534.335 38.4773C533.678 39.3883 532.758 40.1065 531.576 40.6321C530.393 41.1577 529.018 41.4205 527.45 41.4205C525.391 41.4205 523.688 40.9737 522.339 40.0803C520.99 39.1868 520.136 37.8816 519.777 36.1648L522.72 35.429C523 36.5152 523.53 37.3298 524.31 37.8729C525.098 38.416 526.127 38.6875 527.397 38.6875C528.843 38.6875 529.99 38.3809 530.84 37.7678C531.698 37.1458 532.127 36.4013 532.127 35.5341C532.127 34.8333 531.882 34.2464 531.392 33.7734C530.901 33.2917 530.148 32.9325 529.132 32.696L525.768 31.9077C523.92 31.4697 522.562 30.7908 521.695 29.8711C520.837 28.9426 520.407 27.782 520.407 26.3892C520.407 25.2505 520.727 24.2431 521.366 23.3672C522.015 22.4912 522.895 21.8036 524.007 21.3043C525.129 20.805 526.399 20.5554 527.818 20.5554C529.815 20.5554 531.383 20.9934 532.522 21.8693C533.669 22.7453 534.484 23.9015 534.966 25.3381Z" fill="white"/>
</g>
<defs>
<filter id="filter0_d_97_32" x="0.102539" y="0.82373" width="541.397" height="60.1846" filterUnits="userSpaceOnUse" color-interpolation-filters="sRGB">
<feFlood flood-opacity="0" result="BackgroundImageFix"/>
<feColorMatrix in="SourceAlpha" type="matrix" values="0 0 0 0 0 0 0 0 0 0 0 0 0 0 0 0 0 0 127 0" result="hardAlpha"/>
<feOffset dy="4"/>
<feGaussianBlur stdDeviation="2"/>
<feComposite in2="hardAlpha" operator="out"/>
<feColorMatrix type="matrix" values="0 0 0 0 0 0 0 0 0 0 0 0 0 0 0 0 0 0 0.25 0"/>
<feBlend mode="normal" in2="BackgroundImageFix" result="effect1_dropShadow_97_32"/>
<feBlend mode="normal" in="SourceGraphic" in2="effect1_dropShadow_97_32" result="shape"/>
</filter>
</defs>
</svg>
