<svg width="531" height="47" viewBox="0 0 531 47" fill="none" xmlns="http://www.w3.org/2000/svg">
<path d="M1.30939 44.6999L0.00922639 1.94971C0.00414824 1.78274 0.136441 1.64378 0.303461 1.64064L87.3852 0.00556241C87.5494 0.00247927 87.6856 0.132002 87.6907 0.296154L88.9906 41.9563C88.9958 42.1219 88.8658 42.2603 88.7002 42.2655L1.61864 44.9906C1.45293 44.9958 1.31443 44.8656 1.30939 44.6999Z" fill="#159BD7"/>
<path d="M1.78693 11.9815V9.09091H21.9688V11.9815H13.5071V36H10.2486V11.9815H1.78693ZM32.1122 36.4205C30.1676 36.4205 28.4902 35.9912 27.0799 35.1328C25.6784 34.2656 24.5966 33.0568 23.8345 31.5064C23.0812 29.9472 22.7045 28.134 22.7045 26.0668C22.7045 23.9995 23.0812 22.1776 23.8345 20.6009C24.5966 19.0154 25.6565 17.7803 27.0142 16.8956C28.3807 16.0021 29.9749 15.5554 31.7969 15.5554C32.848 15.5554 33.886 15.7306 34.9109 16.081C35.9357 16.4313 36.8686 17.0007 37.7095 17.7891C38.5504 18.5687 39.2205 19.6023 39.7198 20.8899C40.2191 22.1776 40.4688 23.763 40.4688 25.6463V26.9602H24.9119V24.2798H37.3153C37.3153 23.1411 37.0876 22.125 36.6321 21.2315C36.1854 20.3381 35.5459 19.6329 34.7138 19.1161C33.8904 18.5993 32.9181 18.3409 31.7969 18.3409C30.5618 18.3409 29.4931 18.6475 28.5909 19.2607C27.6974 19.8651 27.0098 20.6534 26.5281 21.6257C26.0463 22.598 25.8054 23.6404 25.8054 24.7528V26.5398C25.8054 28.0639 26.0682 29.3559 26.5938 30.4158C27.1281 31.467 27.8683 32.2685 28.8143 32.8203C29.7603 33.3634 30.8596 33.6349 32.1122 33.6349C32.9268 33.6349 33.6626 33.5211 34.3196 33.2933C34.9853 33.0568 35.5591 32.7064 36.0408 32.2422C36.5226 31.7692 36.8949 31.1823 37.1577 30.4815L40.1534 31.3224C39.8381 32.3385 39.3081 33.232 38.5636 34.0028C37.819 34.7649 36.8993 35.3606 35.8043 35.7898C34.7094 36.2102 33.4787 36.4205 32.1122 36.4205ZM45.1857 36V15.8182H48.2866V36H45.1857ZM46.7624 12.4545C46.158 12.4545 45.6368 12.2487 45.1989 11.837C44.7696 11.4253 44.555 10.9304 44.555 10.3523C44.555 9.77415 44.7696 9.27924 45.1989 8.86754C45.6368 8.45585 46.158 8.25 46.7624 8.25C47.3668 8.25 47.8836 8.45585 48.3129 8.86754C48.7508 9.27924 48.9698 9.77415 48.9698 10.3523C48.9698 10.9304 48.7508 11.4253 48.3129 11.837C47.8836 12.2487 47.3668 12.4545 46.7624 12.4545ZM57.0669 9.09091V36H53.966V9.09091H57.0669ZM71.2079 36.4205C69.2633 36.4205 67.5859 35.9912 66.1756 35.1328C64.7741 34.2656 63.6923 33.0568 62.9302 31.5064C62.1769 29.9472 61.8002 28.134 61.8002 26.0668C61.8002 23.9995 62.1769 22.1776 62.9302 20.6009C63.6923 19.0154 64.7522 17.7803 66.1099 16.8956C67.4764 16.0021 69.0706 15.5554 70.8926 15.5554C71.9437 15.5554 72.9817 15.7306 74.0066 16.081C75.0314 16.4313 75.9643 17.0007 76.8052 17.7891C77.6461 18.5687 78.3162 19.6023 78.8155 20.8899C79.3148 22.1776 79.5645 23.763 79.5645 25.6463V26.9602H64.0076V24.2798H76.411C76.411 23.1411 76.1833 22.125 75.7278 21.2315C75.2811 20.3381 74.6416 19.6329 73.8095 19.1161C72.9861 18.5993 72.0138 18.3409 70.8926 18.3409C69.6575 18.3409 68.5888 18.6475 67.6866 19.2607C66.7931 19.8651 66.1055 20.6534 65.6238 21.6257C65.142 22.598 64.9011 23.6404 64.9011 24.7528V26.5398C64.9011 28.0639 65.1639 29.3559 65.6895 30.4158C66.2238 31.467 66.964 32.2685 67.91 32.8203C68.856 33.3634 69.9553 33.6349 71.2079 33.6349C72.0226 33.6349 72.7583 33.5211 73.4153 33.2933C74.081 33.0568 74.6548 32.7064 75.1365 32.2422C75.6183 31.7692 75.9906 31.1823 76.2534 30.4815L79.2491 31.3224C78.9338 32.3385 78.4038 33.232 77.6593 34.0028C76.9147 34.7649 75.995 35.3606 74.9 35.7898C73.8051 36.2102 72.5744 36.4205 71.2079 36.4205ZM102.308 36.4205C100.627 36.4205 99.1419 35.9956 97.8542 35.146C96.5666 34.2875 95.5592 33.0787 94.8322 31.5195C94.1052 29.9516 93.7417 28.099 93.7417 25.9616C93.7417 23.8419 94.1052 22.0024 94.8322 20.4432C95.5592 18.884 96.571 17.6796 97.8674 16.8299C99.1638 15.9802 100.662 15.5554 102.361 15.5554C103.675 15.5554 104.713 15.7744 105.475 16.2124C106.246 16.6416 106.833 17.1321 107.236 17.6839C107.647 18.227 107.967 18.6738 108.195 19.0241H108.458V9.09091H111.558V36H108.563V32.8991H108.195C107.967 33.267 107.643 33.7313 107.222 34.2919C106.802 34.8437 106.202 35.3387 105.422 35.7766C104.643 36.2058 103.605 36.4205 102.308 36.4205ZM102.729 33.6349C103.973 33.6349 105.024 33.3108 105.882 32.6626C106.741 32.0057 107.393 31.0991 107.84 29.9428C108.287 28.7778 108.51 27.4332 108.51 25.9091C108.51 24.4025 108.291 23.0842 107.853 21.9542C107.415 20.8155 106.767 19.9308 105.909 19.3001C105.05 18.6606 103.99 18.3409 102.729 18.3409C101.415 18.3409 100.32 18.6781 99.4441 19.3526C98.5769 20.0183 97.9243 20.925 97.4863 22.0724C97.0571 23.2112 96.8425 24.4901 96.8425 25.9091C96.8425 27.3456 97.0615 28.6508 97.4995 29.8246C97.9462 30.9896 98.6032 31.9181 99.4703 32.6101C100.346 33.2933 101.432 33.6349 102.729 33.6349ZM126.13 36.4205C124.185 36.4205 122.508 35.9912 121.097 35.1328C119.696 34.2656 118.614 33.0568 117.852 31.5064C117.099 29.9472 116.722 28.134 116.722 26.0668C116.722 23.9995 117.099 22.1776 117.852 20.6009C118.614 19.0154 119.674 17.7803 121.032 16.8956C122.398 16.0021 123.992 15.5554 125.814 15.5554C126.866 15.5554 127.904 15.7306 128.928 16.081C129.953 16.4313 130.886 17.0007 131.727 17.7891C132.568 18.5687 133.238 19.6023 133.737 20.8899C134.237 22.1776 134.486 23.763 134.486 25.6463V26.9602H118.93V24.2798H131.333C131.333 23.1411 131.105 22.125 130.65 21.2315C130.203 20.3381 129.564 19.6329 128.731 19.1161C127.908 18.5993 126.936 18.3409 125.814 18.3409C124.579 18.3409 123.511 18.6475 122.608 19.2607C121.715 19.8651 121.027 20.6534 120.546 21.6257C120.064 22.598 119.823 23.6404 119.823 24.7528V26.5398C119.823 28.0639 120.086 29.3559 120.611 30.4158C121.146 31.467 121.886 32.2685 122.832 32.8203C123.778 33.3634 124.877 33.6349 126.13 33.6349C126.944 33.6349 127.68 33.5211 128.337 33.2933C129.003 33.0568 129.577 32.7064 130.058 32.2422C130.54 31.7692 130.912 31.1823 131.175 30.4815L134.171 31.3224C133.856 32.3385 133.326 33.232 132.581 34.0028C131.837 34.7649 130.917 35.3606 129.822 35.7898C128.727 36.2102 127.496 36.4205 126.13 36.4205ZM139.203 36V15.8182H142.304V36H139.203ZM140.78 12.4545C140.176 12.4545 139.654 12.2487 139.216 11.837C138.787 11.4253 138.573 10.9304 138.573 10.3523C138.573 9.77415 138.787 9.27924 139.216 8.86754C139.654 8.45585 140.176 8.25 140.78 8.25C141.384 8.25 141.901 8.45585 142.33 8.86754C142.768 9.27924 142.987 9.77415 142.987 10.3523C142.987 10.9304 142.768 11.4253 142.33 11.837C141.901 12.2487 141.384 12.4545 140.78 12.4545ZM151.084 23.8594V36H147.984V15.8182H150.979V18.9716H151.242C151.715 17.9467 152.433 17.1233 153.397 16.5014C154.36 15.8707 155.604 15.5554 157.128 15.5554C158.495 15.5554 159.691 15.8357 160.715 16.3963C161.74 16.9482 162.537 17.7891 163.107 18.919C163.676 20.0402 163.961 21.4593 163.961 23.1761V36H160.86V23.3864C160.86 21.8009 160.448 20.5658 159.625 19.6811C158.802 18.7876 157.672 18.3409 156.235 18.3409C155.245 18.3409 154.36 18.5555 153.581 18.9847C152.81 19.4139 152.201 20.0402 151.755 20.8636C151.308 21.687 151.084 22.6856 151.084 23.8594ZM180.454 9.09091H184.343L193.488 31.4276H193.803L202.948 9.09091H206.837V36H203.789V15.5554H203.526L195.117 36H192.174L183.765 15.5554H183.502V36H180.454V9.09091ZM225.669 27.7486V15.8182H228.77V36H225.669V32.5838H225.459C224.986 33.6087 224.25 34.4802 223.252 35.1985C222.253 35.908 220.992 36.2628 219.467 36.2628C218.206 36.2628 217.085 35.9869 216.104 35.435C215.123 34.8744 214.352 34.0335 213.791 32.9123C213.231 31.7823 212.95 30.3589 212.95 28.642V15.8182H216.051V28.4318C216.051 29.9034 216.463 31.0772 217.286 31.9531C218.118 32.8291 219.178 33.267 220.466 33.267C221.237 33.267 222.021 33.07 222.818 32.6758C223.624 32.2816 224.298 31.6772 224.841 30.8626C225.393 30.0479 225.669 29.0099 225.669 27.7486ZM248.745 20.3381L245.959 21.1264C245.784 20.6622 245.526 20.2111 245.184 19.7731C244.851 19.3263 244.396 18.9585 243.818 18.6694C243.24 18.3803 242.499 18.2358 241.597 18.2358C240.362 18.2358 239.333 18.5205 238.509 19.0898C237.695 19.6504 237.287 20.3643 237.287 21.2315C237.287 22.0024 237.568 22.6111 238.128 23.0579C238.689 23.5046 239.565 23.8769 240.756 24.1747L243.752 24.9105C245.556 25.3485 246.901 26.0186 247.786 26.9208C248.67 27.8143 249.113 28.9661 249.113 30.3764C249.113 31.5327 248.78 32.5663 248.114 33.4773C247.457 34.3883 246.537 35.1065 245.355 35.6321C244.172 36.1577 242.797 36.4205 241.229 36.4205C239.171 36.4205 237.467 35.9737 236.118 35.0803C234.769 34.1868 233.915 32.8816 233.556 31.1648L236.499 30.429C236.779 31.5152 237.309 32.3298 238.089 32.8729C238.877 33.416 239.907 33.6875 241.177 33.6875C242.622 33.6875 243.769 33.3809 244.619 32.7678C245.478 32.1458 245.907 31.4013 245.907 30.5341C245.907 29.8333 245.662 29.2464 245.171 28.7734C244.68 28.2917 243.927 27.9325 242.911 27.696L239.547 26.9077C237.699 26.4697 236.341 25.7908 235.474 24.8711C234.616 23.9426 234.187 22.782 234.187 21.3892C234.187 20.2505 234.506 19.2431 235.146 18.3672C235.794 17.4912 236.674 16.8036 237.787 16.3043C238.908 15.805 240.178 15.5554 241.597 15.5554C243.594 15.5554 245.162 15.9934 246.301 16.8693C247.448 17.7453 248.263 18.9015 248.745 20.3381ZM256.671 28.642L256.619 24.8054H257.249L266.079 15.8182H269.915L260.508 25.331H260.245L256.671 28.642ZM253.78 36V9.09091H256.881V36H253.78ZM266.604 36L258.721 26.0142L260.928 23.8594L270.546 36H266.604ZM281.537 36.4205C279.592 36.4205 277.915 35.9912 276.505 35.1328C275.103 34.2656 274.021 33.0568 273.259 31.5064C272.506 29.9472 272.129 28.134 272.129 26.0668C272.129 23.9995 272.506 22.1776 273.259 20.6009C274.021 19.0154 275.081 17.7803 276.439 16.8956C277.805 16.0021 279.4 15.5554 281.222 15.5554C282.273 15.5554 283.311 15.7306 284.336 16.081C285.361 16.4313 286.293 17.0007 287.134 17.7891C287.975 18.5687 288.645 19.6023 289.145 20.8899C289.644 22.1776 289.894 23.763 289.894 25.6463V26.9602H274.337V24.2798H286.74C286.74 23.1411 286.512 22.125 286.057 21.2315C285.61 20.3381 284.971 19.6329 284.139 19.1161C283.315 18.5993 282.343 18.3409 281.222 18.3409C279.987 18.3409 278.918 18.6475 278.016 19.2607C277.122 19.8651 276.435 20.6534 275.953 21.6257C275.471 22.598 275.23 23.6404 275.23 24.7528V26.5398C275.23 28.0639 275.493 29.3559 276.019 30.4158C276.553 31.467 277.293 32.2685 278.239 32.8203C279.185 33.3634 280.284 33.6349 281.537 33.6349C282.352 33.6349 283.087 33.5211 283.744 33.2933C284.41 33.0568 284.984 32.7064 285.466 32.2422C285.947 31.7692 286.32 31.1823 286.582 30.4815L289.578 31.3224C289.263 32.3385 288.733 33.232 287.988 34.0028C287.244 34.7649 286.324 35.3606 285.229 35.7898C284.134 36.2102 282.903 36.4205 281.537 36.4205ZM297.711 9.09091V36H294.611V9.09091H297.711ZM309.33 36.473C308.051 36.473 306.89 36.2321 305.848 35.7504C304.805 35.2598 303.978 34.5547 303.365 33.6349C302.751 32.7064 302.445 31.5852 302.445 30.2713C302.445 29.1151 302.673 28.1778 303.128 27.4595C303.584 26.7325 304.192 26.1631 304.954 25.7514C305.716 25.3397 306.557 25.0331 307.477 24.8317C308.406 24.6214 309.338 24.455 310.276 24.3324C311.502 24.1747 312.496 24.0565 313.258 23.9776C314.029 23.89 314.59 23.7455 314.94 23.544C315.299 23.3426 315.479 22.9922 315.479 22.4929V22.3878C315.479 21.0914 315.124 20.084 314.415 19.3658C313.714 18.6475 312.65 18.2884 311.222 18.2884C309.741 18.2884 308.581 18.6125 307.74 19.2607C306.899 19.9089 306.308 20.6009 305.966 21.3366L303.023 20.2855C303.548 19.0592 304.249 18.1044 305.125 17.4212C306.01 16.7292 306.973 16.2474 308.016 15.9759C309.067 15.6955 310.101 15.5554 311.117 15.5554C311.765 15.5554 312.509 15.6342 313.35 15.7919C314.2 15.9408 315.019 16.2518 315.807 16.7248C316.604 17.1978 317.266 17.9117 317.791 18.8665C318.317 19.8213 318.58 21.1001 318.58 22.7031V36H315.479V33.267H315.321C315.111 33.705 314.761 34.1737 314.27 34.6729C313.78 35.1722 313.127 35.5971 312.312 35.9474C311.498 36.2978 310.503 36.473 309.33 36.473ZM309.803 33.6875C311.029 33.6875 312.063 33.4466 312.904 32.9648C313.753 32.4831 314.393 31.8612 314.822 31.0991C315.26 30.337 315.479 29.5355 315.479 28.6946V25.8565C315.347 26.0142 315.058 26.1587 314.612 26.2901C314.174 26.4128 313.666 26.5223 313.088 26.6186C312.518 26.7062 311.962 26.785 311.419 26.8551C310.885 26.9164 310.451 26.969 310.118 27.0128C309.312 27.1179 308.559 27.2887 307.858 27.5252C307.166 27.753 306.606 28.099 306.176 28.5632C305.756 29.0187 305.546 29.6406 305.546 30.429C305.546 31.5064 305.944 32.321 306.741 32.8729C307.547 33.416 308.568 33.6875 309.803 33.6875ZM327.34 9.09091V36H324.239V9.09091H327.34ZM341.797 15.8182V18.446H331.338V15.8182H341.797ZM334.386 10.983H337.487V30.2188C337.487 31.0947 337.614 31.7517 337.868 32.1896C338.131 32.6188 338.464 32.9079 338.867 33.0568C339.278 33.197 339.712 33.267 340.167 33.267C340.509 33.267 340.789 33.2495 341.008 33.2145C341.227 33.1707 341.403 33.1357 341.534 33.1094L342.165 35.8949C341.954 35.9737 341.661 36.0526 341.284 36.1314C340.908 36.219 340.43 36.2628 339.852 36.2628C338.976 36.2628 338.118 36.0745 337.277 35.6978C336.445 35.3211 335.753 34.7474 335.201 33.9766C334.658 33.2057 334.386 32.2334 334.386 31.0597V10.983ZM354.706 36.4205C352.761 36.4205 351.084 35.9912 349.674 35.1328C348.272 34.2656 347.19 33.0568 346.428 31.5064C345.675 29.9472 345.298 28.134 345.298 26.0668C345.298 23.9995 345.675 22.1776 346.428 20.6009C347.19 19.0154 348.25 17.7803 349.608 16.8956C350.974 16.0021 352.569 15.5554 354.391 15.5554C355.442 15.5554 356.48 15.7306 357.505 16.081C358.529 16.4313 359.462 17.0007 360.303 17.7891C361.144 18.5687 361.814 19.6023 362.314 20.8899C362.813 22.1776 363.062 23.763 363.062 25.6463V26.9602H347.506V24.2798H359.909C359.909 23.1411 359.681 22.125 359.226 21.2315C358.779 20.3381 358.14 19.6329 357.308 19.1161C356.484 18.5993 355.512 18.3409 354.391 18.3409C353.156 18.3409 352.087 18.6475 351.185 19.2607C350.291 19.8651 349.604 20.6534 349.122 21.6257C348.64 22.598 348.399 23.6404 348.399 24.7528V26.5398C348.399 28.0639 348.662 29.3559 349.188 30.4158C349.722 31.467 350.462 32.2685 351.408 32.8203C352.354 33.3634 353.453 33.6349 354.706 33.6349C355.521 33.6349 356.256 33.5211 356.913 33.2933C357.579 33.0568 358.153 32.7064 358.635 32.2422C359.116 31.7692 359.489 31.1823 359.751 30.4815L362.747 31.3224C362.432 32.3385 361.902 33.232 361.157 34.0028C360.413 34.7649 359.493 35.3606 358.398 35.7898C357.303 36.2102 356.072 36.4205 354.706 36.4205ZM367.779 36V15.8182H370.775V18.8665H370.985C371.353 17.8679 372.019 17.0576 372.983 16.4357C373.946 15.8138 375.032 15.5028 376.241 15.5028C376.469 15.5028 376.754 15.5072 377.095 15.516C377.437 15.5247 377.695 15.5379 377.87 15.5554V18.7088C377.765 18.6825 377.524 18.6431 377.148 18.5906C376.78 18.5292 376.39 18.4986 375.978 18.4986C374.997 18.4986 374.121 18.7044 373.35 19.1161C372.588 19.5191 371.984 20.0797 371.537 20.7979C371.099 21.5075 370.88 22.3177 370.88 23.2287V36H367.779ZM391.952 36V15.8182H394.948V18.9716H395.211C395.631 17.8942 396.31 17.0576 397.247 16.462C398.185 15.8576 399.31 15.5554 400.624 15.5554C401.956 15.5554 403.064 15.8576 403.948 16.462C404.842 17.0576 405.538 17.8942 406.038 18.9716H406.248C406.765 17.9292 407.54 17.1014 408.573 16.4883C409.607 15.8664 410.847 15.5554 412.292 15.5554C414.096 15.5554 415.572 16.1204 416.72 17.2504C417.867 18.3716 418.441 20.1191 418.441 22.4929V36H415.34V22.4929C415.34 21.0038 414.933 19.9395 414.118 19.3001C413.304 18.6606 412.344 18.3409 411.241 18.3409C409.822 18.3409 408.722 18.7701 407.943 19.6286C407.163 20.4782 406.773 21.5556 406.773 22.8608V36H403.62V22.1776C403.62 21.0301 403.248 20.1059 402.503 19.4052C401.759 18.6957 400.799 18.3409 399.626 18.3409C398.82 18.3409 398.066 18.5555 397.366 18.9847C396.674 19.4139 396.113 20.0096 395.684 20.7717C395.263 21.525 395.053 22.3965 395.053 23.3864V36H391.952ZM424.111 36V15.8182H427.211V36H424.111ZM425.687 12.4545C425.083 12.4545 424.562 12.2487 424.124 11.837C423.694 11.4253 423.48 10.9304 423.48 10.3523C423.48 9.77415 423.694 9.27924 424.124 8.86754C424.562 8.45585 425.083 8.25 425.687 8.25C426.292 8.25 426.808 8.45585 427.238 8.86754C427.676 9.27924 427.895 9.77415 427.895 10.3523C427.895 10.9304 427.676 11.4253 427.238 11.837C426.808 12.2487 426.292 12.4545 425.687 12.4545ZM441.668 15.8182V18.446H431.209V15.8182H441.668ZM434.257 10.983H437.358V30.2188C437.358 31.0947 437.485 31.7517 437.739 32.1896C438.002 32.6188 438.335 32.9079 438.738 33.0568C439.149 33.197 439.583 33.267 440.039 33.267C440.38 33.267 440.66 33.2495 440.879 33.2145C441.098 33.1707 441.274 33.1357 441.405 33.1094L442.036 35.8949C441.825 35.9737 441.532 36.0526 441.155 36.1314C440.779 36.219 440.301 36.2628 439.723 36.2628C438.847 36.2628 437.989 36.0745 437.148 35.6978C436.316 35.3211 435.624 34.7474 435.072 33.9766C434.529 33.2057 434.257 32.2334 434.257 31.0597V10.983ZM469.457 27.7486V15.8182H472.558V36H469.457V32.5838H469.247C468.774 33.6087 468.038 34.4802 467.04 35.1985C466.041 35.908 464.78 36.2628 463.256 36.2628C461.994 36.2628 460.873 35.9869 459.892 35.435C458.911 34.8744 458.14 34.0335 457.579 32.9123C457.019 31.7823 456.738 30.3589 456.738 28.642V15.8182H459.839V28.4318C459.839 29.9034 460.251 31.0772 461.074 31.9531C461.907 32.8291 462.966 33.267 464.254 33.267C465.025 33.267 465.809 33.07 466.606 32.6758C467.412 32.2816 468.086 31.6772 468.629 30.8626C469.181 30.0479 469.457 29.0099 469.457 27.7486ZM481.338 23.8594V36H478.237V15.8182H481.233V18.9716H481.496C481.969 17.9467 482.687 17.1233 483.651 16.5014C484.614 15.8707 485.858 15.5554 487.382 15.5554C488.749 15.5554 489.945 15.8357 490.969 16.3963C491.994 16.9482 492.791 17.7891 493.361 18.919C493.93 20.0402 494.215 21.4593 494.215 23.1761V36H491.114V23.3864C491.114 21.8009 490.702 20.5658 489.879 19.6811C489.055 18.7876 487.925 18.3409 486.489 18.3409C485.499 18.3409 484.614 18.5555 483.835 18.9847C483.064 19.4139 482.455 20.0402 482.008 20.8636C481.562 21.687 481.338 22.6856 481.338 23.8594ZM514.176 20.3381L511.391 21.1264C511.216 20.6622 510.957 20.2111 510.616 19.7731C510.283 19.3263 509.827 18.9585 509.249 18.6694C508.671 18.3803 507.931 18.2358 507.029 18.2358C505.794 18.2358 504.764 18.5205 503.941 19.0898C503.126 19.6504 502.719 20.3643 502.719 21.2315C502.719 22.0024 502.999 22.6111 503.56 23.0579C504.121 23.5046 504.997 23.8769 506.188 24.1747L509.184 24.9105C510.988 25.3485 512.333 26.0186 513.217 26.9208C514.102 27.8143 514.544 28.9661 514.544 30.3764C514.544 31.5327 514.212 32.5663 513.546 33.4773C512.889 34.3883 511.969 35.1065 510.787 35.6321C509.604 36.1577 508.229 36.4205 506.661 36.4205C504.602 36.4205 502.899 35.9737 501.55 35.0803C500.201 34.1868 499.347 32.8816 498.988 31.1648L501.931 30.429C502.211 31.5152 502.741 32.3298 503.521 32.8729C504.309 33.416 505.338 33.6875 506.608 33.6875C508.054 33.6875 509.201 33.3809 510.051 32.7678C510.909 32.1458 511.338 31.4013 511.338 30.5341C511.338 29.8333 511.093 29.2464 510.603 28.7734C510.112 28.2917 509.359 27.9325 508.343 27.696L504.979 26.9077C503.131 26.4697 501.773 25.7908 500.906 24.8711C500.047 23.9426 499.618 22.782 499.618 21.3892C499.618 20.2505 499.938 19.2431 500.577 18.3672C501.226 17.4912 502.106 16.8036 503.218 16.3043C504.34 15.805 505.61 15.5554 507.029 15.5554C509.026 15.5554 510.594 15.9934 511.733 16.8693C512.88 17.7453 513.695 18.9015 514.176 20.3381ZM523.312 9.09091L523.049 28.4318H520L519.738 9.09091H523.312ZM521.525 36.2102C520.876 36.2102 520.32 35.9781 519.856 35.5138C519.392 35.0496 519.16 34.4934 519.16 33.8452C519.16 33.197 519.392 32.6407 519.856 32.1765C520.32 31.7122 520.876 31.4801 521.525 31.4801C522.173 31.4801 522.729 31.7122 523.193 32.1765C523.658 32.6407 523.89 33.197 523.89 33.8452C523.89 34.2744 523.78 34.6686 523.561 35.0277C523.351 35.3868 523.066 35.6759 522.707 35.8949C522.357 36.1051 521.963 36.2102 521.525 36.2102Z" fill="white"/>
</svg>
