<svg width="281" height="47" viewBox="0 0 281 47" fill="none" xmlns="http://www.w3.org/2000/svg">
<path d="M206.089 45.6964L205.008 2.94706C205.003 2.78111 205.135 2.6433 205.301 2.63955L277.605 1.00675C277.77 1.00302 277.907 1.13366 277.911 1.29889L278.992 42.9597C278.997 43.1239 278.868 43.2611 278.704 43.2673L206.4 45.9886C206.233 45.9949 206.093 45.8635 206.089 45.6964Z" fill="#159BD7"/>
<path d="M17.9744 15.8182C17.8168 14.4867 17.1773 13.4531 16.0561 12.7173C14.9349 11.9815 13.5597 11.6136 11.9304 11.6136C10.7391 11.6136 9.69673 11.8063 8.80327 12.1918C7.91856 12.5772 7.22656 13.1071 6.72727 13.7816C6.23674 14.4561 5.99148 15.2225 5.99148 16.081C5.99148 16.7992 6.16229 17.4168 6.50391 17.9336C6.85429 18.4416 7.30102 18.8665 7.84411 19.2081C8.38719 19.541 8.95656 19.8169 9.5522 20.0359C10.1478 20.2461 10.6953 20.4169 11.1946 20.5483L13.9276 21.2841C14.6283 21.468 15.4079 21.7221 16.2663 22.0462C17.1335 22.3703 17.9613 22.8126 18.7496 23.3732C19.5468 23.9251 20.2037 24.6346 20.7205 25.5018C21.2373 26.369 21.4957 27.4332 21.4957 28.6946C21.4957 30.1487 21.1147 31.4626 20.3526 32.6364C19.5993 33.8101 18.4956 34.743 17.0415 35.435C15.5962 36.127 13.84 36.473 11.7727 36.473C9.84564 36.473 8.17697 36.1621 6.76669 35.5401C5.36518 34.9182 4.26148 34.051 3.45561 32.9386C2.6585 31.8261 2.20739 30.5341 2.10227 29.0625H5.46591C5.5535 30.0786 5.89512 30.9195 6.49077 31.5852C7.09517 32.2422 7.85724 32.7327 8.77699 33.0568C9.70549 33.3722 10.7041 33.5298 11.7727 33.5298C13.0166 33.5298 14.1334 33.3284 15.1232 32.9254C16.113 32.5137 16.897 31.9444 17.4751 31.2173C18.0533 30.4815 18.3423 29.6231 18.3423 28.642C18.3423 27.7486 18.0927 27.0215 17.5934 26.4609C17.0941 25.9003 16.4371 25.4448 15.6225 25.0945C14.8079 24.7441 13.9276 24.4375 12.9815 24.1747L9.67046 23.2287C7.56818 22.6243 5.90388 21.7615 4.67756 20.6403C3.45123 19.5191 2.83807 18.0518 2.83807 16.2386C2.83807 14.732 3.24538 13.4181 4.06001 12.2969C4.8834 11.1669 5.9871 10.291 7.37109 9.66903C8.76385 9.03835 10.3187 8.72301 12.0355 8.72301C13.7699 8.72301 15.3116 9.03397 16.6605 9.65589C18.0095 10.2691 19.0781 11.11 19.8665 12.1786C20.6636 13.2473 21.084 14.4605 21.1278 15.8182H17.9744ZM34.8944 36.4205C32.9498 36.4205 31.2724 35.9912 29.8621 35.1328C28.4606 34.2656 27.3788 33.0568 26.6167 31.5064C25.8634 29.9472 25.4868 28.134 25.4868 26.0668C25.4868 23.9995 25.8634 22.1776 26.6167 20.6009C27.3788 19.0154 28.4387 17.7803 29.7964 16.8956C31.1629 16.0021 32.7571 15.5554 34.5791 15.5554C35.6302 15.5554 36.6682 15.7306 37.6931 16.081C38.718 16.4313 39.6508 17.0007 40.4917 17.7891C41.3327 18.5687 42.0028 19.6023 42.502 20.8899C43.0013 22.1776 43.251 23.763 43.251 25.6463V26.9602H27.6942V24.2798H40.0976C40.0976 23.1411 39.8698 22.125 39.4143 21.2315C38.9676 20.3381 38.3282 19.6329 37.496 19.1161C36.6726 18.5993 35.7003 18.3409 34.5791 18.3409C33.344 18.3409 32.2754 18.6475 31.3731 19.2607C30.4797 19.8651 29.7921 20.6534 29.3103 21.6257C28.8285 22.598 28.5876 23.6404 28.5876 24.7528V26.5398C28.5876 28.0639 28.8504 29.3559 29.376 30.4158C29.9103 31.467 30.6505 32.2685 31.5965 32.8203C32.5425 33.3634 33.6418 33.6349 34.8944 33.6349C35.7091 33.6349 36.4449 33.5211 37.1018 33.2933C37.7675 33.0568 38.3413 32.7064 38.8231 32.2422C39.3048 31.7692 39.6771 31.1823 39.9399 30.4815L42.9356 31.3224C42.6203 32.3385 42.0903 33.232 41.3458 34.0028C40.6012 34.7649 39.6815 35.3606 38.5866 35.7898C37.4916 36.2102 36.2609 36.4205 34.8944 36.4205ZM51.0688 9.09091V36H47.968V9.09091H51.0688ZM65.2099 36.4205C63.2653 36.4205 61.5878 35.9912 60.1776 35.1328C58.776 34.2656 57.6942 33.0568 56.9322 31.5064C56.1789 29.9472 55.8022 28.134 55.8022 26.0668C55.8022 23.9995 56.1789 22.1776 56.9322 20.6009C57.6942 19.0154 58.7541 17.7803 60.1119 16.8956C61.4783 16.0021 63.0726 15.5554 64.8945 15.5554C65.9457 15.5554 66.9837 15.7306 68.0085 16.081C69.0334 16.4313 69.9663 17.0007 70.8072 17.7891C71.6481 18.5687 72.3182 19.6023 72.8175 20.8899C73.3168 22.1776 73.5664 23.763 73.5664 25.6463V26.9602H58.0096V24.2798H70.413C70.413 23.1411 70.1853 22.125 69.7298 21.2315C69.283 20.3381 68.6436 19.6329 67.8114 19.1161C66.988 18.5993 66.0157 18.3409 64.8945 18.3409C63.6594 18.3409 62.5908 18.6475 61.6886 19.2607C60.7951 19.8651 60.1075 20.6534 59.6257 21.6257C59.1439 22.598 58.9031 23.6404 58.9031 24.7528V26.5398C58.9031 28.0639 59.1658 29.3559 59.6914 30.4158C60.2257 31.467 60.9659 32.2685 61.9119 32.8203C62.858 33.3634 63.9573 33.6349 65.2099 33.6349C66.0245 33.6349 66.7603 33.5211 67.4173 33.2933C68.083 33.0568 68.6567 32.7064 69.1385 32.2422C69.6203 31.7692 69.9925 31.1823 70.2553 30.4815L73.2511 31.3224C72.9357 32.3385 72.4058 33.232 71.6612 34.0028C70.9167 34.7649 69.9969 35.3606 68.902 35.7898C67.8071 36.2102 66.5764 36.4205 65.2099 36.4205ZM86.4822 36.4205C84.5902 36.4205 82.9609 35.9737 81.5945 35.0803C80.228 34.1868 79.1768 32.9561 78.4411 31.3881C77.7053 29.8202 77.3374 28.0289 77.3374 26.0142C77.3374 23.9645 77.714 22.1557 78.4673 20.5877C79.2294 19.011 80.2893 17.7803 81.647 16.8956C83.0135 16.0021 84.6077 15.5554 86.4297 15.5554C87.8487 15.5554 89.1276 15.8182 90.2663 16.3438C91.4051 16.8693 92.338 17.6051 93.065 18.5511C93.792 19.4972 94.2431 20.6009 94.4183 21.8622H91.3175C91.081 20.9425 90.5554 20.1278 89.7408 19.4183C88.9349 18.7 87.8487 18.3409 86.4822 18.3409C85.2734 18.3409 84.2135 18.6562 83.3026 19.2869C82.4003 19.9089 81.6952 20.7892 81.1871 21.9279C80.6879 23.0579 80.4382 24.3849 80.4382 25.9091C80.4382 27.4683 80.6835 28.826 81.174 29.9822C81.6733 31.1385 82.3741 32.0363 83.2763 32.6758C84.1873 33.3152 85.2559 33.6349 86.4822 33.6349C87.2881 33.6349 88.0195 33.4948 88.6765 33.2145C89.3335 32.9342 89.8897 32.5312 90.3452 32.0057C90.8007 31.4801 91.1248 30.8494 91.3175 30.1136H94.4183C94.2431 31.3049 93.8095 32.378 93.1175 33.3327C92.4343 34.2788 91.5277 35.0321 90.3977 35.5927C89.2765 36.1445 87.9714 36.4205 86.4822 36.4205ZM107.728 15.8182V18.446H97.2695V15.8182H107.728ZM100.318 10.983H103.419V30.2188C103.419 31.0947 103.546 31.7517 103.8 32.1896C104.063 32.6188 104.395 32.9079 104.798 33.0568C105.21 33.197 105.644 33.267 106.099 33.267C106.441 33.267 106.721 33.2495 106.94 33.2145C107.159 33.1707 107.334 33.1357 107.466 33.1094L108.096 35.8949C107.886 35.9737 107.593 36.0526 107.216 36.1314C106.839 36.219 106.362 36.2628 105.784 36.2628C104.908 36.2628 104.049 36.0745 103.208 35.6978C102.376 35.3211 101.684 34.7474 101.132 33.9766C100.589 33.2057 100.318 32.2334 100.318 31.0597V10.983ZM120.907 9.09091H124.638L132.102 21.652H132.417L139.88 9.09091H143.612L133.888 24.9105V36H130.63V24.9105L120.907 9.09091ZM152.75 36.4205C150.928 36.4205 149.329 35.9869 147.954 35.1197C146.588 34.2525 145.519 33.0393 144.748 31.4801C143.986 29.9209 143.605 28.099 143.605 26.0142C143.605 23.9119 143.986 22.0768 144.748 20.5089C145.519 18.9409 146.588 17.7234 147.954 16.8562C149.329 15.989 150.928 15.5554 152.75 15.5554C154.572 15.5554 156.166 15.989 157.532 16.8562C158.908 17.7234 159.976 18.9409 160.738 20.5089C161.509 22.0768 161.895 23.9119 161.895 26.0142C161.895 28.099 161.509 29.9209 160.738 31.4801C159.976 33.0393 158.908 34.2525 157.532 35.1197C156.166 35.9869 154.572 36.4205 152.75 36.4205ZM152.75 33.6349C154.134 33.6349 155.273 33.2802 156.166 32.5707C157.059 31.8612 157.721 30.9283 158.15 29.772C158.579 28.6158 158.794 27.3632 158.794 26.0142C158.794 24.6652 158.579 23.4083 158.15 22.2433C157.721 21.0782 157.059 20.1366 156.166 19.4183C155.273 18.7 154.134 18.3409 152.75 18.3409C151.366 18.3409 150.227 18.7 149.334 19.4183C148.44 20.1366 147.779 21.0782 147.35 22.2433C146.92 23.4083 146.706 24.6652 146.706 26.0142C146.706 27.3632 146.92 28.6158 147.35 29.772C147.779 30.9283 148.44 31.8612 149.334 32.5707C150.227 33.2802 151.366 33.6349 152.75 33.6349ZM179.347 27.7486V15.8182H182.448V36H179.347V32.5838H179.137C178.664 33.6087 177.928 34.4802 176.929 35.1985C175.931 35.908 174.669 36.2628 173.145 36.2628C171.884 36.2628 170.763 35.9869 169.782 35.435C168.8 34.8744 168.03 34.0335 167.469 32.9123C166.908 31.7823 166.628 30.3589 166.628 28.642V15.8182H169.729V28.4318C169.729 29.9034 170.141 31.0772 170.964 31.9531C171.796 32.8291 172.856 33.267 174.144 33.267C174.915 33.267 175.699 33.07 176.496 32.6758C177.302 32.2816 177.976 31.6772 178.519 30.8626C179.071 30.0479 179.347 29.0099 179.347 27.7486ZM188.127 36V15.8182H191.123V18.8665H191.333C191.701 17.8679 192.367 17.0576 193.33 16.4357C194.294 15.8138 195.38 15.5028 196.589 15.5028C196.817 15.5028 197.101 15.5072 197.443 15.516C197.784 15.5247 198.043 15.5379 198.218 15.5554V18.7088C198.113 18.6825 197.872 18.6431 197.495 18.5906C197.127 18.5292 196.738 18.4986 196.326 18.4986C195.345 18.4986 194.469 18.7044 193.698 19.1161C192.936 19.5191 192.332 20.0797 191.885 20.7979C191.447 21.5075 191.228 22.3177 191.228 23.2287V36H188.127ZM213.824 36H210.408L220.289 9.09091H223.652L233.533 36H230.117L222.076 13.348H221.865L213.824 36ZM215.085 25.4886H228.855V28.3793H215.085V25.4886ZM245.45 43.9886C243.952 43.9886 242.665 43.7959 241.587 43.4105C240.51 43.0339 239.612 42.5346 238.894 41.9126C238.184 41.2995 237.619 40.6425 237.199 39.9418L239.669 38.2074C239.949 38.5753 240.304 38.9957 240.733 39.4688C241.162 39.9505 241.749 40.3666 242.494 40.717C243.247 41.0761 244.233 41.2557 245.45 41.2557C247.079 41.2557 248.424 40.8615 249.484 40.0732C250.544 39.2848 251.074 38.0497 251.074 36.3679V32.2685H250.811C250.583 32.6364 250.259 33.0919 249.839 33.6349C249.427 34.1693 248.831 34.6467 248.052 35.0671C247.281 35.4788 246.239 35.6847 244.925 35.6847C243.295 35.6847 241.833 35.2992 240.536 34.5284C239.248 33.7576 238.228 32.6364 237.475 31.1648C236.73 29.6932 236.358 27.9062 236.358 25.804C236.358 23.7367 236.721 21.9367 237.448 20.4038C238.175 18.8621 239.187 17.6708 240.484 16.8299C241.78 15.9802 243.278 15.5554 244.977 15.5554C246.291 15.5554 247.333 15.7744 248.104 16.2124C248.884 16.6416 249.48 17.1321 249.891 17.6839C250.312 18.227 250.636 18.6738 250.864 19.0241H251.179V15.8182H254.175V36.5781C254.175 38.3125 253.78 39.7228 252.992 40.8089C252.213 41.9039 251.161 42.7054 249.839 43.2134C248.525 43.7302 247.062 43.9886 245.45 43.9886ZM245.345 32.8991C246.589 32.8991 247.64 32.6145 248.498 32.0451C249.357 31.4757 250.009 30.6567 250.456 29.5881C250.903 28.5194 251.126 27.2405 251.126 25.7514C251.126 24.2973 250.907 23.0141 250.469 21.9016C250.031 20.7892 249.383 19.9176 248.525 19.2869C247.666 18.6562 246.606 18.3409 245.345 18.3409C244.031 18.3409 242.936 18.6738 242.06 19.3395C241.193 20.0052 240.541 20.8987 240.103 22.0199C239.673 23.1411 239.459 24.3849 239.459 25.7514C239.459 27.1529 239.678 28.3924 240.116 29.4698C240.562 30.5385 241.219 31.3794 242.087 31.9925C242.963 32.5969 244.049 32.8991 245.345 32.8991ZM268.312 36.4205C266.368 36.4205 264.69 35.9912 263.28 35.1328C261.879 34.2656 260.797 33.0568 260.035 31.5064C259.281 29.9472 258.905 28.134 258.905 26.0668C258.905 23.9995 259.281 22.1776 260.035 20.6009C260.797 19.0154 261.857 17.7803 263.214 16.8956C264.581 16.0021 266.175 15.5554 267.997 15.5554C269.048 15.5554 270.086 15.7306 271.111 16.081C272.136 16.4313 273.069 17.0007 273.91 17.7891C274.751 18.5687 275.421 19.6023 275.92 20.8899C276.419 22.1776 276.669 23.763 276.669 25.6463V26.9602H261.112V24.2798H273.516C273.516 23.1411 273.288 22.125 272.832 21.2315C272.386 20.3381 271.746 19.6329 270.914 19.1161C270.091 18.5993 269.118 18.3409 267.997 18.3409C266.762 18.3409 265.693 18.6475 264.791 19.2607C263.898 19.8651 263.21 20.6534 262.728 21.6257C262.246 22.598 262.006 23.6404 262.006 24.7528V26.5398C262.006 28.0639 262.268 29.3559 262.794 30.4158C263.328 31.467 264.068 32.2685 265.014 32.8203C265.96 33.3634 267.06 33.6349 268.312 33.6349C269.127 33.6349 269.863 33.5211 270.52 33.2933C271.186 33.0568 271.759 32.7064 272.241 32.2422C272.723 31.7692 273.095 31.1823 273.358 30.4815L276.354 31.3224C276.038 32.3385 275.508 33.232 274.764 34.0028C274.019 34.7649 273.099 35.3606 272.005 35.7898C270.91 36.2102 269.679 36.4205 268.312 36.4205Z" fill="white"/>
</svg>
