<svg width="285" height="47" viewBox="0 0 285 47" fill="none" xmlns="http://www.w3.org/2000/svg">
<path d="M1.32411 46.7001L0.00933509 3.94987C0.00419796 3.78284 0.136535 3.64381 0.30362 3.6407L88.3706 2.0055C88.5347 2.00245 88.6708 2.1319 88.676 2.29598L89.9905 43.9561C89.9958 44.1217 89.8656 44.2603 89.7 44.2654L1.63325 46.9907C1.46762 46.9958 1.3292 46.8657 1.32411 46.7001Z" fill="#159BD7"/>
<path d="M8.36222 36H4.94602L14.8267 9.09091H18.1903L28.071 36H24.6548L16.6136 13.348H16.4034L8.36222 36ZM9.62358 25.4886H23.3935V28.3793H9.62358V25.4886ZM34.9428 9.09091V36H31.842V9.09091H34.9428ZM49.3992 15.8182V18.446H38.9404V15.8182H49.3992ZM41.9887 10.983H45.0896V30.2188C45.0896 31.0947 45.2166 31.7517 45.4706 32.1896C45.7334 32.6188 46.0663 32.9079 46.4692 33.0568C46.8809 33.197 47.3145 33.267 47.77 33.267C48.1116 33.267 48.3919 33.2495 48.6109 33.2145C48.8299 33.1707 49.0051 33.1357 49.1365 33.1094L49.7671 35.8949C49.5569 35.9737 49.2635 36.0526 48.8868 36.1314C48.5102 36.219 48.0328 36.2628 47.4546 36.2628C46.5787 36.2628 45.7203 36.0745 44.8794 35.6978C44.0472 35.3211 43.3552 34.7474 42.8034 33.9766C42.2603 33.2057 41.9887 32.2334 41.9887 31.0597V10.983ZM62.3085 36.4205C60.3639 36.4205 58.6865 35.9912 57.2762 35.1328C55.8747 34.2656 54.7929 33.0568 54.0308 31.5064C53.2775 29.9472 52.9008 28.134 52.9008 26.0668C52.9008 23.9995 53.2775 22.1776 54.0308 20.6009C54.7929 19.0154 55.8528 17.7803 57.2105 16.8956C58.577 16.0021 60.1712 15.5554 61.9932 15.5554C63.0443 15.5554 64.0823 15.7306 65.1072 16.081C66.132 16.4313 67.0649 17.0007 67.9058 17.7891C68.7467 18.5687 69.4168 19.6023 69.9161 20.8899C70.4154 22.1776 70.665 23.763 70.665 25.6463V26.9602H55.1082V24.2798H67.5116C67.5116 23.1411 67.2839 22.125 66.8284 21.2315C66.3817 20.3381 65.7422 19.6329 64.9101 19.1161C64.0867 18.5993 63.1144 18.3409 61.9932 18.3409C60.7581 18.3409 59.6894 18.6475 58.7872 19.2607C57.8937 19.8651 57.2061 20.6534 56.7243 21.6257C56.2426 22.598 56.0017 23.6404 56.0017 24.7528V26.5398C56.0017 28.0639 56.2645 29.3559 56.79 30.4158C57.3244 31.467 58.0645 32.2685 59.0106 32.8203C59.9566 33.3634 61.0559 33.6349 62.3085 33.6349C63.1231 33.6349 63.8589 33.5211 64.5159 33.2933C65.1816 33.0568 65.7554 32.7064 66.2371 32.2422C66.7189 31.7692 67.0912 31.1823 67.354 30.4815L70.3497 31.3224C70.0344 32.3385 69.5044 33.232 68.7599 34.0028C68.0153 34.7649 67.0956 35.3606 66.0006 35.7898C64.9057 36.2102 63.675 36.4205 62.3085 36.4205ZM75.382 36V15.8182H78.3778V18.8665H78.588C78.9559 17.8679 79.6216 17.0576 80.5851 16.4357C81.5487 15.8138 82.6349 15.5028 83.8437 15.5028C84.0714 15.5028 84.3561 15.5072 84.6977 15.516C85.0393 15.5247 85.2977 15.5379 85.4729 15.5554V18.7088C85.3678 18.6825 85.1269 18.6431 84.7503 18.5906C84.3824 18.5292 83.9926 18.4986 83.5809 18.4986C82.5998 18.4986 81.7239 18.7044 80.953 19.1161C80.191 19.5191 79.5866 20.0797 79.1398 20.7979C78.7019 21.5075 78.4829 22.3177 78.4829 23.2287V36H75.382ZM105.494 36.473C104.215 36.473 103.054 36.2321 102.012 35.7504C100.97 35.2598 100.142 34.5547 99.5286 33.6349C98.9154 32.7064 98.6088 31.5852 98.6088 30.2713C98.6088 29.1151 98.8366 28.1778 99.2921 27.4595C99.7476 26.7325 100.356 26.1631 101.118 25.7514C101.881 25.3397 102.721 25.0331 103.641 24.8317C104.57 24.6214 105.503 24.455 106.44 24.3324C107.666 24.1747 108.66 24.0565 109.422 23.9776C110.193 23.89 110.754 23.7455 111.104 23.544C111.463 23.3426 111.643 22.9922 111.643 22.4929V22.3878C111.643 21.0914 111.288 20.084 110.579 19.3658C109.878 18.6475 108.814 18.2884 107.386 18.2884C105.905 18.2884 104.745 18.6125 103.904 19.2607C103.063 19.9089 102.472 20.6009 102.13 21.3366L99.187 20.2855C99.7125 19.0592 100.413 18.1044 101.289 17.4212C102.174 16.7292 103.137 16.2474 104.18 15.9759C105.231 15.6955 106.265 15.5554 107.281 15.5554C107.929 15.5554 108.673 15.6342 109.514 15.7919C110.364 15.9408 111.183 16.2518 111.971 16.7248C112.769 17.1978 113.43 17.9117 113.955 18.8665C114.481 19.8213 114.744 21.1001 114.744 22.7031V36H111.643V33.267H111.485C111.275 33.705 110.925 34.1737 110.434 34.6729C109.944 35.1722 109.291 35.5971 108.476 35.9474C107.662 36.2978 106.668 36.473 105.494 36.473ZM105.967 33.6875C107.193 33.6875 108.227 33.4466 109.068 32.9648C109.917 32.4831 110.557 31.8612 110.986 31.0991C111.424 30.337 111.643 29.5355 111.643 28.6946V25.8565C111.512 26.0142 111.222 26.1587 110.776 26.2901C110.338 26.4128 109.83 26.5223 109.252 26.6186C108.682 26.7062 108.126 26.785 107.583 26.8551C107.049 26.9164 106.615 26.969 106.282 27.0128C105.476 27.1179 104.723 27.2887 104.022 27.5252C103.33 27.753 102.77 28.099 102.34 28.5632C101.92 29.0187 101.71 29.6406 101.71 30.429C101.71 31.5064 102.108 32.321 102.905 32.8729C103.711 33.416 104.732 33.6875 105.967 33.6875ZM133.122 27.7486V15.8182H136.223V36H133.122V32.5838H132.912C132.439 33.6087 131.703 34.4802 130.705 35.1985C129.706 35.908 128.445 36.2628 126.921 36.2628C125.659 36.2628 124.538 35.9869 123.557 35.435C122.576 34.8744 121.805 34.0335 121.244 32.9123C120.684 31.7823 120.403 30.3589 120.403 28.642V15.8182H123.504V28.4318C123.504 29.9034 123.916 31.0772 124.739 31.9531C125.572 32.8291 126.631 33.267 127.919 33.267C128.69 33.267 129.474 33.07 130.271 32.6758C131.077 32.2816 131.751 31.6772 132.294 30.8626C132.846 30.0479 133.122 29.0099 133.122 27.7486ZM156.198 20.3381L153.412 21.1264C153.237 20.6622 152.979 20.2111 152.637 19.7731C152.304 19.3263 151.849 18.9585 151.271 18.6694C150.693 18.3803 149.952 18.2358 149.05 18.2358C147.815 18.2358 146.786 18.5205 145.963 19.0898C145.148 19.6504 144.741 20.3643 144.741 21.2315C144.741 22.0024 145.021 22.6111 145.581 23.0579C146.142 23.5046 147.018 23.8769 148.209 24.1747L151.205 24.9105C153.01 25.3485 154.354 26.0186 155.239 26.9208C156.124 27.8143 156.566 28.9661 156.566 30.3764C156.566 31.5327 156.233 32.5663 155.567 33.4773C154.91 34.3883 153.991 35.1065 152.808 35.6321C151.626 36.1577 150.25 36.4205 148.682 36.4205C146.624 36.4205 144.92 35.9737 143.571 35.0803C142.222 34.1868 141.368 32.8816 141.009 31.1648L143.952 30.429C144.233 31.5152 144.762 32.3298 145.542 32.8729C146.33 33.416 147.36 33.6875 148.63 33.6875C150.075 33.6875 151.223 33.3809 152.072 32.7678C152.931 32.1458 153.36 31.4013 153.36 30.5341C153.36 29.8333 153.115 29.2464 152.624 28.7734C152.134 28.2917 151.38 27.9325 150.364 27.696L147.001 26.9077C145.152 26.4697 143.795 25.7908 142.927 24.8711C142.069 23.9426 141.64 22.782 141.64 21.3892C141.64 20.2505 141.959 19.2431 142.599 18.3672C143.247 17.4912 144.127 16.8036 145.24 16.3043C146.361 15.805 147.631 15.5554 149.05 15.5554C151.047 15.5554 152.615 15.9934 153.754 16.8693C154.902 17.7453 155.716 18.9015 156.198 20.3381ZM165.806 36L159.657 15.8182H162.915L167.278 31.2699H167.488L171.797 15.8182H175.109L179.366 31.2173H179.576L183.938 15.8182H187.197L181.047 36H177.999L173.584 20.4957H173.269L168.854 36H165.806ZM197.235 36.473C195.956 36.473 194.795 36.2321 193.753 35.7504C192.711 35.2598 191.883 34.5547 191.27 33.6349C190.657 32.7064 190.35 31.5852 190.35 30.2713C190.35 29.1151 190.578 28.1778 191.033 27.4595C191.489 26.7325 192.098 26.1631 192.86 25.7514C193.622 25.3397 194.463 25.0331 195.382 24.8317C196.311 24.6214 197.244 24.455 198.181 24.3324C199.407 24.1747 200.402 24.0565 201.164 23.9776C201.934 23.89 202.495 23.7455 202.845 23.544C203.205 23.3426 203.384 22.9922 203.384 22.4929V22.3878C203.384 21.0914 203.029 20.084 202.32 19.3658C201.619 18.6475 200.555 18.2884 199.127 18.2884C197.647 18.2884 196.486 18.6125 195.645 19.2607C194.804 19.9089 194.213 20.6009 193.871 21.3366L190.928 20.2855C191.454 19.0592 192.155 18.1044 193.03 17.4212C193.915 16.7292 194.879 16.2474 195.921 15.9759C196.972 15.6955 198.006 15.5554 199.022 15.5554C199.67 15.5554 200.415 15.6342 201.256 15.7919C202.105 15.9408 202.924 16.2518 203.713 16.7248C204.51 17.1978 205.171 17.9117 205.697 18.8665C206.222 19.8213 206.485 21.1001 206.485 22.7031V36H203.384V33.267H203.226C203.016 33.705 202.666 34.1737 202.175 34.6729C201.685 35.1722 201.032 35.5971 200.218 35.9474C199.403 36.2978 198.409 36.473 197.235 36.473ZM197.708 33.6875C198.934 33.6875 199.968 33.4466 200.809 32.9648C201.659 32.4831 202.298 31.8612 202.727 31.0991C203.165 30.337 203.384 29.5355 203.384 28.6946V25.8565C203.253 26.0142 202.964 26.1587 202.517 26.2901C202.079 26.4128 201.571 26.5223 200.993 26.6186C200.423 26.7062 199.867 26.785 199.324 26.8551C198.79 26.9164 198.356 26.969 198.023 27.0128C197.217 27.1179 196.464 27.2887 195.763 27.5252C195.071 27.753 194.511 28.099 194.082 28.5632C193.661 29.0187 193.451 29.6406 193.451 30.429C193.451 31.5064 193.849 32.321 194.647 32.8729C195.452 33.416 196.473 33.6875 197.708 33.6875ZM195.448 12.4545C194.896 12.4545 194.406 12.2443 193.976 11.8239C193.556 11.3946 193.346 10.9041 193.346 10.3523C193.346 9.74787 193.556 9.24858 193.976 8.8544C194.406 8.45147 194.896 8.25 195.448 8.25C196.052 8.25 196.552 8.45147 196.946 8.8544C197.349 9.24858 197.55 9.74787 197.55 10.3523C197.55 10.9041 197.349 11.3946 196.946 11.8239C196.552 12.2443 196.052 12.4545 195.448 12.4545ZM203.016 12.4545C202.464 12.4545 201.974 12.2443 201.545 11.8239C201.124 11.3946 200.914 10.9041 200.914 10.3523C200.914 9.74787 201.124 9.24858 201.545 8.8544C201.974 8.45147 202.464 8.25 203.016 8.25C203.621 8.25 204.12 8.45147 204.514 8.8544C204.917 9.24858 205.119 9.74787 205.119 10.3523C205.119 10.9041 204.917 11.3946 204.514 11.8239C204.12 12.2443 203.621 12.4545 203.016 12.4545ZM215.246 23.8594V36H212.145V9.09091H215.246V18.9716H215.508C215.981 17.9292 216.691 17.1014 217.637 16.4883C218.592 15.8664 219.862 15.5554 221.447 15.5554C222.823 15.5554 224.027 15.8313 225.061 16.3832C226.094 16.9263 226.896 17.7628 227.465 18.8928C228.043 20.014 228.332 21.4418 228.332 23.1761V36H225.231V23.3864C225.231 21.7834 224.815 20.5439 223.983 19.668C223.16 18.7833 222.017 18.3409 220.554 18.3409C219.538 18.3409 218.627 18.5555 217.821 18.9847C217.024 19.4139 216.393 20.0402 215.929 20.8636C215.473 21.687 215.246 22.6856 215.246 23.8594ZM237.106 9.09091V36H234.005V9.09091H237.106ZM251.247 36.4205C249.302 36.4205 247.625 35.9912 246.215 35.1328C244.813 34.2656 243.731 33.0568 242.969 31.5064C242.216 29.9472 241.839 28.134 241.839 26.0668C241.839 23.9995 242.216 22.1776 242.969 20.6009C243.731 19.0154 244.791 17.7803 246.149 16.8956C247.515 16.0021 249.11 15.5554 250.932 15.5554C251.983 15.5554 253.021 15.7306 254.046 16.081C255.07 16.4313 256.003 17.0007 256.844 17.7891C257.685 18.5687 258.355 19.6023 258.855 20.8899C259.354 22.1776 259.604 23.763 259.604 25.6463V26.9602H244.047V24.2798H256.45C256.45 23.1411 256.222 22.125 255.767 21.2315C255.32 20.3381 254.681 19.6329 253.849 19.1161C253.025 18.5993 252.053 18.3409 250.932 18.3409C249.697 18.3409 248.628 18.6475 247.726 19.2607C246.832 19.8651 246.145 20.6534 245.663 21.6257C245.181 22.598 244.94 23.6404 244.94 24.7528V26.5398C244.94 28.0639 245.203 29.3559 245.729 30.4158C246.263 31.467 247.003 32.2685 247.949 32.8203C248.895 33.3634 249.994 33.6349 251.247 33.6349C252.062 33.6349 252.797 33.5211 253.454 33.2933C254.12 33.0568 254.694 32.7064 255.176 32.2422C255.657 31.7692 256.03 31.1823 256.292 30.4815L259.288 31.3224C258.973 32.3385 258.443 33.232 257.698 34.0028C256.954 34.7649 256.034 35.3606 254.939 35.7898C253.844 36.2102 252.613 36.4205 251.247 36.4205ZM267.421 23.8594V36H264.32V15.8182H267.316V18.9716H267.579C268.052 17.9467 268.77 17.1233 269.734 16.5014C270.697 15.8707 271.941 15.5554 273.465 15.5554C274.832 15.5554 276.028 15.8357 277.052 16.3963C278.077 16.9482 278.874 17.7891 279.444 18.919C280.013 20.0402 280.298 21.4593 280.298 23.1761V36H277.197V23.3864C277.197 21.8009 276.785 20.5658 275.962 19.6811C275.138 18.7876 274.008 18.3409 272.572 18.3409C271.582 18.3409 270.697 18.5555 269.918 18.9847C269.147 19.4139 268.538 20.0402 268.091 20.8636C267.645 21.687 267.421 22.6856 267.421 23.8594Z" fill="white"/>
</svg>
