<svg width="421" height="54" viewBox="0 0 421 54" fill="none" xmlns="http://www.w3.org/2000/svg">
<g filter="url(#filter0_d_121_11)">
<path d="M7.09086 45.7177L4.02289 2.96526C4.01049 2.79251 4.14653 2.64518 4.31972 2.6438L210.608 1.00224C210.766 1.00098 210.898 1.12257 210.91 1.2802L213.977 42.9383C213.989 43.1106 213.854 43.258 213.681 43.2603L7.39407 45.9963C7.23519 45.9984 7.10223 45.8762 7.09086 45.7177Z" fill="#159BD7"/>
<path d="M33.6534 17.5C33.3643 16.6153 32.9833 15.8226 32.5103 15.1218C32.046 14.4123 31.4898 13.8079 30.8416 13.3086C30.2022 12.8093 29.4751 12.4283 28.6605 12.1655C27.8459 11.9027 26.9524 11.7713 25.9801 11.7713C24.3859 11.7713 22.9362 12.183 21.631 13.0064C20.3259 13.8298 19.2879 15.043 18.517 16.646C17.7462 18.2489 17.3608 20.2154 17.3608 22.5455C17.3608 24.8755 17.7506 26.842 18.5302 28.445C19.3098 30.0479 20.3653 31.2611 21.6967 32.0845C23.0282 32.9079 24.526 33.3196 26.1903 33.3196C27.732 33.3196 29.0897 32.9911 30.2635 32.3342C31.446 31.6684 32.3658 30.7312 33.0227 29.5224C33.6884 28.3048 34.0213 26.8726 34.0213 25.2259L35.0199 25.4361H26.9261V22.5455H37.1747V25.4361C37.1747 27.6522 36.7017 29.5793 35.7557 31.2173C34.8184 32.8554 33.522 34.1255 31.8665 35.0277C30.2197 35.9212 28.3277 36.3679 26.1903 36.3679C23.8078 36.3679 21.7143 35.8073 19.9098 34.6861C18.1141 33.5649 16.7126 31.9706 15.7053 29.9034C14.7067 27.8362 14.2074 25.3835 14.2074 22.5455C14.2074 20.4169 14.4921 18.503 15.0614 16.8036C15.6396 15.0955 16.4542 13.6415 17.5053 12.4414C18.5565 11.2414 19.8003 10.3216 21.2369 9.68217C22.6734 9.04273 24.2545 8.72301 25.9801 8.72301C27.3991 8.72301 28.7218 8.93762 29.9482 9.36683C31.1832 9.78729 32.2826 10.3873 33.2461 11.1669C34.2184 11.9377 35.0286 12.8619 35.6768 13.9393C36.325 15.0079 36.7718 16.1948 37.017 17.5H33.6534ZM50.7968 36.4205C48.8522 36.4205 47.1747 35.9912 45.7645 35.1328C44.363 34.2656 43.2812 33.0568 42.5191 31.5064C41.7658 29.9472 41.3891 28.134 41.3891 26.0668C41.3891 23.9995 41.7658 22.1776 42.5191 20.6009C43.2812 19.0154 44.3411 17.7803 45.6988 16.8956C47.0653 16.0021 48.6595 15.5554 50.4814 15.5554C51.5326 15.5554 52.5706 15.7306 53.5954 16.081C54.6203 16.4313 55.5532 17.0007 56.3941 17.7891C57.235 18.5687 57.9051 19.6023 58.4044 20.8899C58.9037 22.1776 59.1533 23.763 59.1533 25.6463V26.9602H43.5965V24.2798H55.9999C55.9999 23.1411 55.7722 22.125 55.3167 21.2315C54.8699 20.3381 54.2305 19.6329 53.3983 19.1161C52.575 18.5993 51.6027 18.3409 50.4814 18.3409C49.2464 18.3409 48.1777 18.6475 47.2755 19.2607C46.382 19.8651 45.6944 20.6534 45.2126 21.6257C44.7309 22.598 44.49 23.6404 44.49 24.7528V26.5398C44.49 28.0639 44.7528 29.3559 45.2783 30.4158C45.8126 31.467 46.5528 32.2685 47.4988 32.8203C48.4449 33.3634 49.5442 33.6349 50.7968 33.6349C51.6114 33.6349 52.3472 33.5211 53.0042 33.2933C53.6699 33.0568 54.2436 32.7064 54.7254 32.2422C55.2072 31.7692 55.5795 31.1823 55.8422 30.4815L58.838 31.3224C58.5226 32.3385 57.9927 33.232 57.2481 34.0028C56.5036 34.7649 55.5838 35.3606 54.4889 35.7898C53.394 36.2102 52.1633 36.4205 50.7968 36.4205ZM78.1657 20.3381L75.3802 21.1264C75.205 20.6622 74.9466 20.2111 74.605 19.7731C74.2722 19.3263 73.8167 18.9585 73.2385 18.6694C72.6604 18.3803 71.9202 18.2358 71.018 18.2358C69.7829 18.2358 68.7537 18.5205 67.9303 19.0898C67.1157 19.6504 66.7084 20.3643 66.7084 21.2315C66.7084 22.0024 66.9887 22.6111 67.5493 23.0579C68.1099 23.5046 68.9858 23.8769 70.1771 24.1747L73.1729 24.9105C74.9773 25.3485 76.3219 26.0186 77.2066 26.9208C78.0913 27.8143 78.5336 28.9661 78.5336 30.3764C78.5336 31.5327 78.2008 32.5663 77.5351 33.4773C76.8781 34.3883 75.9584 35.1065 74.7758 35.6321C73.5933 36.1577 72.2181 36.4205 70.6501 36.4205C68.5916 36.4205 66.8879 35.9737 65.539 35.0803C64.19 34.1868 63.336 32.8816 62.9768 31.1648L65.92 30.429C66.2003 31.5152 66.7303 32.3298 67.5099 32.8729C68.2982 33.416 69.3274 33.6875 70.5976 33.6875C72.0429 33.6875 73.1904 33.3809 74.04 32.7678C74.8985 32.1458 75.3277 31.4013 75.3277 30.5341C75.3277 29.8333 75.0824 29.2464 74.5919 28.7734C74.1014 28.2917 73.348 27.9325 72.3319 27.696L68.9683 26.9077C67.1201 26.4697 65.7623 25.7908 64.8952 24.8711C64.0367 23.9426 63.6075 22.782 63.6075 21.3892C63.6075 20.2505 63.9272 19.2431 64.5667 18.3672C65.2149 17.4912 66.0952 16.8036 67.2077 16.3043C68.3289 15.805 69.599 15.5554 71.018 15.5554C73.0152 15.5554 74.5831 15.9934 75.7219 16.8693C76.8693 17.7453 77.684 18.9015 78.1657 20.3381ZM91.4002 36.4205C89.5082 36.4205 87.8789 35.9737 86.5124 35.0803C85.146 34.1868 84.0948 32.9561 83.359 31.3881C82.6232 29.8202 82.2553 28.0289 82.2553 26.0142C82.2553 23.9645 82.632 22.1557 83.3853 20.5877C84.1474 19.011 85.2073 17.7803 86.565 16.8956C87.9315 16.0021 89.5257 15.5554 91.3477 15.5554C92.7667 15.5554 94.0456 15.8182 95.1843 16.3438C96.323 16.8693 97.2559 17.6051 97.983 18.5511C98.71 19.4972 99.1611 20.6009 99.3363 21.8622H96.2354C95.9989 20.9425 95.4734 20.1278 94.6587 19.4183C93.8529 18.7 92.7667 18.3409 91.4002 18.3409C90.1914 18.3409 89.1315 18.6562 88.2205 19.2869C87.3183 19.9089 86.6132 20.7892 86.1051 21.9279C85.6058 23.0579 85.3562 24.3849 85.3562 25.9091C85.3562 27.4683 85.6014 28.826 86.092 29.9822C86.5913 31.1385 87.292 32.0363 88.1942 32.6758C89.1052 33.3152 90.1739 33.6349 91.4002 33.6349C92.2061 33.6349 92.9375 33.4948 93.5945 33.2145C94.2514 32.9342 94.8076 32.5312 95.2631 32.0057C95.7186 31.4801 96.0427 30.8494 96.2354 30.1136H99.3363C99.1611 31.3049 98.7275 32.378 98.0355 33.3327C97.3523 34.2788 96.4457 35.0321 95.3157 35.5927C94.1945 36.1445 92.8893 36.4205 91.4002 36.4205ZM106.97 23.8594V36H103.869V9.09091H106.97V18.9716H107.233C107.706 17.9292 108.415 17.1014 109.362 16.4883C110.316 15.8664 111.586 15.5554 113.172 15.5554C114.547 15.5554 115.752 15.8313 116.785 16.3832C117.819 16.9263 118.62 17.7628 119.19 18.8928C119.768 20.014 120.057 21.4418 120.057 23.1761V36H116.956V23.3864C116.956 21.7834 116.54 20.5439 115.708 19.668C114.884 18.7833 113.741 18.3409 112.278 18.3409C111.262 18.3409 110.351 18.5555 109.545 18.9847C108.748 19.4139 108.118 20.0402 107.653 20.8636C107.198 21.687 106.97 22.6856 106.97 23.8594ZM128.831 9.09091V36H125.73V9.09091H128.831ZM142.972 36.4205C141.027 36.4205 139.35 35.9912 137.939 35.1328C136.538 34.2656 135.456 33.0568 134.694 31.5064C133.941 29.9472 133.564 28.134 133.564 26.0668C133.564 23.9995 133.941 22.1776 134.694 20.6009C135.456 19.0154 136.516 17.7803 137.874 16.8956C139.24 16.0021 140.834 15.5554 142.656 15.5554C143.707 15.5554 144.745 15.7306 145.77 16.081C146.795 16.4313 147.728 17.0007 148.569 17.7891C149.41 18.5687 150.08 19.6023 150.579 20.8899C151.078 22.1776 151.328 23.763 151.328 25.6463V26.9602H135.771V24.2798H148.175C148.175 23.1411 147.947 22.125 147.491 21.2315C147.045 20.3381 146.405 19.6329 145.573 19.1161C144.75 18.5993 143.777 18.3409 142.656 18.3409C141.421 18.3409 140.353 18.6475 139.45 19.2607C138.557 19.8651 137.869 20.6534 137.387 21.6257C136.906 22.598 136.665 23.6404 136.665 24.7528V26.5398C136.665 28.0639 136.928 29.3559 137.453 30.4158C137.987 31.467 138.728 32.2685 139.674 32.8203C140.62 33.3634 141.719 33.6349 142.972 33.6349C143.786 33.6349 144.522 33.5211 145.179 33.2933C145.845 33.0568 146.418 32.7064 146.9 32.2422C147.382 31.7692 147.754 31.1823 148.017 30.4815L151.013 31.3224C150.697 32.3385 150.167 33.232 149.423 34.0028C148.678 34.7649 147.759 35.3606 146.664 35.7898C145.569 36.2102 144.338 36.4205 142.972 36.4205ZM164.244 36.4205C162.352 36.4205 160.723 35.9737 159.356 35.0803C157.99 34.1868 156.939 32.9561 156.203 31.3881C155.467 29.8202 155.099 28.0289 155.099 26.0142C155.099 23.9645 155.476 22.1557 156.229 20.5877C156.991 19.011 158.051 17.7803 159.409 16.8956C160.775 16.0021 162.369 15.5554 164.191 15.5554C165.61 15.5554 166.889 15.8182 168.028 16.3438C169.167 16.8693 170.1 17.6051 170.827 18.5511C171.554 19.4972 172.005 20.6009 172.18 21.8622H169.079C168.843 20.9425 168.317 20.1278 167.502 19.4183C166.697 18.7 165.61 18.3409 164.244 18.3409C163.035 18.3409 161.975 18.6562 161.064 19.2869C160.162 19.9089 159.457 20.7892 158.949 21.9279C158.45 23.0579 158.2 24.3849 158.2 25.9091C158.2 27.4683 158.445 28.826 158.936 29.9822C159.435 31.1385 160.136 32.0363 161.038 32.6758C161.949 33.3152 163.018 33.6349 164.244 33.6349C165.05 33.6349 165.781 33.4948 166.438 33.2145C167.095 32.9342 167.651 32.5312 168.107 32.0057C168.562 31.4801 168.886 30.8494 169.079 30.1136H172.18C172.005 31.3049 171.571 32.378 170.879 33.3327C170.196 34.2788 169.289 35.0321 168.159 35.5927C167.038 36.1445 165.733 36.4205 164.244 36.4205ZM179.814 23.8594V36H176.713V9.09091H179.814V18.9716H180.077C180.55 17.9292 181.259 17.1014 182.205 16.4883C183.16 15.8664 184.43 15.5554 186.016 15.5554C187.391 15.5554 188.595 15.8313 189.629 16.3832C190.663 16.9263 191.464 17.7628 192.033 18.8928C192.612 20.014 192.901 21.4418 192.901 23.1761V36H189.8V23.3864C189.8 21.7834 189.384 20.5439 188.551 19.668C187.728 18.7833 186.585 18.3409 185.122 18.3409C184.106 18.3409 183.195 18.5555 182.389 18.9847C181.592 19.4139 180.961 20.0402 180.497 20.8636C180.042 21.687 179.814 22.6856 179.814 23.8594ZM207.35 15.8182V18.446H196.892V15.8182H207.35ZM199.94 10.983H203.041V30.2188C203.041 31.0947 203.168 31.7517 203.422 32.1896C203.685 32.6188 204.017 32.9079 204.42 33.0568C204.832 33.197 205.266 33.267 205.721 33.267C206.063 33.267 206.343 33.2495 206.562 33.2145C206.781 33.1707 206.956 33.1357 207.088 33.1094L207.718 35.8949C207.508 35.9737 207.215 36.0526 206.838 36.1314C206.461 36.219 205.984 36.2628 205.406 36.2628C204.53 36.2628 203.671 36.0745 202.831 35.6978C201.998 35.3211 201.306 34.7474 200.755 33.9766C200.211 33.2057 199.94 32.2334 199.94 31.0597V10.983ZM228.36 36.473C227.081 36.473 225.92 36.2321 224.878 35.7504C223.836 35.2598 223.008 34.5547 222.395 33.6349C221.782 32.7064 221.475 31.5852 221.475 30.2713C221.475 29.1151 221.703 28.1778 222.158 27.4595C222.614 26.7325 223.223 26.1631 223.985 25.7514C224.747 25.3397 225.588 25.0331 226.507 24.8317C227.436 24.6214 228.369 24.455 229.306 24.3324C230.532 24.1747 231.527 24.0565 232.289 23.9776C233.059 23.89 233.62 23.7455 233.97 23.544C234.33 23.3426 234.509 22.9922 234.509 22.4929V22.3878C234.509 21.0914 234.154 20.084 233.445 19.3658C232.744 18.6475 231.68 18.2884 230.252 18.2884C228.772 18.2884 227.611 18.6125 226.77 19.2607C225.929 19.9089 225.338 20.6009 224.996 21.3366L222.053 20.2855C222.579 19.0592 223.28 18.1044 224.155 17.4212C225.04 16.7292 226.004 16.2474 227.046 15.9759C228.097 15.6955 229.131 15.5554 230.147 15.5554C230.795 15.5554 231.54 15.6342 232.381 15.7919C233.23 15.9408 234.049 16.2518 234.838 16.7248C235.635 17.1978 236.296 17.9117 236.822 18.8665C237.347 19.8213 237.61 21.1001 237.61 22.7031V36H234.509V33.267H234.351C234.141 33.705 233.791 34.1737 233.3 34.6729C232.81 35.1722 232.157 35.5971 231.343 35.9474C230.528 36.2978 229.534 36.473 228.36 36.473ZM228.833 33.6875C230.059 33.6875 231.093 33.4466 231.934 32.9648C232.784 32.4831 233.423 31.8612 233.852 31.0991C234.29 30.337 234.509 29.5355 234.509 28.6946V25.8565C234.378 26.0142 234.089 26.1587 233.642 26.2901C233.204 26.4128 232.696 26.5223 232.118 26.6186C231.548 26.7062 230.992 26.785 230.449 26.8551C229.915 26.9164 229.481 26.969 229.148 27.0128C228.342 27.1179 227.589 27.2887 226.888 27.5252C226.196 27.753 225.636 28.099 225.207 28.5632C224.786 29.0187 224.576 29.6406 224.576 30.429C224.576 31.5064 224.974 32.321 225.772 32.8729C226.577 33.416 227.598 33.6875 228.833 33.6875ZM255.988 27.7486V15.8182H259.089V36H255.988V32.5838H255.778C255.305 33.6087 254.569 34.4802 253.571 35.1985C252.572 35.908 251.311 36.2628 249.787 36.2628C248.525 36.2628 247.404 35.9869 246.423 35.435C245.442 34.8744 244.671 34.0335 244.111 32.9123C243.55 31.7823 243.27 30.3589 243.27 28.642V15.8182H246.371V28.4318C246.371 29.9034 246.782 31.0772 247.606 31.9531C248.438 32.8291 249.498 33.267 250.785 33.267C251.556 33.267 252.34 33.07 253.137 32.6758C253.943 32.2816 254.618 31.6772 255.161 30.8626C255.713 30.0479 255.988 29.0099 255.988 27.7486ZM279.064 20.3381L276.279 21.1264C276.103 20.6622 275.845 20.2111 275.503 19.7731C275.171 19.3263 274.715 18.9585 274.137 18.6694C273.559 18.3803 272.819 18.2358 271.916 18.2358C270.681 18.2358 269.652 18.5205 268.829 19.0898C268.014 19.6504 267.607 20.3643 267.607 21.2315C267.607 22.0024 267.887 22.6111 268.448 23.0579C269.008 23.5046 269.884 23.8769 271.076 24.1747L274.071 24.9105C275.876 25.3485 277.22 26.0186 278.105 26.9208C278.99 27.8143 279.432 28.9661 279.432 30.3764C279.432 31.5327 279.099 32.5663 278.434 33.4773C277.777 34.3883 276.857 35.1065 275.674 35.6321C274.492 36.1577 273.117 36.4205 271.549 36.4205C269.49 36.4205 267.786 35.9737 266.437 35.0803C265.088 34.1868 264.234 32.8816 263.875 31.1648L266.818 30.429C267.099 31.5152 267.629 32.3298 268.408 32.8729C269.197 33.416 270.226 33.6875 271.496 33.6875C272.941 33.6875 274.089 33.3809 274.938 32.7678C275.797 32.1458 276.226 31.4013 276.226 30.5341C276.226 29.8333 275.981 29.2464 275.49 28.7734C275 28.2917 274.246 27.9325 273.23 27.696L269.867 26.9077C268.018 26.4697 266.661 25.7908 265.794 24.8711C264.935 23.9426 264.506 22.782 264.506 21.3892C264.506 20.2505 264.826 19.2431 265.465 18.3672C266.113 17.4912 266.994 16.8036 268.106 16.3043C269.227 15.805 270.497 15.5554 271.916 15.5554C273.914 15.5554 275.482 15.9934 276.62 16.8693C277.768 17.7453 278.582 18.9015 279.064 20.3381ZM288.672 36L282.523 15.8182H285.782L290.144 31.2699H290.354L294.664 15.8182H297.975L302.232 31.2173H302.442L306.804 15.8182H310.063L303.914 36H300.865L296.451 20.4957H296.135L291.721 36H288.672ZM320.101 36.473C318.822 36.473 317.662 36.2321 316.619 35.7504C315.577 35.2598 314.749 34.5547 314.136 33.6349C313.523 32.7064 313.216 31.5852 313.216 30.2713C313.216 29.1151 313.444 28.1778 313.9 27.4595C314.355 26.7325 314.964 26.1631 315.726 25.7514C316.488 25.3397 317.329 25.0331 318.249 24.8317C319.177 24.6214 320.11 24.455 321.047 24.3324C322.274 24.1747 323.268 24.0565 324.03 23.9776C324.801 23.89 325.361 23.7455 325.712 23.544C326.071 23.3426 326.25 22.9922 326.25 22.4929V22.3878C326.25 21.0914 325.896 20.084 325.186 19.3658C324.485 18.6475 323.421 18.2884 321.993 18.2884C320.513 18.2884 319.352 18.6125 318.511 19.2607C317.67 19.9089 317.079 20.6009 316.738 21.3366L313.794 20.2855C314.32 19.0592 315.021 18.1044 315.897 17.4212C316.781 16.7292 317.745 16.2474 318.787 15.9759C319.838 15.6955 320.872 15.5554 321.888 15.5554C322.536 15.5554 323.281 15.6342 324.122 15.7919C324.971 15.9408 325.79 16.2518 326.579 16.7248C327.376 17.1978 328.037 17.9117 328.563 18.8665C329.088 19.8213 329.351 21.1001 329.351 22.7031V36H326.25V33.267H326.093C325.882 33.705 325.532 34.1737 325.042 34.6729C324.551 35.1722 323.898 35.5971 323.084 35.9474C322.269 36.2978 321.275 36.473 320.101 36.473ZM320.574 33.6875C321.801 33.6875 322.834 33.4466 323.675 32.9648C324.525 32.4831 325.164 31.8612 325.593 31.0991C326.031 30.337 326.25 29.5355 326.25 28.6946V25.8565C326.119 26.0142 325.83 26.1587 325.383 26.2901C324.945 26.4128 324.437 26.5223 323.859 26.6186C323.29 26.7062 322.733 26.785 322.19 26.8551C321.656 26.9164 321.222 26.969 320.89 27.0128C320.084 27.1179 319.33 27.2887 318.63 27.5252C317.938 27.753 317.377 28.099 316.948 28.5632C316.527 29.0187 316.317 29.6406 316.317 30.429C316.317 31.5064 316.716 32.321 317.513 32.8729C318.319 33.416 319.339 33.6875 320.574 33.6875ZM318.314 12.4545C317.762 12.4545 317.272 12.2443 316.843 11.8239C316.422 11.3946 316.212 10.9041 316.212 10.3523C316.212 9.74787 316.422 9.24858 316.843 8.8544C317.272 8.45147 317.762 8.25 318.314 8.25C318.919 8.25 319.418 8.45147 319.812 8.8544C320.215 9.24858 320.417 9.74787 320.417 10.3523C320.417 10.9041 320.215 11.3946 319.812 11.8239C319.418 12.2443 318.919 12.4545 318.314 12.4545ZM325.882 12.4545C325.331 12.4545 324.84 12.2443 324.411 11.8239C323.99 11.3946 323.78 10.9041 323.78 10.3523C323.78 9.74787 323.99 9.24858 324.411 8.8544C324.84 8.45147 325.331 8.25 325.882 8.25C326.487 8.25 326.986 8.45147 327.38 8.8544C327.783 9.24858 327.985 9.74787 327.985 10.3523C327.985 10.9041 327.783 11.3946 327.38 11.8239C326.986 12.2443 326.487 12.4545 325.882 12.4545ZM338.112 23.8594V36H335.011V9.09091H338.112V18.9716H338.375C338.848 17.9292 339.557 17.1014 340.503 16.4883C341.458 15.8664 342.728 15.5554 344.313 15.5554C345.689 15.5554 346.893 15.8313 347.927 16.3832C348.96 16.9263 349.762 17.7628 350.331 18.8928C350.909 20.014 351.198 21.4418 351.198 23.1761V36H348.098V23.3864C348.098 21.7834 347.681 20.5439 346.849 19.668C346.026 18.7833 344.883 18.3409 343.42 18.3409C342.404 18.3409 341.493 18.5555 340.687 18.9847C339.89 19.4139 339.259 20.0402 338.795 20.8636C338.34 21.687 338.112 22.6856 338.112 23.8594ZM359.972 9.09091V36H356.871V9.09091H359.972ZM374.113 36.4205C372.169 36.4205 370.491 35.9912 369.081 35.1328C367.679 34.2656 366.598 33.0568 365.835 31.5064C365.082 29.9472 364.706 28.134 364.706 26.0668C364.706 23.9995 365.082 22.1776 365.835 20.6009C366.598 19.0154 367.657 17.7803 369.015 16.8956C370.382 16.0021 371.976 15.5554 373.798 15.5554C374.849 15.5554 375.887 15.7306 376.912 16.081C377.937 16.4313 378.87 17.0007 379.71 17.7891C380.551 18.5687 381.222 19.6023 381.721 20.8899C382.22 22.1776 382.47 23.763 382.47 25.6463V26.9602H366.913V24.2798H379.316C379.316 23.1411 379.089 22.125 378.633 21.2315C378.186 20.3381 377.547 19.6329 376.715 19.1161C375.891 18.5993 374.919 18.3409 373.798 18.3409C372.563 18.3409 371.494 18.6475 370.592 19.2607C369.698 19.8651 369.011 20.6534 368.529 21.6257C368.047 22.598 367.806 23.6404 367.806 24.7528V26.5398C367.806 28.0639 368.069 29.3559 368.595 30.4158C369.129 31.467 369.869 32.2685 370.815 32.8203C371.761 33.3634 372.861 33.6349 374.113 33.6349C374.928 33.6349 375.664 33.5211 376.321 33.2933C376.986 33.0568 377.56 32.7064 378.042 32.2422C378.524 31.7692 378.896 31.1823 379.159 30.4815L382.154 31.3224C381.839 32.3385 381.309 33.232 380.565 34.0028C379.82 34.7649 378.9 35.3606 377.805 35.7898C376.71 36.2102 375.48 36.4205 374.113 36.4205ZM390.288 23.8594V36H387.187V15.8182H390.182V18.9716H390.445C390.918 17.9467 391.637 17.1233 392.6 16.5014C393.564 15.8707 394.807 15.5554 396.332 15.5554C397.698 15.5554 398.894 15.8357 399.919 16.3963C400.943 16.9482 401.741 17.7891 402.31 18.919C402.879 20.0402 403.164 21.4593 403.164 23.1761V36H400.063V23.3864C400.063 21.8009 399.651 20.5658 398.828 19.6811C398.005 18.7876 396.875 18.3409 395.438 18.3409C394.448 18.3409 393.564 18.5555 392.784 18.9847C392.013 19.4139 391.404 20.0402 390.958 20.8636C390.511 21.687 390.288 22.6856 390.288 23.8594Z" fill="white"/>
</g>
<defs>
<filter id="filter0_d_121_11" x="0.0224609" y="1.00244" width="407.142" height="52.9937" filterUnits="userSpaceOnUse" color-interpolation-filters="sRGB">
<feFlood flood-opacity="0" result="BackgroundImageFix"/>
<feColorMatrix in="SourceAlpha" type="matrix" values="0 0 0 0 0 0 0 0 0 0 0 0 0 0 0 0 0 0 127 0" result="hardAlpha"/>
<feOffset dy="4"/>
<feGaussianBlur stdDeviation="2"/>
<feComposite in2="hardAlpha" operator="out"/>
<feColorMatrix type="matrix" values="0 0 0 0 0 0 0 0 0 0 0 0 0 0 0 0 0 0 0.25 0"/>
<feBlend mode="normal" in2="BackgroundImageFix" result="effect1_dropShadow_121_11"/>
<feBlend mode="normal" in="SourceGraphic" in2="effect1_dropShadow_121_11" result="shape"/>
</filter>
</defs>
</svg>
