<svg xmlns="http://www.w3.org/2000/svg" width="10.826" height="24.058" viewBox="0 0 10.826 24.058">
  <path id="woman_FILL0_wght400_GRAD0_opsz48" d="M303.609-855.942v-6.616H300l3.067-9.864a2.046,2.046,0,0,1,.9-1.158,2.708,2.708,0,0,1,1.443-.406,2.708,2.708,0,0,1,1.443.406,2.046,2.046,0,0,1,.9,1.158l3.067,9.864h-3.609v6.616Zm1.807-19.667a2.12,2.12,0,0,1-1.551-.644,2.108,2.108,0,0,1-.647-1.549,2.119,2.119,0,0,1,.644-1.551,2.108,2.108,0,0,1,1.549-.647,2.12,2.12,0,0,1,1.551.644,2.108,2.108,0,0,1,.647,1.549,2.12,2.12,0,0,1-.644,1.551A2.108,2.108,0,0,1,305.415-875.609Z" transform="translate(-300 880)" fill="#fff"/>
</svg>
