<svg width="282" height="94" viewBox="0 0 282 94" fill="none" xmlns="http://www.w3.org/2000/svg">
<path d="M4.15138 93.7261L0.0314945 50.9732C0.0145791 50.7976 0.151981 50.6454 0.328325 50.6444L277.549 49.0016C277.704 49.0007 277.834 49.1179 277.849 49.2721L281.968 90.9298C281.985 91.1052 281.848 91.2576 281.672 91.2593L4.45296 93.9973C4.29729 93.9988 4.16631 93.881 4.15138 93.7261Z" fill="#159BD7"/>
<path d="M15.2585 36V9.09091H31.4986V11.9815H18.517V21.0739H30.6577V23.9645H18.517V33.1094H31.7088V36H15.2585ZM40.0522 23.8594V36H36.9513V15.8182H39.9471V18.9716H40.2099C40.6829 17.9467 41.4012 17.1233 42.3647 16.5014C43.3282 15.8707 44.5721 15.5554 46.0962 15.5554C47.4627 15.5554 48.6584 15.8357 49.6832 16.3963C50.7081 16.9482 51.5052 17.7891 52.0746 18.919C52.6439 20.0402 52.9286 21.4593 52.9286 23.1761V36H49.8278V23.3864C49.8278 21.8009 49.4161 20.5658 48.5927 19.6811C47.7693 18.7876 46.6393 18.3409 45.2028 18.3409C44.2129 18.3409 43.3282 18.5555 42.5487 18.9847C41.7778 19.4139 41.169 20.0402 40.7223 20.8636C40.2756 21.687 40.0522 22.6856 40.0522 23.8594ZM67.3719 15.8182V18.446H56.9131V15.8182H67.3719ZM59.9614 10.983H63.0622V30.2188C63.0622 31.0947 63.1892 31.7517 63.4433 32.1896C63.7061 32.6188 64.0389 32.9079 64.4419 33.0568C64.8535 33.197 65.2871 33.267 65.7426 33.267C66.0843 33.267 66.3646 33.2495 66.5835 33.2145C66.8025 33.1707 66.9777 33.1357 67.1091 33.1094L67.7398 35.8949C67.5296 35.9737 67.2361 36.0526 66.8595 36.1314C66.4828 36.219 66.0054 36.2628 65.4273 36.2628C64.5513 36.2628 63.6929 36.0745 62.852 35.6978C62.0199 35.3211 61.3279 34.7474 60.776 33.9766C60.2329 33.2057 59.9614 32.2334 59.9614 31.0597V10.983ZM79.4403 36.4205C77.7584 36.4205 76.2737 35.9956 74.9861 35.146C73.6984 34.2875 72.6911 33.0787 71.964 31.5195C71.237 29.9516 70.8735 28.099 70.8735 25.9616C70.8735 23.8419 71.237 22.0024 71.964 20.4432C72.6911 18.884 73.7028 17.6796 74.9992 16.8299C76.2956 15.9802 77.7935 15.5554 79.4928 15.5554C80.8067 15.5554 81.8447 15.7744 82.6068 16.2124C83.3776 16.6416 83.9645 17.1321 84.3675 17.6839C84.7791 18.227 85.0989 18.6738 85.3266 19.0241H85.5894V9.09091H88.6903V36H85.6945V32.8991H85.3266C85.0989 33.267 84.7748 33.7313 84.3543 34.2919C83.9339 34.8437 83.3338 35.3387 82.5542 35.7766C81.7747 36.2058 80.7367 36.4205 79.4403 36.4205ZM79.8607 33.6349C81.1046 33.6349 82.1557 33.3108 83.0141 32.6626C83.8725 32.0057 84.5251 31.0991 84.9719 29.9428C85.4186 28.7778 85.642 27.4332 85.642 25.9091C85.642 24.4025 85.423 23.0842 84.985 21.9542C84.547 20.8155 83.8988 19.9308 83.0404 19.3001C82.182 18.6606 81.1221 18.3409 79.8607 18.3409C78.5468 18.3409 77.4519 18.6781 76.5759 19.3526C75.7087 20.0183 75.0561 20.925 74.6182 22.0724C74.189 23.2112 73.9743 24.4901 73.9743 25.9091C73.9743 27.3456 74.1933 28.6508 74.6313 29.8246C75.078 30.9896 75.735 31.9181 76.6022 32.6101C77.4781 33.2933 78.5643 33.6349 79.8607 33.6349ZM103.262 36.4205C101.317 36.4205 99.6396 35.9912 98.2293 35.1328C96.8278 34.2656 95.746 33.0568 94.9839 31.5064C94.2306 29.9472 93.854 28.134 93.854 26.0668C93.854 23.9995 94.2306 22.1776 94.9839 20.6009C95.746 19.0154 96.8059 17.7803 98.1636 16.8956C99.5301 16.0021 101.124 15.5554 102.946 15.5554C103.997 15.5554 105.035 15.7306 106.06 16.081C107.085 16.4313 108.018 17.0007 108.859 17.7891C109.7 18.5687 110.37 19.6023 110.869 20.8899C111.369 22.1776 111.618 23.763 111.618 25.6463V26.9602H96.0613V24.2798H108.465C108.465 23.1411 108.237 22.125 107.782 21.2315C107.335 20.3381 106.695 19.6329 105.863 19.1161C105.04 18.5993 104.068 18.3409 102.946 18.3409C101.711 18.3409 100.643 18.6475 99.7403 19.2607C98.8469 19.8651 98.1592 20.6534 97.6775 21.6257C97.1957 22.598 96.9548 23.6404 96.9548 24.7528V26.5398C96.9548 28.0639 97.2176 29.3559 97.7432 30.4158C98.2775 31.467 99.0177 32.2685 99.9637 32.8203C100.91 33.3634 102.009 33.6349 103.262 33.6349C104.076 33.6349 104.812 33.5211 105.469 33.2933C106.135 33.0568 106.708 32.7064 107.19 32.2422C107.672 31.7692 108.044 31.1823 108.307 30.4815L111.303 31.3224C110.987 32.3385 110.458 33.232 109.713 34.0028C108.968 34.7649 108.049 35.3606 106.954 35.7898C105.859 36.2102 104.628 36.4205 103.262 36.4205ZM124.534 36.4205C122.642 36.4205 121.013 35.9737 119.646 35.0803C118.28 34.1868 117.229 32.9561 116.493 31.3881C115.757 29.8202 115.389 28.0289 115.389 26.0142C115.389 23.9645 115.766 22.1557 116.519 20.5877C117.281 19.011 118.341 17.7803 119.699 16.8956C121.065 16.0021 122.659 15.5554 124.481 15.5554C125.9 15.5554 127.179 15.8182 128.318 16.3438C129.457 16.8693 130.39 17.6051 131.117 18.5511C131.844 19.4972 132.295 20.6009 132.47 21.8622H129.369C129.133 20.9425 128.607 20.1278 127.793 19.4183C126.987 18.7 125.9 18.3409 124.534 18.3409C123.325 18.3409 122.265 18.6562 121.354 19.2869C120.452 19.9089 119.747 20.7892 119.239 21.9279C118.74 23.0579 118.49 24.3849 118.49 25.9091C118.49 27.4683 118.735 28.826 119.226 29.9822C119.725 31.1385 120.426 32.0363 121.328 32.6758C122.239 33.3152 123.308 33.6349 124.534 33.6349C125.34 33.6349 126.071 33.4948 126.728 33.2145C127.385 32.9342 127.941 32.5312 128.397 32.0057C128.852 31.4801 129.177 30.8494 129.369 30.1136H132.47C132.295 31.3049 131.861 32.378 131.169 33.3327C130.486 34.2788 129.579 35.0321 128.449 35.5927C127.328 36.1445 126.023 36.4205 124.534 36.4205ZM139.894 28.642L139.841 24.8054H140.472L149.301 15.8182H153.138L143.73 25.331H143.468L139.894 28.642ZM137.003 36V9.09091H140.104V36H137.003ZM149.827 36L141.943 26.0142L144.151 23.8594L153.769 36H149.827ZM164.76 36.4205C162.815 36.4205 161.138 35.9912 159.727 35.1328C158.326 34.2656 157.244 33.0568 156.482 31.5064C155.729 29.9472 155.352 28.134 155.352 26.0668C155.352 23.9995 155.729 22.1776 156.482 20.6009C157.244 19.0154 158.304 17.7803 159.662 16.8956C161.028 16.0021 162.622 15.5554 164.444 15.5554C165.495 15.5554 166.533 15.7306 167.558 16.081C168.583 16.4313 169.516 17.0007 170.357 17.7891C171.198 18.5687 171.868 19.6023 172.367 20.8899C172.867 22.1776 173.116 23.763 173.116 25.6463V26.9602H157.559V24.2798H169.963C169.963 23.1411 169.735 22.125 169.28 21.2315C168.833 20.3381 168.193 19.6329 167.361 19.1161C166.538 18.5993 165.566 18.3409 164.444 18.3409C163.209 18.3409 162.141 18.6475 161.238 19.2607C160.345 19.8651 159.657 20.6534 159.176 21.6257C158.694 22.598 158.453 23.6404 158.453 24.7528V26.5398C158.453 28.0639 158.716 29.3559 159.241 30.4158C159.776 31.467 160.516 32.2685 161.462 32.8203C162.408 33.3634 163.507 33.6349 164.76 33.6349C165.574 33.6349 166.31 33.5211 166.967 33.2933C167.633 33.0568 168.207 32.7064 168.688 32.2422C169.17 31.7692 169.542 31.1823 169.805 30.4815L172.801 31.3224C172.486 32.3385 171.956 33.232 171.211 34.0028C170.466 34.7649 169.547 35.3606 168.452 35.7898C167.357 36.2102 166.126 36.4205 164.76 36.4205ZM180.934 23.8594V36H177.833V15.8182H180.829V18.9716H181.092C181.565 17.9467 182.283 17.1233 183.247 16.5014C184.21 15.8707 185.454 15.5554 186.978 15.5554C188.345 15.5554 189.54 15.8357 190.565 16.3963C191.59 16.9482 192.387 17.7891 192.956 18.919C193.526 20.0402 193.81 21.4593 193.81 23.1761V36H190.71V23.3864C190.71 21.8009 190.298 20.5658 189.475 19.6811C188.651 18.7876 187.521 18.3409 186.085 18.3409C185.095 18.3409 184.21 18.5555 183.43 18.9847C182.66 19.4139 182.051 20.0402 181.604 20.8636C181.157 21.687 180.934 22.6856 180.934 23.8594ZM225.019 15.8182C224.862 14.4867 224.222 13.4531 223.101 12.7173C221.98 11.9815 220.605 11.6136 218.975 11.6136C217.784 11.6136 216.742 11.8063 215.848 12.1918C214.963 12.5772 214.271 13.1071 213.772 13.7816C213.282 14.4561 213.036 15.2225 213.036 16.081C213.036 16.7992 213.207 17.4168 213.549 17.9336C213.899 18.4416 214.346 18.8665 214.889 19.2081C215.432 19.541 216.001 19.8169 216.597 20.0359C217.193 20.2461 217.74 20.4169 218.24 20.5483L220.972 21.2841C221.673 21.468 222.453 21.7221 223.311 22.0462C224.178 22.3703 225.006 22.8126 225.795 23.3732C226.592 23.9251 227.249 24.6346 227.765 25.5018C228.282 26.369 228.541 27.4332 228.541 28.6946C228.541 30.1487 228.16 31.4626 227.398 32.6364C226.644 33.8101 225.541 34.743 224.086 35.435C222.641 36.127 220.885 36.473 218.818 36.473C216.891 36.473 215.222 36.1621 213.812 35.5401C212.41 34.9182 211.306 34.051 210.501 32.9386C209.703 31.8261 209.252 30.5341 209.147 29.0625H212.511C212.598 30.0786 212.94 30.9195 213.536 31.5852C214.14 32.2422 214.902 32.7327 215.822 33.0568C216.75 33.3722 217.749 33.5298 218.818 33.5298C220.061 33.5298 221.178 33.3284 222.168 32.9254C223.158 32.5137 223.942 31.9444 224.52 31.2173C225.098 30.4815 225.387 29.6231 225.387 28.642C225.387 27.7486 225.138 27.0215 224.638 26.4609C224.139 25.9003 223.482 25.4448 222.667 25.0945C221.853 24.7441 220.972 24.4375 220.026 24.1747L216.715 23.2287C214.613 22.6243 212.949 21.7615 211.722 20.6403C210.496 19.5191 209.883 18.0518 209.883 16.2386C209.883 14.732 210.29 13.4181 211.105 12.2969C211.928 11.1669 213.032 10.291 214.416 9.66903C215.809 9.03835 217.364 8.72301 219.08 8.72301C220.815 8.72301 222.356 9.03397 223.705 9.65589C225.054 10.2691 226.123 11.11 226.911 12.1786C227.709 13.2473 228.129 14.4605 228.173 15.8182H225.019ZM233.478 36V15.8182H236.579V36H233.478ZM235.054 12.4545C234.45 12.4545 233.929 12.2487 233.491 11.837C233.062 11.4253 232.847 10.9304 232.847 10.3523C232.847 9.77415 233.062 9.27924 233.491 8.86754C233.929 8.45585 234.45 8.25 235.054 8.25C235.659 8.25 236.176 8.45585 236.605 8.86754C237.043 9.27924 237.262 9.77415 237.262 10.3523C237.262 10.9304 237.043 11.4253 236.605 11.837C236.176 12.2487 235.659 12.4545 235.054 12.4545ZM250.72 36.4205C248.775 36.4205 247.098 35.9912 245.687 35.1328C244.286 34.2656 243.204 33.0568 242.442 31.5064C241.689 29.9472 241.312 28.134 241.312 26.0668C241.312 23.9995 241.689 22.1776 242.442 20.6009C243.204 19.0154 244.264 17.7803 245.622 16.8956C246.988 16.0021 248.582 15.5554 250.404 15.5554C251.455 15.5554 252.493 15.7306 253.518 16.081C254.543 16.4313 255.476 17.0007 256.317 17.7891C257.158 18.5687 257.828 19.6023 258.327 20.8899C258.827 22.1776 259.076 23.763 259.076 25.6463V26.9602H243.519V24.2798H255.923C255.923 23.1411 255.695 22.125 255.24 21.2315C254.793 20.3381 254.153 19.6329 253.321 19.1161C252.498 18.5993 251.526 18.3409 250.404 18.3409C249.169 18.3409 248.101 18.6475 247.198 19.2607C246.305 19.8651 245.617 20.6534 245.135 21.6257C244.654 22.598 244.413 23.6404 244.413 24.7528V26.5398C244.413 28.0639 244.676 29.3559 245.201 30.4158C245.735 31.467 246.476 32.2685 247.422 32.8203C248.368 33.3634 249.467 33.6349 250.72 33.6349C251.534 33.6349 252.27 33.5211 252.927 33.2933C253.593 33.0568 254.166 32.7064 254.648 32.2422C255.13 31.7692 255.502 31.1823 255.765 30.4815L258.761 31.3224C258.445 32.3385 257.916 33.232 257.171 34.0028C256.426 34.7649 255.507 35.3606 254.412 35.7898C253.317 36.2102 252.086 36.4205 250.72 36.4205ZM18.517 54.0909V81H15.2585V54.0909H18.517ZM27.7309 68.8594V81H24.6301V54.0909H27.7309V63.9716H27.9937C28.4667 62.9292 29.1762 62.1014 30.1222 61.4883C31.077 60.8664 32.3472 60.5554 33.9326 60.5554C35.3079 60.5554 36.5123 60.8313 37.5459 61.3832C38.5795 61.9263 39.381 62.7628 39.9504 63.8928C40.5285 65.014 40.8176 66.4418 40.8176 68.1761V81H37.7167V68.3864C37.7167 66.7834 37.3006 65.5439 36.4685 64.668C35.6451 63.7833 34.502 63.3409 33.0392 63.3409C32.0231 63.3409 31.1121 63.5555 30.3062 63.9847C29.5091 64.4139 28.8784 65.0402 28.4142 65.8636C27.9587 66.687 27.7309 67.6856 27.7309 68.8594ZM46.4904 81V60.8182H49.4862V63.8665H49.6964C50.0643 62.8679 50.73 62.0576 51.6935 61.4357C52.6571 60.8138 53.7433 60.5028 54.9521 60.5028C55.1798 60.5028 55.4645 60.5072 55.8061 60.516C56.1477 60.5247 56.4061 60.5379 56.5813 60.5554V63.7088C56.4762 63.6825 56.2353 63.6431 55.8587 63.5906C55.4908 63.5292 55.101 63.4986 54.6893 63.4986C53.7082 63.4986 52.8323 63.7044 52.0614 64.1161C51.2994 64.5191 50.695 65.0797 50.2482 65.7979C49.8103 66.5075 49.5913 67.3177 49.5913 68.2287V81H46.4904ZM71.0837 54.0909H74.9729L84.1178 76.4276H84.4332L93.578 54.0909H97.4672V81H94.4189V60.5554H94.1562L85.7471 81H82.8039L74.3948 60.5554H74.132V81H71.0837V54.0909ZM116.299 72.7486V60.8182H119.4V81H116.299V77.5838H116.089C115.616 78.6087 114.88 79.4802 113.881 80.1985C112.883 80.908 111.621 81.2628 110.097 81.2628C108.836 81.2628 107.715 80.9869 106.734 80.435C105.753 79.8744 104.982 79.0335 104.421 77.9123C103.861 76.7823 103.58 75.3589 103.58 73.642V60.8182H106.681V73.4318C106.681 74.9034 107.093 76.0772 107.916 76.9531C108.748 77.8291 109.808 78.267 111.096 78.267C111.867 78.267 112.651 78.07 113.448 77.6758C114.254 77.2816 114.928 76.6772 115.471 75.8626C116.023 75.0479 116.299 74.0099 116.299 72.7486ZM139.375 65.3381L136.589 66.1264C136.414 65.6622 136.156 65.2111 135.814 64.7731C135.481 64.3263 135.026 63.9585 134.448 63.6694C133.869 63.3803 133.129 63.2358 132.227 63.2358C130.992 63.2358 129.963 63.5205 129.139 64.0898C128.325 64.6504 127.917 65.3643 127.917 66.2315C127.917 67.0024 128.198 67.6111 128.758 68.0579C129.319 68.5046 130.195 68.8769 131.386 69.1747L134.382 69.9105C136.186 70.3485 137.531 71.0186 138.416 71.9208C139.3 72.8143 139.743 73.9661 139.743 75.3764C139.743 76.5327 139.41 77.5663 138.744 78.4773C138.087 79.3883 137.167 80.1065 135.985 80.6321C134.802 81.1577 133.427 81.4205 131.859 81.4205C129.801 81.4205 128.097 80.9737 126.748 80.0803C125.399 79.1868 124.545 77.8816 124.186 76.1648L127.129 75.429C127.409 76.5152 127.939 77.3298 128.719 77.8729C129.507 78.416 130.536 78.6875 131.807 78.6875C133.252 78.6875 134.399 78.3809 135.249 77.7678C136.107 77.1458 136.537 76.4013 136.537 75.5341C136.537 74.8333 136.291 74.2464 135.801 73.7734C135.31 73.2917 134.557 72.9325 133.541 72.696L130.177 71.9077C128.329 71.4697 126.971 70.7908 126.104 69.8711C125.246 68.9426 124.816 67.782 124.816 66.3892C124.816 65.2505 125.136 64.2431 125.776 63.3672C126.424 62.4912 127.304 61.8036 128.417 61.3043C129.538 60.805 130.808 60.5554 132.227 60.5554C134.224 60.5554 135.792 60.9934 136.931 61.8693C138.078 62.7453 138.893 63.9015 139.375 65.3381ZM147.301 73.642L147.248 69.8054H147.879L156.709 60.8182H160.545L151.138 70.331H150.875L147.301 73.642ZM144.41 81V54.0909H147.511V81H144.41ZM157.234 81L149.351 71.0142L151.558 68.8594L161.176 81H157.234ZM172.167 81.4205C170.222 81.4205 168.545 80.9912 167.135 80.1328C165.733 79.2656 164.651 78.0568 163.889 76.5064C163.136 74.9472 162.759 73.134 162.759 71.0668C162.759 68.9995 163.136 67.1776 163.889 65.6009C164.651 64.0154 165.711 62.7803 167.069 61.8956C168.435 61.0021 170.03 60.5554 171.852 60.5554C172.903 60.5554 173.941 60.7306 174.966 61.081C175.99 61.4313 176.923 62.0007 177.764 62.7891C178.605 63.5687 179.275 64.6023 179.775 65.8899C180.274 67.1776 180.523 68.763 180.523 70.6463V71.9602H164.967V69.2798H177.37C177.37 68.1411 177.142 67.125 176.687 66.2315C176.24 65.3381 175.601 64.6329 174.768 64.1161C173.945 63.5993 172.973 63.3409 171.852 63.3409C170.616 63.3409 169.548 63.6475 168.646 64.2607C167.752 64.8651 167.065 65.6534 166.583 66.6257C166.101 67.598 165.86 68.6404 165.86 69.7528V71.5398C165.86 73.0639 166.123 74.3559 166.648 75.4158C167.183 76.467 167.923 77.2685 168.869 77.8203C169.815 78.3634 170.914 78.6349 172.167 78.6349C172.982 78.6349 173.717 78.5211 174.374 78.2933C175.04 78.0568 175.614 77.7064 176.096 77.2422C176.577 76.7692 176.95 76.1823 177.212 75.4815L180.208 76.3224C179.893 77.3385 179.363 78.232 178.618 79.0028C177.874 79.7649 176.954 80.3606 175.859 80.7898C174.764 81.2102 173.533 81.4205 172.167 81.4205ZM188.341 54.0909V81H185.24V54.0909H188.341ZM199.96 81.473C198.681 81.473 197.52 81.2321 196.478 80.7504C195.435 80.2598 194.608 79.5547 193.994 78.6349C193.381 77.7064 193.075 76.5852 193.075 75.2713C193.075 74.1151 193.302 73.1778 193.758 72.4595C194.213 71.7325 194.822 71.1631 195.584 70.7514C196.346 70.3397 197.187 70.0331 198.107 69.8317C199.035 69.6214 199.968 69.455 200.906 69.3324C202.132 69.1747 203.126 69.0565 203.888 68.9776C204.659 68.89 205.22 68.7455 205.57 68.544C205.929 68.3426 206.109 67.9922 206.109 67.4929V67.3878C206.109 66.0914 205.754 65.084 205.044 64.3658C204.344 63.6475 203.279 63.2884 201.852 63.2884C200.371 63.2884 199.211 63.6125 198.37 64.2607C197.529 64.9089 196.938 65.6009 196.596 66.3366L193.653 65.2855C194.178 64.0592 194.879 63.1044 195.755 62.4212C196.64 61.7292 197.603 61.2474 198.646 60.9759C199.697 60.6955 200.73 60.5554 201.747 60.5554C202.395 60.5554 203.139 60.6342 203.98 60.7919C204.83 60.9408 205.649 61.2518 206.437 61.7248C207.234 62.1978 207.896 62.9117 208.421 63.8665C208.947 64.8213 209.21 66.1001 209.21 67.7031V81H206.109V78.267H205.951C205.741 78.705 205.39 79.1737 204.9 79.6729C204.409 80.1722 203.757 80.5971 202.942 80.9474C202.128 81.2978 201.133 81.473 199.96 81.473ZM200.433 78.6875C201.659 78.6875 202.693 78.4466 203.533 77.9648C204.383 77.4831 205.023 76.8612 205.452 76.0991C205.89 75.337 206.109 74.5355 206.109 73.6946V70.8565C205.977 71.0142 205.688 71.1587 205.242 71.2901C204.804 71.4128 204.296 71.5223 203.717 71.6186C203.148 71.7062 202.592 71.785 202.049 71.8551C201.514 71.9164 201.081 71.969 200.748 72.0128C199.942 72.1179 199.189 72.2887 198.488 72.5252C197.796 72.753 197.235 73.099 196.806 73.5632C196.386 74.0187 196.176 74.6406 196.176 75.429C196.176 76.5064 196.574 77.321 197.371 77.8729C198.177 78.416 199.198 78.6875 200.433 78.6875ZM217.97 54.0909V81H214.869V54.0909H217.97ZM232.427 60.8182V63.446H221.968V60.8182H232.427ZM225.016 55.983H228.117V75.2188C228.117 76.0947 228.244 76.7517 228.498 77.1896C228.761 77.6188 229.094 77.9079 229.497 78.0568C229.908 78.197 230.342 78.267 230.797 78.267C231.139 78.267 231.419 78.2495 231.638 78.2145C231.857 78.1707 232.032 78.1357 232.164 78.1094L232.794 80.8949C232.584 80.9737 232.291 81.0526 231.914 81.1314C231.537 81.219 231.06 81.2628 230.482 81.2628C229.606 81.2628 228.748 81.0745 227.907 80.6978C227.075 80.3211 226.383 79.7474 225.831 78.9766C225.288 78.2057 225.016 77.2334 225.016 76.0597V55.983ZM245.336 81.4205C243.391 81.4205 241.714 80.9912 240.304 80.1328C238.902 79.2656 237.82 78.0568 237.058 76.5064C236.305 74.9472 235.928 73.134 235.928 71.0668C235.928 68.9995 236.305 67.1776 237.058 65.6009C237.82 64.0154 238.88 62.7803 240.238 61.8956C241.604 61.0021 243.199 60.5554 245.021 60.5554C246.072 60.5554 247.11 60.7306 248.134 61.081C249.159 61.4313 250.092 62.0007 250.933 62.7891C251.774 63.5687 252.444 64.6023 252.943 65.8899C253.443 67.1776 253.692 68.763 253.692 70.6463V71.9602H238.136V69.2798H250.539C250.539 68.1411 250.311 67.125 249.856 66.2315C249.409 65.3381 248.77 64.6329 247.937 64.1161C247.114 63.5993 246.142 63.3409 245.021 63.3409C243.785 63.3409 242.717 63.6475 241.815 64.2607C240.921 64.8651 240.233 65.6534 239.752 66.6257C239.27 67.598 239.029 68.6404 239.029 69.7528V71.5398C239.029 73.0639 239.292 74.3559 239.817 75.4158C240.352 76.467 241.092 77.2685 242.038 77.8203C242.984 78.3634 244.083 78.6349 245.336 78.6349C246.15 78.6349 246.886 78.5211 247.543 78.2933C248.209 78.0568 248.783 77.7064 249.264 77.2422C249.746 76.7692 250.119 76.1823 250.381 75.4815L253.377 76.3224C253.062 77.3385 252.532 78.232 251.787 79.0028C251.043 79.7649 250.123 80.3606 249.028 80.7898C247.933 81.2102 246.702 81.4205 245.336 81.4205ZM258.409 81V60.8182H261.405V63.8665H261.615C261.983 62.8679 262.649 62.0576 263.612 61.4357C264.576 60.8138 265.662 60.5028 266.871 60.5028C267.099 60.5028 267.383 60.5072 267.725 60.516C268.067 60.5247 268.325 60.5379 268.5 60.5554V63.7088C268.395 63.6825 268.154 63.6431 267.778 63.5906C267.41 63.5292 267.02 63.4986 266.608 63.4986C265.627 63.4986 264.751 63.7044 263.98 64.1161C263.218 64.5191 262.614 65.0797 262.167 65.7979C261.729 66.5075 261.51 67.3177 261.51 68.2287V81H258.409Z" fill="white"/>
</svg>
