<svg width="253" height="92" viewBox="0 0 253 92" fill="none" xmlns="http://www.w3.org/2000/svg">
<path d="M0 47.5L1.5 91.5L252.5 82.5V39L0 47.5Z" fill="#159BD7"/>
<path d="M16.5625 36H8.25852V9.09091H16.9304C19.5407 9.09091 21.7744 9.62962 23.6314 10.707C25.4884 11.7757 26.9118 13.313 27.9016 15.3189C28.8915 17.3161 29.3864 19.7074 29.3864 22.4929C29.3864 25.2959 28.8871 27.7092 27.8885 29.7326C26.8899 31.7473 25.4358 33.2977 23.5263 34.3839C21.6167 35.4613 19.2955 36 16.5625 36ZM11.517 33.1094H16.3523C18.5772 33.1094 20.421 32.6802 21.8839 31.8217C23.3467 30.9633 24.4373 29.7414 25.1555 28.1559C25.8738 26.5704 26.233 24.6828 26.233 22.4929C26.233 20.3205 25.8782 18.4504 25.1687 16.8825C24.4592 15.3058 23.3993 14.0969 21.989 13.256C20.5787 12.4064 18.8224 11.9815 16.7202 11.9815H11.517V33.1094ZM34.4318 36V15.8182H37.5327V36H34.4318ZM36.0085 12.4545C35.4041 12.4545 34.8829 12.2487 34.445 11.837C34.0157 11.4253 33.8011 10.9304 33.8011 10.3523C33.8011 9.77415 34.0157 9.27924 34.445 8.86754C34.8829 8.45585 35.4041 8.25 36.0085 8.25C36.6129 8.25 37.1297 8.45585 37.5589 8.86754C37.9969 9.27924 38.2159 9.77415 38.2159 10.3523C38.2159 10.9304 37.9969 11.4253 37.5589 11.837C37.1297 12.2487 36.6129 12.4545 36.0085 12.4545ZM57.5075 20.3381L54.722 21.1264C54.5468 20.6622 54.2884 20.2111 53.9468 19.7731C53.614 19.3263 53.1585 18.9585 52.5803 18.6694C52.0022 18.3803 51.262 18.2358 50.3598 18.2358C49.1247 18.2358 48.0955 18.5205 47.2721 19.0898C46.4575 19.6504 46.0502 20.3643 46.0502 21.2315C46.0502 22.0024 46.3305 22.6111 46.8911 23.0579C47.4517 23.5046 48.3276 23.8769 49.5189 24.1747L52.5146 24.9105C54.3191 25.3485 55.6637 26.0186 56.5484 26.9208C57.4331 27.8143 57.8754 28.9661 57.8754 30.3764C57.8754 31.5327 57.5426 32.5663 56.8769 33.4773C56.2199 34.3883 55.3002 35.1065 54.1176 35.6321C52.9351 36.1577 51.5599 36.4205 49.9919 36.4205C47.9334 36.4205 46.2297 35.9737 44.8808 35.0803C43.5318 34.1868 42.6778 32.8816 42.3186 31.1648L45.2618 30.429C45.5421 31.5152 46.0721 32.3298 46.8517 32.8729C47.64 33.416 48.6692 33.6875 49.9394 33.6875C51.3847 33.6875 52.5322 33.3809 53.3818 32.7678C54.2403 32.1458 54.6695 31.4013 54.6695 30.5341C54.6695 29.8333 54.4242 29.2464 53.9337 28.7734C53.4432 28.2917 52.6898 27.9325 51.6737 27.696L48.3101 26.9077C46.4619 26.4697 45.1041 25.7908 44.2369 24.8711C43.3785 23.9426 42.9493 22.782 42.9493 21.3892C42.9493 20.2505 43.269 19.2431 43.9085 18.3672C44.5567 17.4912 45.437 16.8036 46.5495 16.3043C47.6707 15.805 48.9408 15.5554 50.3598 15.5554C52.357 15.5554 53.9249 15.9934 55.0637 16.8693C56.2111 17.7453 57.0258 18.9015 57.5075 20.3381ZM70.742 36.4205C68.85 36.4205 67.2207 35.9737 65.8542 35.0803C64.4877 34.1868 63.4366 32.9561 62.7008 31.3881C61.965 29.8202 61.5971 28.0289 61.5971 26.0142C61.5971 23.9645 61.9738 22.1557 62.7271 20.5877C63.4892 19.011 64.5491 17.7803 65.9068 16.8956C67.2733 16.0021 68.8675 15.5554 70.6895 15.5554C72.1085 15.5554 73.3874 15.8182 74.5261 16.3438C75.6648 16.8693 76.5977 17.6051 77.3248 18.5511C78.0518 19.4972 78.5029 20.6009 78.6781 21.8622H75.5772C75.3407 20.9425 74.8152 20.1278 74.0005 19.4183C73.1947 18.7 72.1085 18.3409 70.742 18.3409C69.5332 18.3409 68.4733 18.6562 67.5623 19.2869C66.6601 19.9089 65.955 20.7892 65.4469 21.9279C64.9476 23.0579 64.698 24.3849 64.698 25.9091C64.698 27.4683 64.9432 28.826 65.4338 29.9822C65.9331 31.1385 66.6338 32.0363 67.536 32.6758C68.447 33.3152 69.5157 33.6349 70.742 33.6349C71.5479 33.6349 72.2793 33.4948 72.9363 33.2145C73.5932 32.9342 74.1494 32.5312 74.6049 32.0057C75.0604 31.4801 75.3845 30.8494 75.5772 30.1136H78.6781C78.5029 31.3049 78.0693 32.378 77.3773 33.3327C76.6941 34.2788 75.7875 35.0321 74.6575 35.5927C73.5363 36.1445 72.2311 36.4205 70.742 36.4205ZM91.41 36.4205C89.588 36.4205 87.9894 35.9869 86.6142 35.1197C85.2477 34.2525 84.179 33.0393 83.4082 31.4801C82.6461 29.9209 82.2651 28.099 82.2651 26.0142C82.2651 23.9119 82.6461 22.0768 83.4082 20.5089C84.179 18.9409 85.2477 17.7234 86.6142 16.8562C87.9894 15.989 89.588 15.5554 91.41 15.5554C93.2319 15.5554 94.8262 15.989 96.1927 16.8562C97.5679 17.7234 98.6365 18.9409 99.3986 20.5089C100.169 22.0768 100.555 23.9119 100.555 26.0142C100.555 28.099 100.169 29.9209 99.3986 31.4801C98.6365 33.0393 97.5679 34.2525 96.1927 35.1197C94.8262 35.9869 93.2319 36.4205 91.41 36.4205ZM91.41 33.6349C92.794 33.6349 93.9327 33.2802 94.8262 32.5707C95.7196 31.8612 96.381 30.9283 96.8102 29.772C97.2394 28.6158 97.454 27.3632 97.454 26.0142C97.454 24.6652 97.2394 23.4083 96.8102 22.2433C96.381 21.0782 95.7196 20.1366 94.8262 19.4183C93.9327 18.7 92.794 18.3409 91.41 18.3409C90.026 18.3409 88.8873 18.7 87.9938 19.4183C87.1003 20.1366 86.439 21.0782 86.0098 22.2433C85.5806 23.4083 85.3659 24.6652 85.3659 26.0142C85.3659 27.3632 85.5806 28.6158 86.0098 29.772C86.439 30.9283 87.1003 31.8612 87.9938 32.5707C88.8873 33.2802 90.026 33.6349 91.41 33.6349ZM121.068 15.8182L113.605 36H110.452L102.989 15.8182H106.353L111.924 31.9006H112.134L117.705 15.8182H121.068ZM132.9 36.4205C130.956 36.4205 129.278 35.9912 127.868 35.1328C126.466 34.2656 125.385 33.0568 124.623 31.5064C123.869 29.9472 123.493 28.134 123.493 26.0668C123.493 23.9995 123.869 22.1776 124.623 20.6009C125.385 19.0154 126.445 17.7803 127.802 16.8956C129.169 16.0021 130.763 15.5554 132.585 15.5554C133.636 15.5554 134.674 15.7306 135.699 16.081C136.724 16.4313 137.657 17.0007 138.498 17.7891C139.339 18.5687 140.009 19.6023 140.508 20.8899C141.007 22.1776 141.257 23.763 141.257 25.6463V26.9602H125.7V24.2798H138.103C138.103 23.1411 137.876 22.125 137.42 21.2315C136.973 20.3381 136.334 19.6329 135.502 19.1161C134.678 18.5993 133.706 18.3409 132.585 18.3409C131.35 18.3409 130.281 18.6475 129.379 19.2607C128.486 19.8651 127.798 20.6534 127.316 21.6257C126.834 22.598 126.593 23.6404 126.593 24.7528V26.5398C126.593 28.0639 126.856 29.3559 127.382 30.4158C127.916 31.467 128.656 32.2685 129.602 32.8203C130.548 33.3634 131.648 33.6349 132.9 33.6349C133.715 33.6349 134.451 33.5211 135.108 33.2933C135.773 33.0568 136.347 32.7064 136.829 32.2422C137.311 31.7692 137.683 31.1823 137.946 30.4815L140.941 31.3224C140.626 32.3385 140.096 33.232 139.352 34.0028C138.607 34.7649 137.687 35.3606 136.592 35.7898C135.497 36.2102 134.267 36.4205 132.9 36.4205ZM145.974 36V15.8182H148.97V18.8665H149.18C149.548 17.8679 150.213 17.0576 151.177 16.4357C152.14 15.8138 153.227 15.5028 154.435 15.5028C154.663 15.5028 154.948 15.5072 155.29 15.516C155.631 15.5247 155.89 15.5379 156.065 15.5554V18.7088C155.96 18.6825 155.719 18.6431 155.342 18.5906C154.974 18.5292 154.584 18.4986 154.173 18.4986C153.192 18.4986 152.316 18.7044 151.545 19.1161C150.783 19.5191 150.178 20.0797 149.732 20.7979C149.294 21.5075 149.075 22.3177 149.075 23.2287V36H145.974ZM172.144 43.5682C171.618 43.5682 171.15 43.5244 170.738 43.4368C170.326 43.358 170.042 43.2791 169.884 43.2003L170.672 40.4673C171.426 40.66 172.091 40.7301 172.669 40.6776C173.248 40.625 173.76 40.3666 174.207 39.9023C174.662 39.4469 175.078 38.7067 175.455 37.6818L176.033 36.1051L168.57 15.8182H171.934L177.505 31.9006H177.715L183.286 15.8182H186.65L178.083 38.9432C177.697 39.9856 177.22 40.8484 176.651 41.5316C176.081 42.2236 175.42 42.736 174.667 43.0689C173.922 43.4018 173.081 43.5682 172.144 43.5682ZM198.219 36.4205C196.397 36.4205 194.798 35.9869 193.423 35.1197C192.056 34.2525 190.988 33.0393 190.217 31.4801C189.455 29.9209 189.074 28.099 189.074 26.0142C189.074 23.9119 189.455 22.0768 190.217 20.5089C190.988 18.9409 192.056 17.7234 193.423 16.8562C194.798 15.989 196.397 15.5554 198.219 15.5554C200.041 15.5554 201.635 15.989 203.001 16.8562C204.376 17.7234 205.445 18.9409 206.207 20.5089C206.978 22.0768 207.363 23.9119 207.363 26.0142C207.363 28.099 206.978 29.9209 206.207 31.4801C205.445 33.0393 204.376 34.2525 203.001 35.1197C201.635 35.9869 200.041 36.4205 198.219 36.4205ZM198.219 33.6349C199.603 33.6349 200.741 33.2802 201.635 32.5707C202.528 31.8612 203.19 30.9283 203.619 29.772C204.048 28.6158 204.263 27.3632 204.263 26.0142C204.263 24.6652 204.048 23.4083 203.619 22.2433C203.19 21.0782 202.528 20.1366 201.635 19.4183C200.741 18.7 199.603 18.3409 198.219 18.3409C196.835 18.3409 195.696 18.7 194.802 19.4183C193.909 20.1366 193.248 21.0782 192.818 22.2433C192.389 23.4083 192.175 24.6652 192.175 26.0142C192.175 27.3632 192.389 28.6158 192.818 29.772C193.248 30.9283 193.909 31.8612 194.802 32.5707C195.696 33.2802 196.835 33.6349 198.219 33.6349ZM224.816 27.7486V15.8182H227.916V36H224.816V32.5838H224.605C224.132 33.6087 223.397 34.4802 222.398 35.1985C221.399 35.908 220.138 36.2628 218.614 36.2628C217.353 36.2628 216.231 35.9869 215.25 35.435C214.269 34.8744 213.498 34.0335 212.938 32.9123C212.377 31.7823 212.097 30.3589 212.097 28.642V15.8182H215.198V28.4318C215.198 29.9034 215.609 31.0772 216.433 31.9531C217.265 32.8291 218.325 33.267 219.612 33.267C220.383 33.267 221.167 33.07 221.964 32.6758C222.77 32.2816 223.445 31.6772 223.988 30.8626C224.54 30.0479 224.816 29.0099 224.816 27.7486ZM233.596 36V15.8182H236.592V18.8665H236.802C237.17 17.8679 237.835 17.0576 238.799 16.4357C239.763 15.8138 240.849 15.5028 242.058 15.5028C242.285 15.5028 242.57 15.5072 242.912 15.516C243.253 15.5247 243.512 15.5379 243.687 15.5554V18.7088C243.582 18.6825 243.341 18.6431 242.964 18.5906C242.596 18.5292 242.206 18.4986 241.795 18.4986C240.814 18.4986 239.938 18.7044 239.167 19.1161C238.405 19.5191 237.8 20.0797 237.354 20.7979C236.916 21.5075 236.697 22.3177 236.697 23.2287V36H233.596Z" fill="white"/>
<path d="M26.2585 52.0909H30.1477L39.2926 74.4276H39.608L48.7528 52.0909H52.642V79H49.5938V58.5554H49.331L40.9219 79H37.9787L29.5696 58.5554H29.3068V79H26.2585V52.0909ZM71.4738 70.7486V58.8182H74.5747V79H71.4738V75.5838H71.2636C70.7906 76.6087 70.0548 77.4802 69.0562 78.1985C68.0576 78.908 66.7963 79.2628 65.2721 79.2628C64.0107 79.2628 62.8895 78.9869 61.9085 78.435C60.9274 77.8744 60.1566 77.0335 59.596 75.9123C59.0354 74.7823 58.7551 73.3589 58.7551 71.642V58.8182H61.8559V71.4318C61.8559 72.9034 62.2676 74.0772 63.091 74.9531C63.9231 75.8291 64.983 76.267 66.2707 76.267C67.0415 76.267 67.8255 76.07 68.6226 75.6758C69.4285 75.2816 70.103 74.6772 70.646 73.8626C71.1979 73.0479 71.4738 72.0099 71.4738 70.7486ZM94.5495 63.3381L91.764 64.1264C91.5888 63.6622 91.3304 63.2111 90.9888 62.7731C90.656 62.3263 90.2005 61.9585 89.6223 61.6694C89.0442 61.3803 88.304 61.2358 87.4018 61.2358C86.1667 61.2358 85.1375 61.5205 84.3141 62.0898C83.4995 62.6504 83.0922 63.3643 83.0922 64.2315C83.0922 65.0024 83.3725 65.6111 83.9331 66.0579C84.4937 66.5046 85.3696 66.8769 86.5609 67.1747L89.5566 67.9105C91.3611 68.3485 92.7057 69.0186 93.5904 69.9208C94.4751 70.8143 94.9174 71.9661 94.9174 73.3764C94.9174 74.5327 94.5846 75.5663 93.9189 76.4773C93.2619 77.3883 92.3422 78.1065 91.1596 78.6321C89.9771 79.1577 88.6019 79.4205 87.0339 79.4205C84.9754 79.4205 83.2717 78.9737 81.9228 78.0803C80.5738 77.1868 79.7198 75.8816 79.3606 74.1648L82.3038 73.429C82.5841 74.5152 83.1141 75.3298 83.8936 75.8729C84.682 76.416 85.7112 76.6875 86.9814 76.6875C88.4267 76.6875 89.5742 76.3809 90.4238 75.7678C91.2823 75.1458 91.7115 74.4013 91.7115 73.5341C91.7115 72.8333 91.4662 72.2464 90.9757 71.7734C90.4851 71.2917 89.7318 70.9325 88.7157 70.696L85.3521 69.9077C83.5038 69.4697 82.1461 68.7908 81.2789 67.8711C80.4205 66.9426 79.9913 65.782 79.9913 64.3892C79.9913 63.2505 80.311 62.2431 80.9505 61.3672C81.5987 60.4912 82.479 59.8036 83.5914 59.3043C84.7127 58.805 85.9828 58.5554 87.4018 58.5554C89.399 58.5554 90.9669 58.9934 92.1056 59.8693C93.2531 60.7453 94.0678 61.9015 94.5495 63.3381ZM107.784 79.4205C105.892 79.4205 104.263 78.9737 102.896 78.0803C101.53 77.1868 100.479 75.9561 99.7428 74.3881C99.007 72.8202 98.6391 71.0289 98.6391 69.0142C98.6391 66.9645 99.0158 65.1557 99.7691 63.5877C100.531 62.011 101.591 60.7803 102.949 59.8956C104.315 59.0021 105.909 58.5554 107.731 58.5554C109.15 58.5554 110.429 58.8182 111.568 59.3438C112.707 59.8693 113.64 60.6051 114.367 61.5511C115.094 62.4972 115.545 63.6009 115.72 64.8622H112.619C112.383 63.9425 111.857 63.1278 111.043 62.4183C110.237 61.7 109.15 61.3409 107.784 61.3409C106.575 61.3409 105.515 61.6562 104.604 62.2869C103.702 62.9089 102.997 63.7892 102.489 64.9279C101.99 66.0579 101.74 67.3849 101.74 68.9091C101.74 70.4683 101.985 71.826 102.476 72.9822C102.975 74.1385 103.676 75.0363 104.578 75.6758C105.489 76.3152 106.558 76.6349 107.784 76.6349C108.59 76.6349 109.321 76.4948 109.978 76.2145C110.635 75.9342 111.191 75.5312 111.647 75.0057C112.102 74.4801 112.427 73.8494 112.619 73.1136H115.72C115.545 74.3049 115.111 75.378 114.419 76.3327C113.736 77.2788 112.829 78.0321 111.699 78.5927C110.578 79.1445 109.273 79.4205 107.784 79.4205ZM123.354 52.0909V79H120.253V52.0909H123.354ZM137.495 79.4205C135.55 79.4205 133.873 78.9912 132.463 78.1328C131.061 77.2656 129.979 76.0568 129.217 74.5064C128.464 72.9472 128.087 71.134 128.087 69.0668C128.087 66.9995 128.464 65.1776 129.217 63.6009C129.979 62.0154 131.039 60.7803 132.397 59.8956C133.763 59.0021 135.358 58.5554 137.18 58.5554C138.231 58.5554 139.269 58.7306 140.294 59.081C141.319 59.4313 142.251 60.0007 143.092 60.7891C143.933 61.5687 144.603 62.6023 145.103 63.8899C145.602 65.1776 145.852 66.763 145.852 68.6463V69.9602H130.295V67.2798H142.698C142.698 66.1411 142.47 65.125 142.015 64.2315C141.568 63.3381 140.929 62.6329 140.097 62.1161C139.273 61.5993 138.301 61.3409 137.18 61.3409C135.945 61.3409 134.876 61.6475 133.974 62.2607C133.08 62.8651 132.393 63.6534 131.911 64.6257C131.429 65.598 131.188 66.6404 131.188 67.7528V69.5398C131.188 71.0639 131.451 72.3559 131.977 73.4158C132.511 74.467 133.251 75.2685 134.197 75.8203C135.143 76.3634 136.242 76.6349 137.495 76.6349C138.31 76.6349 139.045 76.5211 139.702 76.2933C140.368 76.0568 140.942 75.7064 141.424 75.2422C141.905 74.7692 142.278 74.1823 142.54 73.4815L145.536 74.3224C145.221 75.3385 144.691 76.232 143.946 77.0028C143.202 77.7649 142.282 78.3606 141.187 78.7898C140.092 79.2102 138.862 79.4205 137.495 79.4205ZM162.499 79H159.083L168.963 52.0909H172.327L182.208 79H178.792L170.75 56.348H170.54L162.499 79ZM163.76 68.4886H177.53V71.3793H163.76V68.4886ZM194.125 86.9886C192.627 86.9886 191.339 86.7959 190.262 86.4105C189.185 86.0339 188.287 85.5346 187.569 84.9126C186.859 84.2995 186.294 83.6425 185.874 82.9418L188.344 81.2074C188.624 81.5753 188.979 81.9957 189.408 82.4688C189.837 82.9505 190.424 83.3666 191.169 83.717C191.922 84.0761 192.907 84.2557 194.125 84.2557C195.754 84.2557 197.099 83.8615 198.159 83.0732C199.219 82.2848 199.749 81.0497 199.749 79.3679V75.2685H199.486C199.258 75.6364 198.934 76.0919 198.513 76.6349C198.102 77.1693 197.506 77.6467 196.727 78.0671C195.956 78.4788 194.913 78.6847 193.599 78.6847C191.97 78.6847 190.507 78.2992 189.211 77.5284C187.923 76.7576 186.903 75.6364 186.15 74.1648C185.405 72.6932 185.033 70.9062 185.033 68.804C185.033 66.7367 185.396 64.9367 186.123 63.4038C186.85 61.8621 187.862 60.6708 189.158 59.8299C190.455 58.9802 191.953 58.5554 193.652 58.5554C194.966 58.5554 196.008 58.7744 196.779 59.2124C197.559 59.6416 198.154 60.1321 198.566 60.6839C198.987 61.227 199.311 61.6738 199.538 62.0241H199.854V58.8182H202.849V79.5781C202.849 81.3125 202.455 82.7228 201.667 83.8089C200.887 84.9039 199.836 85.7054 198.513 86.2134C197.2 86.7302 195.737 86.9886 194.125 86.9886ZM194.02 75.8991C195.264 75.8991 196.315 75.6145 197.173 75.0451C198.032 74.4757 198.684 73.6567 199.131 72.5881C199.578 71.5194 199.801 70.2405 199.801 68.7514C199.801 67.2973 199.582 66.0141 199.144 64.9016C198.706 63.7892 198.058 62.9176 197.2 62.2869C196.341 61.6562 195.281 61.3409 194.02 61.3409C192.706 61.3409 191.611 61.6738 190.735 62.3395C189.868 63.0052 189.215 63.8987 188.777 65.0199C188.348 66.1411 188.134 67.3849 188.134 68.7514C188.134 70.1529 188.353 71.3924 188.79 72.4698C189.237 73.5385 189.894 74.3794 190.761 74.9925C191.637 75.5969 192.723 75.8991 194.02 75.8991ZM216.987 79.4205C215.043 79.4205 213.365 78.9912 211.955 78.1328C210.553 77.2656 209.472 76.0568 208.71 74.5064C207.956 72.9472 207.58 71.134 207.58 69.0668C207.58 66.9995 207.956 65.1776 208.71 63.6009C209.472 62.0154 210.531 60.7803 211.889 59.8956C213.256 59.0021 214.85 58.5554 216.672 58.5554C217.723 58.5554 218.761 58.7306 219.786 59.081C220.811 59.4313 221.744 60.0007 222.585 60.7891C223.425 61.5687 224.096 62.6023 224.595 63.8899C225.094 65.1776 225.344 66.763 225.344 68.6463V69.9602H209.787V67.2798H222.19C222.19 66.1411 221.963 65.125 221.507 64.2315C221.06 63.3381 220.421 62.6329 219.589 62.1161C218.765 61.5993 217.793 61.3409 216.672 61.3409C215.437 61.3409 214.368 61.6475 213.466 62.2607C212.572 62.8651 211.885 63.6534 211.403 64.6257C210.921 65.598 210.68 66.6404 210.68 67.7528V69.5398C210.68 71.0639 210.943 72.3559 211.469 73.4158C212.003 74.467 212.743 75.2685 213.689 75.8203C214.635 76.3634 215.735 76.6349 216.987 76.6349C217.802 76.6349 218.538 76.5211 219.195 76.2933C219.86 76.0568 220.434 75.7064 220.916 75.2422C221.398 74.7692 221.77 74.1823 222.033 73.4815L225.028 74.3224C224.713 75.3385 224.183 76.232 223.439 77.0028C222.694 77.7649 221.774 78.3606 220.679 78.7898C219.584 79.2102 218.354 79.4205 216.987 79.4205Z" fill="white"/>
</svg>
