<svg xmlns="http://www.w3.org/2000/svg" width="8.42" height="24.058" viewBox="0 0 8.42 24.058">
  <path id="man_FILL0_wght400_GRAD0_opsz48" d="M342.406-855.942v-8.42H340v-7.608a1.738,1.738,0,0,1,.53-1.274,1.738,1.738,0,0,1,1.274-.53h4.812a1.738,1.738,0,0,1,1.274.53,1.738,1.738,0,0,1,.53,1.274v7.608h-2.406v8.42Zm1.807-19.667a2.12,2.12,0,0,1-1.551-.644,2.108,2.108,0,0,1-.647-1.549,2.119,2.119,0,0,1,.644-1.551,2.108,2.108,0,0,1,1.549-.647,2.12,2.12,0,0,1,1.551.644,2.108,2.108,0,0,1,.647,1.549,2.12,2.12,0,0,1-.644,1.551A2.108,2.108,0,0,1,344.212-875.609Z" transform="translate(-340 880)" fill="#fff"/>
</svg>
