<svg width="417" height="47" viewBox="0 0 417 47" fill="none" xmlns="http://www.w3.org/2000/svg">
<path d="M1.58906 46.7035L0.0113037 3.95263C0.0051004 3.78454 0.138281 3.6442 0.306461 3.6416L106.107 2.00454C106.27 2.00202 106.405 2.1302 106.411 2.29315L107.989 43.9527C107.995 44.1197 107.864 44.2596 107.696 44.2639L1.89659 46.9924C1.73226 46.9966 1.59512 46.8678 1.58906 46.7035Z" fill="#159BD7"/>
<path d="M17.9744 15.8182C17.8168 14.4867 17.1773 13.4531 16.0561 12.7173C14.9349 11.9815 13.5597 11.6136 11.9304 11.6136C10.7391 11.6136 9.69673 11.8063 8.80327 12.1918C7.91856 12.5772 7.22656 13.1071 6.72727 13.7816C6.23674 14.4561 5.99148 15.2225 5.99148 16.081C5.99148 16.7992 6.16229 17.4168 6.50391 17.9336C6.85429 18.4416 7.30102 18.8665 7.84411 19.2081C8.38719 19.541 8.95656 19.8169 9.5522 20.0359C10.1478 20.2461 10.6953 20.4169 11.1946 20.5483L13.9276 21.2841C14.6283 21.468 15.4079 21.7221 16.2663 22.0462C17.1335 22.3703 17.9613 22.8126 18.7496 23.3732C19.5468 23.9251 20.2037 24.6346 20.7205 25.5018C21.2373 26.369 21.4957 27.4332 21.4957 28.6946C21.4957 30.1487 21.1147 31.4626 20.3526 32.6364C19.5993 33.8101 18.4956 34.743 17.0415 35.435C15.5962 36.127 13.84 36.473 11.7727 36.473C9.84564 36.473 8.17697 36.1621 6.76669 35.5401C5.36518 34.9182 4.26148 34.051 3.45561 32.9386C2.6585 31.8261 2.20739 30.5341 2.10227 29.0625H5.46591C5.5535 30.0786 5.89512 30.9195 6.49077 31.5852C7.09517 32.2422 7.85724 32.7327 8.77699 33.0568C9.70549 33.3722 10.7041 33.5298 11.7727 33.5298C13.0166 33.5298 14.1334 33.3284 15.1232 32.9254C16.113 32.5137 16.897 31.9444 17.4751 31.2173C18.0533 30.4815 18.3423 29.6231 18.3423 28.642C18.3423 27.7486 18.0927 27.0215 17.5934 26.4609C17.0941 25.9003 16.4371 25.4448 15.6225 25.0945C14.8079 24.7441 13.9276 24.4375 12.9815 24.1747L9.67046 23.2287C7.56818 22.6243 5.90388 21.7615 4.67756 20.6403C3.45123 19.5191 2.83807 18.0518 2.83807 16.2386C2.83807 14.732 3.24538 13.4181 4.06001 12.2969C4.8834 11.1669 5.9871 10.291 7.37109 9.66903C8.76385 9.03835 10.3187 8.72301 12.0355 8.72301C13.7699 8.72301 15.3116 9.03397 16.6605 9.65589C18.0095 10.2691 19.0781 11.11 19.8665 12.1786C20.6636 13.2473 21.084 14.4605 21.1278 15.8182H17.9744ZM29.5336 23.8594V36H26.4328V9.09091H29.5336V18.9716H29.7964C30.2694 17.9292 30.979 17.1014 31.925 16.4883C32.8798 15.8664 34.1499 15.5554 35.7354 15.5554C37.1106 15.5554 38.315 15.8313 39.3486 16.3832C40.3823 16.9263 41.1837 17.7628 41.7531 18.8928C42.3312 20.014 42.6203 21.4418 42.6203 23.1761V36H39.5194V23.3864C39.5194 21.7834 39.1034 20.5439 38.2712 19.668C37.4478 18.7833 36.3047 18.3409 34.8419 18.3409C33.8258 18.3409 32.9148 18.5555 32.1089 18.9847C31.3118 19.4139 30.6811 20.0402 30.2169 20.8636C29.7614 21.687 29.5336 22.6856 29.5336 23.8594ZM54.2321 36.473C52.9532 36.473 51.7926 36.2321 50.7502 35.7504C49.7078 35.2598 48.88 34.5547 48.2669 33.6349C47.6537 32.7064 47.3471 31.5852 47.3471 30.2713C47.3471 29.1151 47.5749 28.1778 48.0304 27.4595C48.4859 26.7325 49.0946 26.1631 49.8567 25.7514C50.6188 25.3397 51.4597 25.0331 52.3794 24.8317C53.3079 24.6214 54.2408 24.455 55.1781 24.3324C56.4044 24.1747 57.3986 24.0565 58.1607 23.9776C58.9315 23.89 59.4921 23.7455 59.8425 23.544C60.2016 23.3426 60.3812 22.9922 60.3812 22.4929V22.3878C60.3812 21.0914 60.0265 20.084 59.3169 19.3658C58.6162 18.6475 57.5519 18.2884 56.1241 18.2884C54.6438 18.2884 53.4831 18.6125 52.6422 19.2607C51.8013 19.9089 51.21 20.6009 50.8684 21.3366L47.9252 20.2855C48.4508 19.0592 49.1516 18.1044 50.0275 17.4212C50.9122 16.7292 51.8758 16.2474 52.9181 15.9759C53.9693 15.6955 55.0029 15.5554 56.019 15.5554C56.6672 15.5554 57.4118 15.6342 58.2527 15.7919C59.1023 15.9408 59.9213 16.2518 60.7097 16.7248C61.5068 17.1978 62.1681 17.9117 62.6937 18.8665C63.2193 19.8213 63.4821 21.1001 63.4821 22.7031V36H60.3812V33.267H60.2235C60.0133 33.705 59.6629 34.1737 59.1724 34.6729C58.6819 35.1722 58.0293 35.5971 57.2147 35.9474C56.4 36.2978 55.4058 36.473 54.2321 36.473ZM54.7051 33.6875C55.9314 33.6875 56.965 33.4466 57.8059 32.9648C58.6556 32.4831 59.295 31.8612 59.7243 31.0991C60.1622 30.337 60.3812 29.5355 60.3812 28.6946V25.8565C60.2498 26.0142 59.9608 26.1587 59.514 26.2901C59.0761 26.4128 58.568 26.5223 57.9899 26.6186C57.4205 26.7062 56.8643 26.785 56.3212 26.8551C55.7869 26.9164 55.3533 26.969 55.0204 27.0128C54.2145 27.1179 53.4612 27.2887 52.7605 27.5252C52.0685 27.753 51.5079 28.099 51.0787 28.5632C50.6582 29.0187 50.448 29.6406 50.448 30.429C50.448 31.5064 50.8465 32.321 51.6436 32.8729C52.4495 33.416 53.47 33.6875 54.7051 33.6875ZM69.1418 36V15.8182H72.1375V18.8665H72.3477C72.7156 17.8679 73.3814 17.0576 74.3449 16.4357C75.3084 15.8138 76.3946 15.5028 77.6034 15.5028C77.8312 15.5028 78.1159 15.5072 78.4575 15.516C78.7991 15.5247 79.0575 15.5379 79.2327 15.5554V18.7088C79.1276 18.6825 78.8867 18.6431 78.51 18.5906C78.1421 18.5292 77.7523 18.4986 77.3406 18.4986C76.3596 18.4986 75.4836 18.7044 74.7128 19.1161C73.9507 19.5191 73.3463 20.0797 72.8996 20.7979C72.4616 21.5075 72.2426 22.3177 72.2426 23.2287V36H69.1418ZM90.7558 36.4205C88.8112 36.4205 87.1337 35.9912 85.7235 35.1328C84.3219 34.2656 83.2401 33.0568 82.4781 31.5064C81.7248 29.9472 81.3481 28.134 81.3481 26.0668C81.3481 23.9995 81.7248 22.1776 82.4781 20.6009C83.2401 19.0154 84.3 17.7803 85.6578 16.8956C87.0242 16.0021 88.6185 15.5554 90.4404 15.5554C91.4916 15.5554 92.5296 15.7306 93.5544 16.081C94.5793 16.4313 95.5122 17.0007 96.3531 17.7891C97.194 18.5687 97.8641 19.6023 98.3634 20.8899C98.8627 22.1776 99.1123 23.763 99.1123 25.6463V26.9602H83.5555V24.2798H95.9589C95.9589 23.1411 95.7312 22.125 95.2757 21.2315C94.8289 20.3381 94.1895 19.6329 93.3573 19.1161C92.5339 18.5993 91.5616 18.3409 90.4404 18.3409C89.2053 18.3409 88.1367 18.6475 87.2345 19.2607C86.341 19.8651 85.6534 20.6534 85.1716 21.6257C84.6898 22.598 84.449 23.6404 84.449 24.7528V26.5398C84.449 28.0639 84.7117 29.3559 85.2373 30.4158C85.7716 31.467 86.5118 32.2685 87.4578 32.8203C88.4039 33.3634 89.5032 33.6349 90.7558 33.6349C91.5704 33.6349 92.3062 33.5211 92.9632 33.2933C93.6289 33.0568 94.2026 32.7064 94.6844 32.2422C95.1662 31.7692 95.5384 31.1823 95.8012 30.4815L98.797 31.3224C98.4816 32.3385 97.9517 33.232 97.2071 34.0028C96.4626 34.7649 95.5428 35.3606 94.4479 35.7898C93.353 36.2102 92.1222 36.4205 90.7558 36.4205ZM112.343 9.09091H116.075L123.538 21.652H123.853L131.316 9.09091H135.048L125.325 24.9105V36H122.066V24.9105L112.343 9.09091ZM144.186 36.4205C142.364 36.4205 140.766 35.9869 139.391 35.1197C138.024 34.2525 136.955 33.0393 136.185 31.4801C135.422 29.9209 135.041 28.099 135.041 26.0142C135.041 23.9119 135.422 22.0768 136.185 20.5089C136.955 18.9409 138.024 17.7234 139.391 16.8562C140.766 15.989 142.364 15.5554 144.186 15.5554C146.008 15.5554 147.603 15.989 148.969 16.8562C150.344 17.7234 151.413 18.9409 152.175 20.5089C152.946 22.0768 153.331 23.9119 153.331 26.0142C153.331 28.099 152.946 29.9209 152.175 31.4801C151.413 33.0393 150.344 34.2525 148.969 35.1197C147.603 35.9869 146.008 36.4205 144.186 36.4205ZM144.186 33.6349C145.57 33.6349 146.709 33.2802 147.603 32.5707C148.496 31.8612 149.157 30.9283 149.587 29.772C150.016 28.6158 150.23 27.3632 150.23 26.0142C150.23 24.6652 150.016 23.4083 149.587 22.2433C149.157 21.0782 148.496 20.1366 147.603 19.4183C146.709 18.7 145.57 18.3409 144.186 18.3409C142.802 18.3409 141.664 18.7 140.77 19.4183C139.877 20.1366 139.215 21.0782 138.786 22.2433C138.357 23.4083 138.142 24.6652 138.142 26.0142C138.142 27.3632 138.357 28.6158 138.786 29.772C139.215 30.9283 139.877 31.8612 140.77 32.5707C141.664 33.2802 142.802 33.6349 144.186 33.6349ZM170.783 27.7486V15.8182H173.884V36H170.783V32.5838H170.573C170.1 33.6087 169.364 34.4802 168.366 35.1985C167.367 35.908 166.106 36.2628 164.582 36.2628C163.32 36.2628 162.199 35.9869 161.218 35.435C160.237 34.8744 159.466 34.0335 158.906 32.9123C158.345 31.7823 158.065 30.3589 158.065 28.642V15.8182H161.165V28.4318C161.165 29.9034 161.577 31.0772 162.401 31.9531C163.233 32.8291 164.293 33.267 165.58 33.267C166.351 33.267 167.135 33.07 167.932 32.6758C168.738 32.2816 169.413 31.6772 169.956 30.8626C170.507 30.0479 170.783 29.0099 170.783 27.7486ZM179.564 36V15.8182H182.559V18.8665H182.77C183.138 17.8679 183.803 17.0576 184.767 16.4357C185.73 15.8138 186.816 15.5028 188.025 15.5028C188.253 15.5028 188.538 15.5072 188.879 15.516C189.221 15.5247 189.479 15.5379 189.655 15.5554V18.7088C189.549 18.6825 189.309 18.6431 188.932 18.5906C188.564 18.5292 188.174 18.4986 187.763 18.4986C186.781 18.4986 185.906 18.7044 185.135 19.1161C184.373 19.5191 183.768 20.0797 183.321 20.7979C182.883 21.5075 182.665 22.3177 182.665 23.2287V36H179.564ZM204.157 9.09091H208.046L217.191 31.4276H217.506L226.651 9.09091H230.54V36H227.492V15.5554H227.229L218.82 36H215.877L207.468 15.5554H207.205V36H204.157V9.09091ZM249.372 27.7486V15.8182H252.473V36H249.372V32.5838H249.162C248.689 33.6087 247.953 34.4802 246.955 35.1985C245.956 35.908 244.695 36.2628 243.171 36.2628C241.909 36.2628 240.788 35.9869 239.807 35.435C238.826 34.8744 238.055 34.0335 237.494 32.9123C236.934 31.7823 236.653 30.3589 236.653 28.642V15.8182H239.754V28.4318C239.754 29.9034 240.166 31.0772 240.989 31.9531C241.822 32.8291 242.881 33.267 244.169 33.267C244.94 33.267 245.724 33.07 246.521 32.6758C247.327 32.2816 248.001 31.6772 248.544 30.8626C249.096 30.0479 249.372 29.0099 249.372 27.7486ZM272.448 20.3381L269.662 21.1264C269.487 20.6622 269.229 20.2111 268.887 19.7731C268.554 19.3263 268.099 18.9585 267.521 18.6694C266.943 18.3803 266.202 18.2358 265.3 18.2358C264.065 18.2358 263.036 18.5205 262.213 19.0898C261.398 19.6504 260.991 20.3643 260.991 21.2315C260.991 22.0024 261.271 22.6111 261.831 23.0579C262.392 23.5046 263.268 23.8769 264.459 24.1747L267.455 24.9105C269.26 25.3485 270.604 26.0186 271.489 26.9208C272.374 27.8143 272.816 28.9661 272.816 30.3764C272.816 31.5327 272.483 32.5663 271.817 33.4773C271.16 34.3883 270.241 35.1065 269.058 35.6321C267.876 36.1577 266.5 36.4205 264.932 36.4205C262.874 36.4205 261.17 35.9737 259.821 35.0803C258.472 34.1868 257.618 32.8816 257.259 31.1648L260.202 30.429C260.483 31.5152 261.012 32.3298 261.792 32.8729C262.58 33.416 263.61 33.6875 264.88 33.6875C266.325 33.6875 267.473 33.3809 268.322 32.7678C269.181 32.1458 269.61 31.4013 269.61 30.5341C269.61 29.8333 269.365 29.2464 268.874 28.7734C268.384 28.2917 267.63 27.9325 266.614 27.696L263.251 26.9077C261.402 26.4697 260.045 25.7908 259.177 24.8711C258.319 23.9426 257.89 22.782 257.89 21.3892C257.89 20.2505 258.209 19.2431 258.849 18.3672C259.497 17.4912 260.377 16.8036 261.49 16.3043C262.611 15.805 263.881 15.5554 265.3 15.5554C267.297 15.5554 268.865 15.9934 270.004 16.8693C271.152 17.7453 271.966 18.9015 272.448 20.3381ZM285.682 36.4205C283.79 36.4205 282.161 35.9737 280.795 35.0803C279.428 34.1868 278.377 32.9561 277.641 31.3881C276.905 29.8202 276.538 28.0289 276.538 26.0142C276.538 23.9645 276.914 22.1557 277.668 20.5877C278.43 19.011 279.489 17.7803 280.847 16.8956C282.214 16.0021 283.808 15.5554 285.63 15.5554C287.049 15.5554 288.328 15.8182 289.467 16.3438C290.605 16.8693 291.538 17.6051 292.265 18.5511C292.992 19.4972 293.443 20.6009 293.619 21.8622H290.518C290.281 20.9425 289.756 20.1278 288.941 19.4183C288.135 18.7 287.049 18.3409 285.682 18.3409C284.474 18.3409 283.414 18.6562 282.503 19.2869C281.601 19.9089 280.895 20.7892 280.387 21.9279C279.888 23.0579 279.638 24.3849 279.638 25.9091C279.638 27.4683 279.884 28.826 280.374 29.9822C280.873 31.1385 281.574 32.0363 282.476 32.6758C283.387 33.3152 284.456 33.6349 285.682 33.6349C286.488 33.6349 287.22 33.4948 287.877 33.2145C288.534 32.9342 289.09 32.5312 289.545 32.0057C290.001 31.4801 290.325 30.8494 290.518 30.1136H293.619C293.443 31.3049 293.01 32.378 292.318 33.3327C291.634 34.2788 290.728 35.0321 289.598 35.5927C288.477 36.1445 287.172 36.4205 285.682 36.4205ZM301.252 9.09091V36H298.152V9.09091H301.252ZM315.393 36.4205C313.449 36.4205 311.771 35.9912 310.361 35.1328C308.96 34.2656 307.878 33.0568 307.116 31.5064C306.362 29.9472 305.986 28.134 305.986 26.0668C305.986 23.9995 306.362 22.1776 307.116 20.6009C307.878 19.0154 308.938 17.7803 310.295 16.8956C311.662 16.0021 313.256 15.5554 315.078 15.5554C316.129 15.5554 317.167 15.7306 318.192 16.081C319.217 16.4313 320.15 17.0007 320.991 17.7891C321.832 18.5687 322.502 19.6023 323.001 20.8899C323.5 22.1776 323.75 23.763 323.75 25.6463V26.9602H308.193V24.2798H320.597C320.597 23.1411 320.369 22.125 319.913 21.2315C319.467 20.3381 318.827 19.6329 317.995 19.1161C317.172 18.5993 316.199 18.3409 315.078 18.3409C313.843 18.3409 312.774 18.6475 311.872 19.2607C310.979 19.8651 310.291 20.6534 309.809 21.6257C309.328 22.598 309.087 23.6404 309.087 24.7528V26.5398C309.087 28.0639 309.349 29.3559 309.875 30.4158C310.409 31.467 311.15 32.2685 312.096 32.8203C313.042 33.3634 314.141 33.6349 315.393 33.6349C316.208 33.6349 316.944 33.5211 317.601 33.2933C318.267 33.0568 318.84 32.7064 319.322 32.2422C319.804 31.7692 320.176 31.1823 320.439 30.4815L323.435 31.3224C323.119 32.3385 322.589 33.232 321.845 34.0028C321.1 34.7649 320.181 35.3606 319.086 35.7898C317.991 36.2102 316.76 36.4205 315.393 36.4205ZM340.397 36H336.981L346.862 9.09091H350.225L360.106 36H356.69L348.649 13.348H348.439L340.397 36ZM341.659 25.4886H355.429V28.3793H341.659V25.4886ZM372.023 43.9886C370.526 43.9886 369.238 43.7959 368.161 43.4105C367.083 43.0339 366.185 42.5346 365.467 41.9126C364.757 41.2995 364.192 40.6425 363.772 39.9418L366.242 38.2074C366.522 38.5753 366.877 38.9957 367.306 39.4688C367.736 39.9505 368.323 40.3666 369.067 40.717C369.82 41.0761 370.806 41.2557 372.023 41.2557C373.653 41.2557 374.997 40.8615 376.057 40.0732C377.117 39.2848 377.647 38.0497 377.647 36.3679V32.2685H377.384C377.156 32.6364 376.832 33.0919 376.412 33.6349C376 34.1693 375.405 34.6467 374.625 35.0671C373.854 35.4788 372.812 35.6847 371.498 35.6847C369.869 35.6847 368.406 35.2992 367.109 34.5284C365.822 33.7576 364.801 32.6364 364.048 31.1648C363.303 29.6932 362.931 27.9062 362.931 25.804C362.931 23.7367 363.295 21.9367 364.022 20.4038C364.749 18.8621 365.76 17.6708 367.057 16.8299C368.353 15.9802 369.851 15.5554 371.55 15.5554C372.864 15.5554 373.907 15.7744 374.678 16.2124C375.457 16.6416 376.053 17.1321 376.464 17.6839C376.885 18.227 377.209 18.6738 377.437 19.0241H377.752V15.8182H380.748V36.5781C380.748 38.3125 380.354 39.7228 379.565 40.8089C378.786 41.9039 377.735 42.7054 376.412 43.2134C375.098 43.7302 373.635 43.9886 372.023 43.9886ZM371.918 32.8991C373.162 32.8991 374.213 32.6145 375.072 32.0451C375.93 31.4757 376.583 30.6567 377.029 29.5881C377.476 28.5194 377.7 27.2405 377.7 25.7514C377.7 24.2973 377.481 23.0141 377.043 21.9016C376.605 20.7892 375.956 19.9176 375.098 19.2869C374.24 18.6562 373.18 18.3409 371.918 18.3409C370.604 18.3409 369.509 18.6738 368.634 19.3395C367.766 20.0052 367.114 20.8987 366.676 22.0199C366.247 23.1411 366.032 24.3849 366.032 25.7514C366.032 27.1529 366.251 28.3924 366.689 29.4698C367.136 30.5385 367.793 31.3794 368.66 31.9925C369.536 32.5969 370.622 32.8991 371.918 32.8991ZM394.886 36.4205C392.941 36.4205 391.264 35.9912 389.853 35.1328C388.452 34.2656 387.37 33.0568 386.608 31.5064C385.855 29.9472 385.478 28.134 385.478 26.0668C385.478 23.9995 385.855 22.1776 386.608 20.6009C387.37 19.0154 388.43 17.7803 389.788 16.8956C391.154 16.0021 392.748 15.5554 394.57 15.5554C395.621 15.5554 396.659 15.7306 397.684 16.081C398.709 16.4313 399.642 17.0007 400.483 17.7891C401.324 18.5687 401.994 19.6023 402.493 20.8899C402.993 22.1776 403.242 23.763 403.242 25.6463V26.9602H387.685V24.2798H400.089C400.089 23.1411 399.861 22.125 399.406 21.2315C398.959 20.3381 398.319 19.6329 397.487 19.1161C396.664 18.5993 395.692 18.3409 394.57 18.3409C393.335 18.3409 392.267 18.6475 391.364 19.2607C390.471 19.8651 389.783 20.6534 389.301 21.6257C388.82 22.598 388.579 23.6404 388.579 24.7528V26.5398C388.579 28.0639 388.842 29.3559 389.367 30.4158C389.902 31.467 390.642 32.2685 391.588 32.8203C392.534 33.3634 393.633 33.6349 394.886 33.6349C395.7 33.6349 396.436 33.5211 397.093 33.2933C397.759 33.0568 398.333 32.7064 398.814 32.2422C399.296 31.7692 399.668 31.1823 399.931 30.4815L402.927 31.3224C402.612 32.3385 402.082 33.232 401.337 34.0028C400.592 34.7649 399.673 35.3606 398.578 35.7898C397.483 36.2102 396.252 36.4205 394.886 36.4205ZM412.059 9.09091L411.796 28.4318H408.748L408.485 9.09091H412.059ZM410.272 36.2102C409.623 36.2102 409.067 35.9781 408.603 35.5138C408.139 35.0496 407.907 34.4934 407.907 33.8452C407.907 33.197 408.139 32.6407 408.603 32.1765C409.067 31.7122 409.623 31.4801 410.272 31.4801C410.92 31.4801 411.476 31.7122 411.94 32.1765C412.405 32.6407 412.637 33.197 412.637 33.8452C412.637 34.2744 412.527 34.6686 412.308 35.0277C412.098 35.3868 411.813 35.6759 411.454 35.8949C411.104 36.1051 410.71 36.2102 410.272 36.2102Z" fill="white"/>
</svg>
