<svg xmlns="http://www.w3.org/2000/svg" width="23.328" height="23.328" viewBox="0 0 23.328 23.328">
  <path id="check_circle_FILL1_wght400_GRAD0_opsz48" d="M89.944-863.029l8.252-8.252-1.341-1.312-6.911,6.911-3.5-3.5-1.312,1.312Zm1.72,6.357a11.285,11.285,0,0,1-4.52-.919,11.83,11.83,0,0,1-3.718-2.508,11.831,11.831,0,0,1-2.508-3.718,11.286,11.286,0,0,1-.919-4.52,11.358,11.358,0,0,1,.919-4.549,11.657,11.657,0,0,1,2.508-3.7,11.955,11.955,0,0,1,3.718-2.493,11.285,11.285,0,0,1,4.52-.919,11.357,11.357,0,0,1,4.549.919,11.777,11.777,0,0,1,3.7,2.493,11.779,11.779,0,0,1,2.493,3.7,11.358,11.358,0,0,1,.919,4.549,11.286,11.286,0,0,1-.919,4.52,11.957,11.957,0,0,1-2.493,3.718,11.656,11.656,0,0,1-3.7,2.508A11.357,11.357,0,0,1,91.664-856.672Z" transform="translate(-80 880)" fill="#fff"/>
</svg>
