<svg width="322" height="53" viewBox="0 0 322 53" fill="none" xmlns="http://www.w3.org/2000/svg">
<g filter="url(#filter0_d_146_2)">
<path d="M99.2676 44.7192L96.0243 1.96661C96.0112 1.79337 96.1474 1.64523 96.3212 1.64392L314.431 0.00210508C314.589 0.000919342 314.721 0.121765 314.733 0.278816L317.975 41.9369C317.989 42.1097 317.853 42.2579 317.68 42.2601L99.5705 44.9965C99.4122 44.9985 99.2796 44.8771 99.2676 44.7192Z" fill="#159BD7"/>
<path d="M11.3523 9.09091H15.0838L22.5469 21.652H22.8622L30.3253 9.09091H34.0568L24.3338 24.9105V36H21.0753V24.9105L11.3523 9.09091ZM43.1951 36.4205C41.3732 36.4205 39.7746 35.9869 38.3993 35.1197C37.0328 34.2525 35.9642 33.0393 35.1934 31.4801C34.4313 29.9209 34.0502 28.099 34.0502 26.0142C34.0502 23.9119 34.4313 22.0768 35.1934 20.5089C35.9642 18.9409 37.0328 17.7234 38.3993 16.8562C39.7746 15.989 41.3732 15.5554 43.1951 15.5554C45.0171 15.5554 46.6113 15.989 47.9778 16.8562C49.353 17.7234 50.4217 18.9409 51.1838 20.5089C51.9546 22.0768 52.34 23.9119 52.34 26.0142C52.34 28.099 51.9546 29.9209 51.1838 31.4801C50.4217 33.0393 49.353 34.2525 47.9778 35.1197C46.6113 35.9869 45.0171 36.4205 43.1951 36.4205ZM43.1951 33.6349C44.5791 33.6349 45.7179 33.2802 46.6113 32.5707C47.5048 31.8612 48.1661 30.9283 48.5953 29.772C49.0246 28.6158 49.2392 27.3632 49.2392 26.0142C49.2392 24.6652 49.0246 23.4083 48.5953 22.2433C48.1661 21.0782 47.5048 20.1366 46.6113 19.4183C45.7179 18.7 44.5791 18.3409 43.1951 18.3409C41.8111 18.3409 40.6724 18.7 39.7789 19.4183C38.8855 20.1366 38.2241 21.0782 37.7949 22.2433C37.3657 23.4083 37.1511 24.6652 37.1511 26.0142C37.1511 27.3632 37.3657 28.6158 37.7949 29.772C38.2241 30.9283 38.8855 31.8612 39.7789 32.5707C40.6724 33.2802 41.8111 33.6349 43.1951 33.6349ZM69.7922 27.7486V15.8182H72.893V36H69.7922V32.5838H69.5819C69.1089 33.6087 68.3731 34.4802 67.3746 35.1985C66.376 35.908 65.1146 36.2628 63.5905 36.2628C62.3291 36.2628 61.2079 35.9869 60.2268 35.435C59.2458 34.8744 58.4749 34.0335 57.9143 32.9123C57.3537 31.7823 57.0734 30.3589 57.0734 28.642V15.8182H60.1743V28.4318C60.1743 29.9034 60.586 31.0772 61.4094 31.9531C62.2415 32.8291 63.3014 33.267 64.589 33.267C65.3599 33.267 66.1439 33.07 66.941 32.6758C67.7468 32.2816 68.4213 31.6772 68.9644 30.8626C69.5162 30.0479 69.7922 29.0099 69.7922 27.7486ZM78.5724 36V15.8182H81.5682V18.8665H81.7784C82.1463 17.8679 82.812 17.0576 83.7756 16.4357C84.7391 15.8138 85.8253 15.5028 87.0341 15.5028C87.2618 15.5028 87.5465 15.5072 87.8881 15.516C88.2298 15.5247 88.4882 15.5379 88.6634 15.5554V18.7088C88.5582 18.6825 88.3174 18.6431 87.9407 18.5906C87.5728 18.5292 87.183 18.4986 86.7713 18.4986C85.7902 18.4986 84.9143 18.7044 84.1435 19.1161C83.3814 19.5191 82.777 20.0797 82.3303 20.7979C81.8923 21.5075 81.6733 22.3177 81.6733 23.2287V36H78.5724ZM103.166 9.09091H107.055L116.2 31.4276H116.515L125.66 9.09091H129.549V36H126.501V15.5554H126.238L117.829 36H114.886L106.477 15.5554H106.214V36H103.166V9.09091ZM148.381 27.7486V15.8182H151.482V36H148.381V32.5838H148.171C147.698 33.6087 146.962 34.4802 145.963 35.1985C144.965 35.908 143.703 36.2628 142.179 36.2628C140.918 36.2628 139.797 35.9869 138.816 35.435C137.835 34.8744 137.064 34.0335 136.503 32.9123C135.943 31.7823 135.662 30.3589 135.662 28.642V15.8182H138.763V28.4318C138.763 29.9034 139.175 31.0772 139.998 31.9531C140.83 32.8291 141.89 33.267 143.178 33.267C143.949 33.267 144.733 33.07 145.53 32.6758C146.336 32.2816 147.01 31.6772 147.553 30.8626C148.105 30.0479 148.381 29.0099 148.381 27.7486ZM171.457 20.3381L168.671 21.1264C168.496 20.6622 168.238 20.2111 167.896 19.7731C167.563 19.3263 167.108 18.9585 166.53 18.6694C165.951 18.3803 165.211 18.2358 164.309 18.2358C163.074 18.2358 162.045 18.5205 161.221 19.0898C160.407 19.6504 159.999 20.3643 159.999 21.2315C159.999 22.0024 160.28 22.6111 160.84 23.0579C161.401 23.5046 162.277 23.8769 163.468 24.1747L166.464 24.9105C168.268 25.3485 169.613 26.0186 170.498 26.9208C171.382 27.8143 171.825 28.9661 171.825 30.3764C171.825 31.5327 171.492 32.5663 170.826 33.4773C170.169 34.3883 169.249 35.1065 168.067 35.6321C166.884 36.1577 165.509 36.4205 163.941 36.4205C161.883 36.4205 160.179 35.9737 158.83 35.0803C157.481 34.1868 156.627 32.8816 156.268 31.1648L159.211 30.429C159.491 31.5152 160.021 32.3298 160.801 32.8729C161.589 33.416 162.618 33.6875 163.889 33.6875C165.334 33.6875 166.481 33.3809 167.331 32.7678C168.189 32.1458 168.619 31.4013 168.619 30.5341C168.619 29.8333 168.373 29.2464 167.883 28.7734C167.392 28.2917 166.639 27.9325 165.623 27.696L162.259 26.9077C160.411 26.4697 159.053 25.7908 158.186 24.8711C157.328 23.9426 156.899 22.782 156.899 21.3892C156.899 20.2505 157.218 19.2431 157.858 18.3672C158.506 17.4912 159.386 16.8036 160.499 16.3043C161.62 15.805 162.89 15.5554 164.309 15.5554C166.306 15.5554 167.874 15.9934 169.013 16.8693C170.16 17.7453 170.975 18.9015 171.457 20.3381ZM184.691 36.4205C182.799 36.4205 181.17 35.9737 179.803 35.0803C178.437 34.1868 177.386 32.9561 176.65 31.3881C175.914 29.8202 175.546 28.0289 175.546 26.0142C175.546 23.9645 175.923 22.1557 176.676 20.5877C177.438 19.011 178.498 17.7803 179.856 16.8956C181.222 16.0021 182.817 15.5554 184.639 15.5554C186.058 15.5554 187.337 15.8182 188.475 16.3438C189.614 16.8693 190.547 17.6051 191.274 18.5511C192.001 19.4972 192.452 20.6009 192.627 21.8622H189.526C189.29 20.9425 188.764 20.1278 187.95 19.4183C187.144 18.7 186.058 18.3409 184.691 18.3409C183.482 18.3409 182.423 18.6562 181.512 19.2869C180.609 19.9089 179.904 20.7892 179.396 21.9279C178.897 23.0579 178.647 24.3849 178.647 25.9091C178.647 27.4683 178.892 28.826 179.383 29.9822C179.882 31.1385 180.583 32.0363 181.485 32.6758C182.396 33.3152 183.465 33.6349 184.691 33.6349C185.497 33.6349 186.229 33.4948 186.885 33.2145C187.542 32.9342 188.099 32.5312 188.554 32.0057C189.01 31.4801 189.334 30.8494 189.526 30.1136H192.627C192.452 31.3049 192.019 32.378 191.327 33.3327C190.643 34.2788 189.737 35.0321 188.607 35.5927C187.486 36.1445 186.18 36.4205 184.691 36.4205ZM200.261 9.09091V36H197.16V9.09091H200.261ZM214.402 36.4205C212.458 36.4205 210.78 35.9912 209.37 35.1328C207.968 34.2656 206.887 33.0568 206.125 31.5064C205.371 29.9472 204.995 28.134 204.995 26.0668C204.995 23.9995 205.371 22.1776 206.125 20.6009C206.887 19.0154 207.947 17.7803 209.304 16.8956C210.671 16.0021 212.265 15.5554 214.087 15.5554C215.138 15.5554 216.176 15.7306 217.201 16.081C218.226 16.4313 219.159 17.0007 220 17.7891C220.84 18.5687 221.511 19.6023 222.01 20.8899C222.509 22.1776 222.759 23.763 222.759 25.6463V26.9602H207.202V24.2798H219.605C219.605 23.1411 219.378 22.125 218.922 21.2315C218.475 20.3381 217.836 19.6329 217.004 19.1161C216.18 18.5993 215.208 18.3409 214.087 18.3409C212.852 18.3409 211.783 18.6475 210.881 19.2607C209.987 19.8651 209.3 20.6534 208.818 21.6257C208.336 22.598 208.095 23.6404 208.095 24.7528V26.5398C208.095 28.0639 208.358 29.3559 208.884 30.4158C209.418 31.467 210.158 32.2685 211.104 32.8203C212.05 33.3634 213.15 33.6349 214.402 33.6349C215.217 33.6349 215.953 33.5211 216.61 33.2933C217.275 33.0568 217.849 32.7064 218.331 32.2422C218.813 31.7692 219.185 31.1823 219.448 30.4815L222.443 31.3224C222.128 32.3385 221.598 33.232 220.854 34.0028C220.109 34.7649 219.189 35.3606 218.094 35.7898C216.999 36.2102 215.769 36.4205 214.402 36.4205ZM239.406 36H235.99L245.871 9.09091H249.234L259.115 36H255.699L247.658 13.348H247.447L239.406 36ZM240.668 25.4886H254.437V28.3793H240.668V25.4886ZM271.032 43.9886C269.534 43.9886 268.247 43.7959 267.169 43.4105C266.092 43.0339 265.194 42.5346 264.476 41.9126C263.766 41.2995 263.201 40.6425 262.781 39.9418L265.251 38.2074C265.531 38.5753 265.886 38.9957 266.315 39.4688C266.744 39.9505 267.331 40.3666 268.076 40.717C268.829 41.0761 269.815 41.2557 271.032 41.2557C272.661 41.2557 274.006 40.8615 275.066 40.0732C276.126 39.2848 276.656 38.0497 276.656 36.3679V32.2685H276.393C276.165 32.6364 275.841 33.0919 275.421 33.6349C275.009 34.1693 274.413 34.6467 273.634 35.0671C272.863 35.4788 271.821 35.6847 270.507 35.6847C268.877 35.6847 267.415 35.2992 266.118 34.5284C264.831 33.7576 263.81 32.6364 263.057 31.1648C262.312 29.6932 261.94 27.9062 261.94 25.804C261.94 23.7367 262.303 21.9367 263.03 20.4038C263.757 18.8621 264.769 17.6708 266.066 16.8299C267.362 15.9802 268.86 15.5554 270.559 15.5554C271.873 15.5554 272.916 15.7744 273.686 16.2124C274.466 16.6416 275.062 17.1321 275.473 17.6839C275.894 18.227 276.218 18.6738 276.446 19.0241H276.761V15.8182H279.757V36.5781C279.757 38.3125 279.362 39.7228 278.574 40.8089C277.795 41.9039 276.743 42.7054 275.421 43.2134C274.107 43.7302 272.644 43.9886 271.032 43.9886ZM270.927 32.8991C272.171 32.8991 273.222 32.6145 274.081 32.0451C274.939 31.4757 275.592 30.6567 276.038 29.5881C276.485 28.5194 276.708 27.2405 276.708 25.7514C276.708 24.2973 276.489 23.0141 276.051 21.9016C275.613 20.7892 274.965 19.9176 274.107 19.2869C273.248 18.6562 272.188 18.3409 270.927 18.3409C269.613 18.3409 268.518 18.6738 267.642 19.3395C266.775 20.0052 266.123 20.8987 265.685 22.0199C265.255 23.1411 265.041 24.3849 265.041 25.7514C265.041 27.1529 265.26 28.3924 265.698 29.4698C266.144 30.5385 266.801 31.3794 267.669 31.9925C268.545 32.5969 269.631 32.8991 270.927 32.8991ZM293.894 36.4205C291.95 36.4205 290.272 35.9912 288.862 35.1328C287.461 34.2656 286.379 33.0568 285.617 31.5064C284.863 29.9472 284.487 28.134 284.487 26.0668C284.487 23.9995 284.863 22.1776 285.617 20.6009C286.379 19.0154 287.439 17.7803 288.796 16.8956C290.163 16.0021 291.757 15.5554 293.579 15.5554C294.63 15.5554 295.668 15.7306 296.693 16.081C297.718 16.4313 298.651 17.0007 299.492 17.7891C300.333 18.5687 301.003 19.6023 301.502 20.8899C302.001 22.1776 302.251 23.763 302.251 25.6463V26.9602H286.694V24.2798H299.098C299.098 23.1411 298.87 22.125 298.414 21.2315C297.968 20.3381 297.328 19.6329 296.496 19.1161C295.673 18.5993 294.7 18.3409 293.579 18.3409C292.344 18.3409 291.275 18.6475 290.373 19.2607C289.48 19.8651 288.792 20.6534 288.31 21.6257C287.829 22.598 287.588 23.6404 287.588 24.7528V26.5398C287.588 28.0639 287.85 29.3559 288.376 30.4158C288.91 31.467 289.65 32.2685 290.597 32.8203C291.543 33.3634 292.642 33.6349 293.894 33.6349C294.709 33.6349 295.445 33.5211 296.102 33.2933C296.768 33.0568 297.341 32.7064 297.823 32.2422C298.305 31.7692 298.677 31.1823 298.94 30.4815L301.936 31.3224C301.62 32.3385 301.09 33.232 300.346 34.0028C299.601 34.7649 298.681 35.3606 297.587 35.7898C296.492 36.2102 295.261 36.4205 293.894 36.4205ZM311.067 9.09091L310.805 28.4318H307.756L307.494 9.09091H311.067ZM309.28 36.2102C308.632 36.2102 308.076 35.9781 307.612 35.5138C307.148 35.0496 306.915 34.4934 306.915 33.8452C306.915 33.197 307.148 32.6407 307.612 32.1765C308.076 31.7122 308.632 31.4801 309.28 31.4801C309.929 31.4801 310.485 31.7122 310.949 32.1765C311.413 32.6407 311.646 33.197 311.646 33.8452C311.646 34.2744 311.536 34.6686 311.317 35.0277C311.107 35.3868 310.822 35.6759 310.463 35.8949C310.113 36.1051 309.718 36.2102 309.28 36.2102Z" fill="white"/>
</g>
<defs>
<filter id="filter0_d_146_2" x="7.35254" y="0.00219727" width="314.624" height="52.9944" filterUnits="userSpaceOnUse" color-interpolation-filters="sRGB">
<feFlood flood-opacity="0" result="BackgroundImageFix"/>
<feColorMatrix in="SourceAlpha" type="matrix" values="0 0 0 0 0 0 0 0 0 0 0 0 0 0 0 0 0 0 127 0" result="hardAlpha"/>
<feOffset dy="4"/>
<feGaussianBlur stdDeviation="2"/>
<feComposite in2="hardAlpha" operator="out"/>
<feColorMatrix type="matrix" values="0 0 0 0 0 0 0 0 0 0 0 0 0 0 0 0 0 0 0.25 0"/>
<feBlend mode="normal" in2="BackgroundImageFix" result="effect1_dropShadow_146_2"/>
<feBlend mode="normal" in="SourceGraphic" in2="effect1_dropShadow_146_2" result="shape"/>
</filter>
</defs>
</svg>
